SplineFontDB: 3.2
FontName: D-DIN-PRO-Condensed-SemiBold-Italic
FullName: D-DIN-PRO-Condensed-SemiBold-Italic
FamilyName: D-DIN-PRO-Condensed
Weight: Semibold
Copyright: Copyright (c) CyberFei. All rights reserved
Version: 1.1.0
ItalicAngle: -13
UnderlinePosition: -150
UnderlineWidth: 50
Ascent: 831
Descent: 169
InvalidEm: 0
sfntRevision: 0x00010000
LayerCount: 2
Layer: 0 0 "Back" 1
Layer: 1 0 "Fore" 0
XUID: [1021 868 -1451673819 2621]
StyleMap: 0x0040
FSType: 4
OS2Version: 3
OS2_WeightWidthSlopeOnly: 0
OS2_UseTypoMetrics: 0
CreationTime: 1462909513
ModificationTime: 1778060080
PfmFamily: 17
TTFWeight: 600
TTFWidth: 3
LineGap: 86
VLineGap: 0
Panose: 2 11 5 6 3 2 2 3 2 4
OS2TypoAscent: 831
OS2TypoAOffset: 0
OS2TypoDescent: -169
OS2TypoDOffset: 0
OS2TypoLinegap: 86
OS2WinAscent: 902
OS2WinAOffset: 0
OS2WinDescent: 184
OS2WinDOffset: 0
HheadAscent: 831
HheadAOffset: 0
HheadDescent: -169
HheadDOffset: 0
OS2SubXSize: 650
OS2SubYSize: 600
OS2SubXOff: 0
OS2SubYOff: 75
OS2SupXSize: 650
OS2SupYSize: 600
OS2SupXOff: 0
OS2SupYOff: 350
OS2StrikeYSize: 50
OS2StrikeYPos: 310
OS2CapHeight: 690
OS2XHeight: 517
OS2Vendor: 'MONO'
OS2CodePages: 00000001.00000000
OS2UnicodeRanges: 8000006f.4000000a.00000000.00000000
Lookup: 1 0 0 "'rtla' Right to Left Alternates lookup 0" { "'rtla' Right to Left Alternates lookup 0 subtable"  } ['rtla' ('DFLT' <'dflt' > ) ]
Lookup: 1 0 0 "'sups' Superscript lookup 1" { "'sups' Superscript lookup 1 subtable" ("superior") } ['sups' ('DFLT' <'dflt' > ) ]
Lookup: 4 0 0 "'frac' Diagonal Fractions lookup 2" { "'frac' Diagonal Fractions lookup 2 subtable"  } ['frac' ('DFLT' <'dflt' > ) ]
Lookup: 4 0 0 "'dlig' Discretionary Ligatures in Latin lookup 3" { "'dlig' Discretionary Ligatures in Latin lookup 3 subtable"  } ['dlig' ('latn' <'dflt' > ) ]
Lookup: 4 0 1 "'liga' Standard Ligatures in Latin lookup 4" { "'liga' Standard Ligatures in Latin lookup 4 subtable"  } ['liga' ('latn' <'dflt' > ) ]

StartChar: .notdef
Encoding: 65536 -1 0
Width: 593
GlyphClass: 1
Flags: MW
HStem: 1 66.5<97.1357 375.486 97.1357 426.633> 624.2 66.5<225.659 504.01 225.659 225.659>
VStem: 98.626 66.5 443.477 66.5
LayerCount: 2
Fore
SplineSet
174.512695312 690.700195312 m 1
 585.86328125 690.700195312 l 1
 426.6328125 1 l 1
 15.2822265625 1 l 1
 174.512695312 690.700195312 l 1
97.1357421875 67.5 m 1
 375.486328125 67.5 l 1
 504.009765625 624.200195312 l 1
 225.659179688 624.200195312 l 1
 97.1357421875 67.5 l 1
EndSplineSet
EndChar

StartChar: exclam
Encoding: 33 33 3
Width: 214
GlyphClass: 2
Flags: MW
HStem: 1 126.35<8.35352 87.4824 -20.8174 116.653> 670.7 20G<134.121 251.04 251.04 251.04>
VStem: 62.5264 108.3 72.5039 87.3613
LayerCount: 2
Fore
SplineSet
134.12109375 690.700195312 m 1xd0
 251.040039062 690.700195312 l 1
 119.509765625 187.200195312 l 1
 32.1484375 187.200195312 l 1
 134.12109375 690.700195312 l 1xd0
8.353515625 127.349609375 m 1xe0
 116.653320312 127.349609375 l 1
 87.482421875 1 l 1
 -20.8173828125 1 l 1
 8.353515625 127.349609375 l 1xe0
EndSplineSet
EndChar

StartChar: quotedbl
Encoding: 34 34 4
Width: 287
GlyphClass: 2
Flags: MW
HStem: 436.1 254.601<117.513 157.533 58.7334 216.312 182.233 182.233 182.233 216.312 241.013 281.033>
VStem: 41.626 98.7998 165.126 98.7998
LayerCount: 2
Fore
SplineSet
117.512695312 690.700195312 m 1
 216.3125 690.700195312 l 1
 157.533203125 436.099609375 l 1
 58.7333984375 436.099609375 l 1
 117.512695312 690.700195312 l 1
241.012695312 690.700195312 m 1
 339.8125 690.700195312 l 1
 281.033203125 436.099609375 l 1
 182.233398438 436.099609375 l 1
 241.012695312 690.700195312 l 1
EndSplineSet
EndChar

StartChar: numbersign
Encoding: 35 35 5
Width: 461
GlyphClass: 2
Flags: MW
HStem: 1 21G<-20.9434 75.2236 -20.9434 -20.9434 152.907 249.074 152.907 152.907> 212.85 91.2002<8.29688 51.7168 -12.7578 82.3027 179.419 225.567 8.29688 147.884 353.269 403.343> 405.7 91.2002<72.7705 117.144 51.7148 148.614 72.7705 214.26 244.858 290.994 418.708 466.865> 670.7 20G<214.257 311.45 311.45 311.45 388.106 485.301 485.301 485.301>
LayerCount: 2
Fore
SplineSet
487.920898438 496.900390625 m 1
 466.865234375 405.700195312 l 1
 388.109375 405.700195312 l 1
 353.268554688 304.049804688 l 1
 424.397460938 304.049804688 l 1
 403.342773438 212.849609375 l 1
 321.734375 212.849609375 l 1
 249.07421875 1 l 1
 152.907226562 1 l 1
 225.567382812 212.849609375 l 1
 147.883789062 212.849609375 l 1
 75.2236328125 1 l 1
 -20.943359375 1 l 1
 51.716796875 212.849609375 l 1
 -12.7578125 212.849609375 l 1
 8.296875 304.049804688 l 1
 82.302734375 304.049804688 l 1
 117.143554688 405.700195312 l 1
 51.71484375 405.700195312 l 1
 72.7705078125 496.900390625 l 1
 148.614257812 496.900390625 l 1
 214.256835938 690.700195312 l 1
 311.450195312 690.700195312 l 1
 244.858398438 496.900390625 l 1
 322.463867188 496.900390625 l 1
 388.106445312 690.700195312 l 1
 485.30078125 690.700195312 l 1
 418.708007812 496.900390625 l 1
 487.920898438 496.900390625 l 1
256.15234375 304.049804688 m 1
 290.994140625 405.700195312 l 1
 214.259765625 405.700195312 l 1
 179.418945312 304.049804688 l 1
 256.15234375 304.049804688 l 1
EndSplineSet
EndChar

StartChar: dollar
Encoding: 36 36 6
Width: 375
GlyphClass: 2
Flags: MW
VStem: 29.2764 97.8506 153.727 84.5508 258.227 97.8496
LayerCount: 2
Fore
SplineSet
244.137695312 387.388671875 m 1
 320.494140625 347.837890625 339.088867188 288.420898438 319.887695312 205.25 c 0
 305.71875 143.875976562 267.0234375 52.5185546875 161.528320312 29.564453125 c 1
 139.142578125 -67.4013671875 l 1
 54.591796875 -67.4013671875 l 1
 76.5322265625 27.6337890625 l 1
 15.9521484375 37.8583984375 -32.96875 80.6015625 -9.3896484375 202.693359375 c 2
 -5.9599609375 220.448242188 l 1
 93.552734375 220.448242188 l 1
 87.38671875 185.631835938 80.8115234375 148.50390625 99.6318359375 127.69140625 c 1
 141.752929688 310.134765625 l 1
 89.7001953125 336.568359375 31.23046875 370.462890625 57.349609375 483.59765625 c 0
 69.0576171875 534.3125 90.607421875 576.302734375 123.591796875 607.524414062 c 0
 152.08203125 634.493164062 185.555664062 651.642578125 222.234375 658.73828125 c 1
 243.4296875 750.548828125 l 1
 327.979492188 750.548828125 l 1
 306.412109375 657.12890625 l 1
 359.875 642.603515625 396.8125 596.18359375 377.70703125 484.629882812 c 2
 374.602539062 466.499023438 l 1
 281.03125 466.499023438 l 1
 287.448242188 499.176757812 293.396484375 529.465820312 281.776367188 550.419921875 c 1
 244.137695312 387.388671875 l 1
199.391601562 559.795898438 m 1
 185.380859375 551.399414062 166.607421875 533.006835938 157.393554688 493.09765625 c 0
 148.588867188 454.9609375 157.423828125 438.645507812 168.736328125 427.013671875 c 1
 199.391601562 559.795898438 l 1
184.627929688 129.618164062 m 1
 195.099609375 138.091796875 210.719726562 156.225585938 220.064453125 196.700195312 c 0
 229.796875 238.859375 221.157226562 254.41015625 215.387695312 262.854492188 c 1
 184.627929688 129.618164062 l 1
146.815429688 673.599609375 m 1024
EndSplineSet
EndChar

StartChar: percent
Encoding: 37 37 7
Width: 680
GlyphClass: 2
Flags: MW
HStem: 1 21G<93.5625 189.762 93.5625 93.5625> 677.35 21G
VStem: 34.0273 99.752 167.978 99.749 429.229 99.752 563.18 99.748
LayerCount: 2
Fore
SplineSet
125.434570312 251.799804688 m 0
 60.46484375 251.799804688 16.16796875 284.643554688 40.3876953125 389.549804688 c 2
 80.0859375 561.5 l 2
 87.197265625 592.303710938 113.415039062 697.349609375 228.297851562 697.349609375 c 0
 292.954101562 697.349609375 337.731445312 665.2265625 313.78515625 561.5 c 2
 274.086914062 389.549804688 l 2
 263.8046875 345.01171875 234.505859375 251.799804688 125.434570312 251.799804688 c 0
500.685546875 690.700195312 m 1
 596.883789062 690.700195312 l 1
 189.76171875 1 l 1
 93.5625 1 l 1
 500.685546875 690.700195312 l 1
174.337890625 389.55078125 m 2
 214.036132812 561.500976562 l 2
 218.733398438 581.84765625 218.740234375 594.805664062 217.287109375 599.33203125 c 0
 216.33203125 602.310546875 215.172851562 604.250976562 206.805664062 604.250976562 c 0
 198.438476562 604.250976562 196.385742188 602.311523438 194.055664062 599.333984375 c 0
 190.509765625 594.802734375 184.534179688 581.844726562 179.837890625 561.5 c 2
 140.139648438 389.549804688 l 2
 135.291992188 368.552734375 135.134765625 355.0078125 136.625976562 350.079101562 c 0
 137.635742188 346.73828125 138.791992188 344.900390625 146.9296875 344.900390625 c 0
 155.067382812 344.900390625 157.073242188 346.73828125 159.625976562 350.079101562 c 0
 163.392578125 355.0078125 169.491210938 368.5546875 174.337890625 389.55078125 c 2
460.98046875 -6.5986328125 m 0
 396.009765625 -6.5986328125 351.713867188 26.2451171875 375.932617188 131.151367188 c 2
 415.630859375 303.100585938 l 2
 422.7421875 333.905273438 448.9609375 438.951171875 563.84375 438.951171875 c 0
 628.5 438.951171875 673.27734375 406.828125 649.330078125 303.100585938 c 2
 609.631835938 131.151367188 l 2
 599.349609375 86.6123046875 570.05078125 -6.5986328125 460.98046875 -6.5986328125 c 0
509.883789062 131.150390625 m 2
 549.581054688 303.099609375 l 2
 554.278320312 323.444335938 554.286132812 336.40234375 552.833007812 340.93359375 c 0
 551.873046875 343.918945312 550.712890625 345.850585938 542.3515625 345.850585938 c 0
 533.98046875 345.850585938 531.9296875 343.911132812 529.602539062 340.936523438 c 0
 526.056640625 336.404296875 520.079101562 323.444335938 515.3828125 303.100585938 c 2
 475.684570312 131.151367188 l 2
 470.836914062 110.153320312 470.680664062 96.6083984375 472.171875 91.6796875 c 0
 473.181640625 88.3388671875 474.338867188 86.5009765625 482.4765625 86.5009765625 c 0
 490.614257812 86.5009765625 492.618164062 88.3388671875 495.171875 91.6796875 c 0
 498.938476562 96.609375 505.036132812 110.153320312 509.883789062 131.150390625 c 2
EndSplineSet
EndChar

StartChar: ampersand
Encoding: 38 38 8
Width: 515
GlyphClass: 2
Flags: MW
HStem: -8.50098 99.751<122.23 158.857> 0.0507812 98.7988<330.65 421.674 394.123 398.859> 607.101 93.0986<294.811 312.013>
VStem: 50.1738 103.549 91.9746 103.548 280.072 102.601
LayerCount: 2
Fore
SplineSet
426.537109375 551.999023438 m 0xac
 411.099609375 485.131835938 364.344726562 431.489257812 287.5703125 364.459960938 c 1
 329.016601562 248.243164062 l 1
 392.1484375 324.2265625 l 1
 460.250976562 272.319335938 l 1
 362.538085938 155.676757812 l 1
 375.5 118.901367188 l 2
 382.666992188 98.849609375 387.868164062 98.849609375 394.123046875 98.849609375 c 2
 421.673828125 98.849609375 l 1
 402.811523438 17.150390625 l 1
 398.859375 0.05078125 l 1
 350.41015625 0.05078125 l 2x6c
 310.889648438 0.05078125 295.404296875 15.1455078125 282.892578125 51.2109375 c 2
 279.375 60.5849609375 l 1
 246.666992188 29.24609375 196.329101562 -8.5009765625 121.385742188 -8.5009765625 c 0
 74.6181640625 -8.5009765625 38.8046875 6.73046875 17.3779296875 37.8876953125 c 0
 -3.8837890625 68.8017578125 -8.1005859375 109.587890625 3.0185546875 157.749023438 c 0xb4
 18.4326171875 224.512695312 63.794921875 285.334960938 165.217773438 376.23828125 c 1
 131.762695312 468.837890625 125.512695312 507.270507812 135.83984375 552 c 0
 145.732421875 594.8515625 167.69140625 631.48046875 201.672851562 659.087890625 c 0
 235.434570312 686.516601562 274.21875 700.19921875 315.40234375 700.19921875 c 0
 357.13671875 700.19921875 389.849609375 686.571289062 410.6875 659.006835938 c 0
 431.572265625 631.379882812 436.41796875 594.793945312 426.537109375 551.999023438 c 0xac
324.375976562 553.901367188 m 0
 330.1015625 578.702148438 329.16796875 607.100585938 294.858398438 607.100585938 c 0
 280.615234375 607.100585938 270.551757812 602.7890625 261.198242188 594.135742188 c 0
 251.65625 585.307617188 244.1484375 572.622070312 239.826171875 553.900390625 c 0
 233.211914062 525.252929688 242.862304688 491.291992188 254.924804688 456.044921875 c 1
 298.8828125 497.8671875 316.9140625 521.579101562 324.375976562 553.901367188 c 0
198.083007812 286.37890625 m 1
 141.5546875 234.150390625 116.275390625 199.797851562 107.4453125 161.549804688 c 0
 103.096679688 142.716796875 94.3466796875 91.25 150.114257812 91.25 c 0xb4
 180.990234375 91.25 208.317382812 109.102539062 246.294921875 150.702148438 c 1
 198.083007812 286.37890625 l 1
EndSplineSet
EndChar

StartChar: quotesingle
Encoding: 39 39 9
Width: 163
GlyphClass: 2
Flags: MW
HStem: 436.1 254.601<117.513 157.533 58.7334 216.312>
VStem: 41.626 98.7998
LayerCount: 2
Fore
SplineSet
117.512695312 690.700195312 m 1
 216.3125 690.700195312 l 1
 157.533203125 436.099609375 l 1
 58.7333984375 436.099609375 l 1
 117.512695312 690.700195312 l 1
EndSplineSet
EndChar

StartChar: parenleft
Encoding: 40 40 10
Width: 267
GlyphClass: 2
Flags: MW
VStem: 50.1758 99.751
LayerCount: 2
Fore
SplineSet
42.71875 329.69921875 m 0
 57.2158203125 392.4921875 100.171875 551.383789062 231.73046875 728.856445312 c 2
 238.65625 738.19921875 l 1
 331.494140625 738.19921875 l 1
 315.265625 714.16796875 l 2
 257.125 628.073242188 179.80859375 491.431640625 142.469726562 329.69921875 c 0
 122.857421875 244.75 103.40625 102.657226562 137.729492188 -54.7099609375 c 2
 142.984375 -78.7998046875 l 1
 49.98828125 -78.7998046875 l 1
 36.5693359375 -29.876953125 -5.1669921875 122.283203125 42.71875 329.69921875 c 0
EndSplineSet
Substitution2: "'rtla' Right to Left Alternates lookup 0 subtable" parenright
EndChar

StartChar: parenright
Encoding: 41 41 11
Width: 267
GlyphClass: 2
Flags: MW
VStem: 135.676 99.751
LayerCount: 2
Fore
SplineSet
128.21875 329.701171875 m 0
 149.010742188 419.759765625 166.200195312 558.465820312 132.947265625 714.169921875 c 2
 127.814453125 738.201171875 l 1
 220.651367188 738.201171875 l 1
 234.201171875 689.732421875 276.3125 539.094726562 227.969726562 329.701171875 c 0
 213.666992188 267.74609375 171.0546875 110.015625 39.005859375 -69.392578125 c 2
 32.08203125 -78.798828125 l 1
 -60.9140625 -78.798828125 l 1
 -44.5361328125 -54.708984375 l 2
 10.1708984375 25.7607421875 89.892578125 163.690429688 128.21875 329.701171875 c 0
EndSplineSet
Substitution2: "'rtla' Right to Left Alternates lookup 0 subtable" parenleft
EndChar

StartChar: asterisk
Encoding: 42 42 12
Width: 352
GlyphClass: 2
Flags: MW
HStem: 389.55 301.15<220.113 232.286 150.587 301.812>
VStem: 144.227 81.6992
LayerCount: 2
Fore
SplineSet
232.286132812 389.549804688 m 1
 150.586914062 389.549804688 l 1
 170.278320312 474.840820312 l 1
 100.883789062 439.40234375 l 1
 77.005859375 505.934570312 l 1
 148.828125 542.5 l 1
 94.0322265625 578.970703125 l 1
 148.565429688 646.642578125 l 1
 201.73828125 611.109375 l 1
 220.11328125 690.700195312 l 1
 301.8125 690.700195312 l 1
 283.217773438 610.159179688 l 1
 352.935546875 645.763671875 l 1
 375.215820312 578.901367188 l 1
 303.903320312 542.594726562 l 1
 359.672851562 506.016601562 l 1
 305.008789062 439.40234375 l 1
 251.977539062 474.840820312 l 1
 232.286132812 389.549804688 l 1
EndSplineSet
EndChar

StartChar: plus
Encoding: 43 43 13
Width: 421
GlyphClass: 2
Flags: MW
HStem: 231.85 96.9004<32.999 141.729 10.6279 164.1 260.05 368.778 32.999 237.679>
VStem: 171.776 95.9502
LayerCount: 2
Fore
SplineSet
260.049804688 328.75 m 1
 391.149414062 328.75 l 1
 368.778320312 231.849609375 l 1
 237.678710938 231.849609375 l 1
 207.631835938 101.700195312 l 1
 111.681640625 101.700195312 l 1
 141.728515625 231.849609375 l 1
 10.6279296875 231.849609375 l 1
 32.9990234375 328.75 l 1
 164.099609375 328.75 l 1
 194.147460938 458.900390625 l 1
 290.09765625 458.900390625 l 1
 260.049804688 328.75 l 1
EndSplineSet
EndChar

StartChar: comma
Encoding: 44 44 14
Width: 163
GlyphClass: 2
Flags: MW
HStem: -153.322 276.872<-77.3457 85.375>
VStem: 41.626 98.7998
LayerCount: 2
Fore
SplineSet
-13.4248046875 123.549804688 m 1
 85.375 123.549804688 l 1
 41.2451171875 -67.5986328125 l 1
 -77.345703125 -153.322265625 l 1
 -13.4248046875 123.549804688 l 1
EndSplineSet
EndChar

StartChar: hyphen
Encoding: 45 45 15
Width: 378
GlyphClass: 2
Flags: MW
HStem: 300.25 95.9502<58.0713 331.37 35.9199 353.521>
VStem: 50.1758 295.45
LayerCount: 2
Fore
SplineSet
58.0712890625 396.200195312 m 1
 353.521484375 396.200195312 l 1
 331.370117188 300.25 l 1
 35.919921875 300.25 l 1
 58.0712890625 396.200195312 l 1
EndSplineSet
EndChar

StartChar: period
Encoding: 46 46 16
Width: 172
GlyphClass: 2
Flags: MW
HStem: 1 118.75<-14.3018 66.582 -41.7178 93.998>
VStem: 41.626 108.3
LayerCount: 2
Fore
SplineSet
-14.3017578125 119.75 m 1
 93.998046875 119.75 l 1
 66.58203125 1 l 1
 -41.7177734375 1 l 1
 -14.3017578125 119.75 l 1
EndSplineSet
EndChar

StartChar: slash
Encoding: 47 47 17
Width: 302
GlyphClass: 2
Flags: MW
HStem: -8.5 21G<-38.8604 57.6885 -38.8604 -38.8604> 670.7 20G<253.413 349.963 349.963 349.963>
VStem: 46.6768 227.399
LayerCount: 2
Fore
SplineSet
349.962890625 690.700195312 m 1
 57.6884765625 -8.5 l 1
 -38.8603515625 -8.5 l 1
 253.413085938 690.700195312 l 1
 349.962890625 690.700195312 l 1
EndSplineSet
EndChar

StartChar: zero
Encoding: 48 48 18
Width: 404
GlyphClass: 2
Flags: MW
HStem: -7.5498 95.9502<136.812 154.555> 603.298 95.9521<255.687 279.092>
VStem: 52.0762 103.55 266.777 103.549
LayerCount: 2
Fore
SplineSet
126.358398438 -7.5498046875 m 0
 50.5625 -7.5498046875 -25.111328125 27.6650390625 10.8427734375 183.400390625 c 2
 86.0712890625 509.25 l 2
 95.50390625 550.104492188 131.859375 699.25 289.536132812 699.25 c 0
 364.783203125 699.25 440.11328125 664.283203125 404.321289062 509.25 c 2
 329.092773438 183.400390625 l 2
 316.748046875 129.927734375 297.220703125 86.4775390625 268.471679688 53.8916015625 c 0
 231.939453125 12.482421875 182.751953125 -7.5498046875 126.358398438 -7.5498046875 c 0
227.956054688 193.848632812 m 2
 298.140625 497.848632812 l 2
 308.256835938 541.668945312 309.243164062 570.903320312 304.67578125 584.41015625 c 0
 300.665039062 596.272460938 290.799804688 603.297851562 267.384765625 603.297851562 c 0
 243.98828125 603.297851562 230.578125 596.254882812 220.744140625 584.21875 c 0
 209.749023438 570.763671875 197.100585938 541.645507812 186.989257812 497.848632812 c 2
 116.8046875 193.848632812 l 2
 106.693359375 150.05078125 105.897460938 120.93359375 110.678710938 107.479492188 c 0
 114.956054688 95.443359375 125.114257812 88.400390625 148.510742188 88.400390625 c 0
 171.92578125 88.400390625 185.034179688 95.4248046875 194.522460938 107.288085938 c 0
 205.326171875 120.794921875 217.83984375 150.029296875 227.956054688 193.848632812 c 2
EndSplineSet
EndChar

StartChar: one
Encoding: 49 49 19
Width: 282
GlyphClass: 2
Flags: MW
HStem: 1 21G<53.2822 151.133 53.2822 53.2822> 670.7 20G<223.711 310.363 310.363 310.363>
VStem: 136.626 97.8506
LayerCount: 2
Fore
SplineSet
67.36328125 481.708984375 m 1
 96.0390625 605.916992188 l 1
 223.7109375 690.700195312 l 1
 310.36328125 690.700195312 l 1
 151.1328125 1 l 1
 53.2822265625 1 l 1
 181.80859375 557.708984375 l 1
 67.36328125 481.708984375 l 1
EndSplineSet
Substitution2: "'sups' Superscript lookup 1 subtable" uni00B9
EndChar

StartChar: two
Encoding: 50 50 20
Width: 394
GlyphClass: 2
Flags: MW
HStem: 1 95.9502<112.306 278.433> 603.303 95.9492<260.322 269.251>
VStem: 47.3262 102.6 261.076 103.55
LayerCount: 2
Fore
SplineSet
258.834960938 603.302734375 m 0
 238.07421875 603.302734375 203.45703125 593.868164062 189.84375 534.90234375 c 2
 177.122070312 479.801757812 l 1
 74.5224609375 479.801757812 l 1
 88.779296875 541.551757812 l 2
 99.505859375 588.014648438 122.540039062 627.21484375 158.267578125 656.241210938 c 0
 194.061523438 685.321289062 236.806640625 699.251953125 283.836914062 699.251953125 c 0
 330.866210938 699.251953125 367.1796875 685.321289062 389.545898438 656.241210938 c 0
 411.829101562 627.26953125 416.89453125 588.3984375 406.297851562 542.500976562 c 2
 398.182617188 507.350585938 l 2
 386.916015625 458.548828125 367.345703125 417.90625 316.921875 354.450195312 c 2
 112.305664062 96.9501953125 l 1
 300.584960938 96.9501953125 l 1
 278.432617188 1 l 1
 -36.017578125 1 l 1
 -18.3125 77.6865234375 l 1
 240.779296875 403.8828125 l 2
 276.659179688 447.796875 288.006835938 478.647460938 294.633789062 507.352539062 c 2
 300.774414062 533.953125 l 2
 315.970703125 599.774414062 279.66796875 603.302734375 258.834960938 603.302734375 c 0
EndSplineSet
Substitution2: "'sups' Superscript lookup 1 subtable" uni00B2
EndChar

StartChar: three
Encoding: 51 51 21
Width: 406
GlyphClass: 2
Flags: MW
HStem: -7.5498 95.9492<122.385 147.857> 310.699 95.9502<170.685 193.183 148.532 215.335> 603.299 95.9492<263.012 274.14>
VStem: 47.3262 102.6 268.676 103.551
LayerCount: 2
Fore
SplineSet
317.064453125 362.153320312 m 1
 342.622070312 340.766601562 359.814453125 308.239257812 341.959960938 230.900390625 c 2
 325.94921875 161.549804688 l 2
 314.026367188 109.907226562 290.688476562 67.4599609375 254.431640625 37.1123046875 c 0
 218.064453125 6.6728515625 173.155273438 -7.5498046875 122.55859375 -7.5498046875 c 0
 73.4482421875 -7.5498046875 35.9931640625 5.357421875 13.68359375 33.4033203125 c 0
 -8.5625 61.37109375 -13.0693359375 100.3984375 -2.2412109375 147.298828125 c 2
 11.3564453125 206.19921875 l 1
 113.956054688 206.19921875 l 1
 101.673828125 152.999023438 l 2
 93.99609375 119.740234375 99.109375 88.3994140625 145.66015625 88.3994140625 c 0
 162.936523438 88.3994140625 205.973632812 90.4052734375 221.740234375 158.69921875 c 2
 238.627929688 231.848632812 l 2
 245.454101562 261.415039062 243.909179688 281.256835938 237.391601562 293.034179688 c 0
 231.461914062 303.749023438 218.643554688 310.69921875 193.182617188 310.69921875 c 2
 148.532226562 310.69921875 l 1
 170.684570312 406.649414062 l 1
 215.334960938 406.649414062 l 2
 240.264648438 406.649414062 255.525390625 413.374023438 265.506835938 423.290039062 c 0
 276.724609375 434.4375 286.921875 453.375976562 293.4609375 481.69921875 c 2
 305.3046875 532.999023438 l 2
 320.256835938 597.764648438 284.6953125 603.298828125 263.583984375 603.298828125 c 0
 249.114257812 603.298828125 207.165039062 601.700195312 192.620117188 538.69921875 c 2
 179.899414062 483.598632812 l 1
 77.2998046875 483.598632812 l 1
 90.240234375 539.649414062 l 2
 101.336914062 587.713867188 123.984375 627.702148438 159.231445312 656.634765625 c 0
 194.684570312 685.737304688 238.387695312 699.248046875 287.635742188 699.248046875 c 0
 336.25390625 699.248046875 373.280273438 685.891601562 395.049804688 657.108398438 c 0
 416.729492188 628.444335938 420.7421875 588.606445312 409.658203125 540.59765625 c 2
 396.717773438 484.547851562 l 2
 380.865234375 415.880859375 350.573242188 383.120117188 317.064453125 362.153320312 c 1
EndSplineSet
Substitution2: "'sups' Superscript lookup 1 subtable" uni00B3
EndChar

StartChar: four
Encoding: 52 52 22
Width: 416
GlyphClass: 2
Flags: MW
HStem: 1 21G<153.032 256.582 153.032 153.032> 133.05 95.9502<113.762 183.519 309.221 345.019 113.762 287.068> 670.7 20G<254.866 360.004 360.004 360.004>
VStem: 236.376 103.55
LayerCount: 2
Fore
SplineSet
309.220703125 229 m 1
 367.170898438 229 l 1
 345.018554688 133.049804688 l 1
 287.068359375 133.049804688 l 1
 256.58203125 1 l 1
 153.032226562 1 l 1
 183.518554688 133.049804688 l 1
 -15.9814453125 133.049804688 l 1
 2.8017578125 214.408203125 l 1
 254.866210938 690.700195312 l 1
 360.00390625 690.700195312 l 1
 113.76171875 229 l 1
 205.670898438 229 l 1
 245.368164062 400.950195312 l 1
 348.91796875 400.950195312 l 1
 309.220703125 229 l 1
EndSplineSet
EndChar

StartChar: five
Encoding: 53 53 23
Width: 399
GlyphClass: 2
Flags: MW
HStem: -7.5498 95.9502<131.978 154.378 131.978 199.766> 360.1 95.9502<188.831 276.324> 591.9 98.7998<211.554 412.954 211.554 211.554>
VStem: 52.0762 99.75 59.6768 98.7998 262.026 103.55
LayerCount: 2
Fore
SplineSet
122.55859375 -7.5498046875 m 0xec
 67.8984375 -7.5498046875 -28.724609375 12.0126953125 4.7021484375 156.799804688 c 2
 12.59765625 191 l 1
 112.34765625 191 l 1
 104.670898438 157.75 l 2xf4
 89.978515625 94.109375 120.1953125 88.400390625 143.760742188 88.400390625 c 0
 164.99609375 88.400390625 178.483398438 94.46875 188.557617188 104.526367188 c 0
 199.10546875 115.056640625 209.58984375 134.872070312 216.625976562 165.349609375 c 2
 243.822265625 283.150390625 l 2
 250.870117188 313.676757812 249.689453125 333.615234375 244.217773438 344.154296875 c 0
 239.088867188 354.034179688 228.692382812 360.099609375 207.4375 360.099609375 c 0
 170.223632812 360.099609375 152.393554688 336.684570312 134.77734375 313.549804688 c 1
 48.4912109375 313.549804688 l 1
 135.563476562 690.700195312 l 1
 435.763671875 690.700195312 l 1
 412.954101562 591.900390625 l 1
 211.553710938 591.900390625 l 1
 176.826171875 441.482421875 l 1
 191.877929688 448.491210938 213.4921875 456.049804688 242.888671875 456.049804688 c 0
 309.758789062 456.049804688 380.248046875 425.55078125 347.591796875 284.099609375 c 2
 320.833984375 168.200195312 l 2
 311.561523438 128.038085938 276.97265625 -7.5498046875 122.55859375 -7.5498046875 c 0xec
EndSplineSet
EndChar

StartChar: six
Encoding: 54 54 24
Width: 397
GlyphClass: 2
Flags: MW
HStem: -7.5498 95.9492<136.667 145.924> 331.599 95.001<194.271 277.842> 670.7 20G<277.146 383.46 383.46 383.46>
VStem: 47.3242 103.551 263.926 103.55
LayerCount: 2
Fore
SplineSet
234.188476562 426.599609375 m 0
 321.495117188 426.599609375 369.116210938 369.107421875 345.54296875 267 c 2
 320.759765625 159.650390625 l 2
 309.344726562 110.20703125 285.637695312 68.7490234375 248.943359375 38.056640625 c 0
 212.364257812 7.4609375 169.2890625 -7.5498046875 122.55859375 -7.5498046875 c 0
 74.654296875 -7.5498046875 37.9365234375 7.55859375 15.80859375 38.6806640625 c 0
 -6.26171875 69.72265625 -10.4921875 111.5703125 1.046875 161.548828125 c 2
 22.978515625 256.548828125 l 2
 34.701171875 307.32421875 48.375 339.234375 87.8173828125 399.96484375 c 2
 277.146484375 690.700195312 l 1
 383.459960938 690.700195312 l 1
 211.986328125 424.954101562 l 1
 219.3125 426.057617188 226.71875 426.599609375 234.188476562 426.599609375 c 0
144.708007812 88.3994140625 m 0
 175.942382812 88.3994140625 204.64453125 105.224609375 216.990234375 158.69921875 c 2
 240.676757812 261.298828125 l 2
 249.728515625 300.505859375 243.473632812 331.598632812 200.857421875 331.598632812 c 0
 187.685546875 331.598632812 143.600585938 330.491210938 128.50390625 265.098632812 c 2
 104.158203125 159.649414062 l 2
 88.1494140625 90.3076171875 128.625976562 88.3994140625 144.708007812 88.3994140625 c 0
EndSplineSet
EndChar

StartChar: seven
Encoding: 55 55 25
Width: 364
GlyphClass: 2
Flags: MW
HStem: 1 21G<-19.0869 85.9883 -19.0869 -19.0869> 594.75 95.9502<108.013 295.642 85.8604 426.263>
VStem: 32.126 318.25
LayerCount: 2
Fore
SplineSet
426.262695312 690.700195312 m 1
 407.48046875 609.34765625 l 1
 85.98828125 1 l 1
 -19.0869140625 1 l 1
 295.641601562 594.75 l 1
 85.8603515625 594.75 l 1
 108.012695312 690.700195312 l 1
 426.262695312 690.700195312 l 1
EndSplineSet
EndChar

StartChar: eight
Encoding: 56 56 26
Width: 404
GlyphClass: 2
Flags: MW
HStem: -7.5498 93.0986<135.443 159.487 135.443 174.624> 315.449 92.1514<211.095 212.841> 606.15 93.1006<265.869 292.187>
VStem: 52.0752 97.8516 272.477 97.8486
LayerCount: 2
Fore
SplineSet
125.409179688 -7.5498046875 m 0
 29.74609375 -7.5498046875 -18.9130859375 54.5166015625 6.236328125 163.452148438 c 2
 22.9052734375 235.65234375 l 2
 35.4970703125 290.192382812 62.78515625 333.829101562 104.489257812 362.341796875 c 1
 90.8740234375 377.0546875 67.69140625 413.180664062 82.8525390625 478.8515625 c 2
 96.8896484375 539.65234375 l 2
 107.607421875 586.076171875 130.475585938 625.446289062 165.844726562 655.060546875 c 0
 201.287109375 684.737304688 243.151367188 699.250976562 288.5859375 699.250976562 c 0
 334.58203125 699.250976562 370.091796875 684.794921875 391.873046875 655.060546875 c 0
 413.56640625 625.444335938 418.256835938 586.07421875 407.5390625 539.651367188 c 2
 393.502929688 478.850585938 l 2
 387.28125 451.904296875 369.014648438 398.081054688 318.337890625 362.071289062 c 1
 346.651367188 333.553710938 353.70703125 290.01953125 341.155273438 235.651367188 c 2
 324.486328125 163.451171875 l 2
 299.7109375 56.134765625 223.838867188 -7.5498046875 125.409179688 -7.5498046875 c 0
309.690429688 539.650390625 m 2
 315.55859375 565.068359375 317.280273438 606.150390625 267.092773438 606.150390625 c 0
 247.4609375 606.150390625 233.474609375 600.30078125 221.595703125 589.353515625 c 0
 209.188476562 577.916992188 199.918945312 562.081054688 194.740234375 539.650390625 c 2
 180.703125 478.849609375 l 2
 174.844726562 453.474609375 176.612304688 436.044921875 183.326171875 424.578125 c 0
 189.7421875 413.618164062 200.936523438 407.600585938 221.252929688 407.600585938 c 0
 243.029296875 407.600585938 257.286132812 413.911132812 268.248046875 424.754882812 c 0
 280.314453125 436.692382812 289.947265625 454.1328125 295.653320312 478.849609375 c 2
 309.690429688 539.650390625 l 2
146.90234375 85.548828125 m 0
 172.072265625 85.548828125 210.032226562 91.5234375 227.076171875 165.348632812 c 2
 243.525390625 236.598632812 l 2
 260.265625 309.107421875 225.703125 315.44921875 199.979492188 315.44921875 c 0
 177.061523438 315.44921875 162.094726562 308.66015625 150.508789062 296.735351562 c 0
 137.713867188 283.56640625 127.307617188 264.024414062 120.975585938 236.598632812 c 2
 104.526367188 165.348632812 l 2
 98.033203125 137.224609375 99.396484375 117.357421875 106.073242188 104.262695312 c 0
 112.15234375 92.337890625 123.984375 85.548828125 146.90234375 85.548828125 c 0
EndSplineSet
EndChar

StartChar: nine
Encoding: 57 57 27
Width: 397
GlyphClass: 2
Flags: MW
HStem: 1 21G<23.8027 130.196 23.8027 23.8027> 265.099 95<129.501 214.062> 603.299 95.9512<262.114 282.266>
VStem: 47.3252 103.552 263.926 103.551
LayerCount: 2
Fore
SplineSet
285.735351562 699.25 m 0
 383.633789062 699.25 430.323242188 634.220703125 406.296875 530.150390625 c 2
 384.364257812 435.150390625 l 2
 372.641601562 384.373046875 358.965820312 352.459960938 319.526367188 291.735351562 c 2
 130.196289062 1 l 1
 23.802734375 1 l 1
 196.255859375 266.853515625 l 1
 188.590820312 265.6796875 180.883789062 265.098632812 173.155273438 265.098632812 c 0
 85.84765625 265.098632812 38.2275390625 322.592773438 61.80078125 424.700195312 c 2
 86.583984375 532.049804688 l 2
 98.1298828125 582.059570312 121.8359375 623.735351562 158.59765625 654.19140625 c 0
 195.182617188 684.500976562 238.4921875 699.25 285.735351562 699.25 c 0
207.436523438 360.098632812 m 0
 220.688476562 360.098632812 263.680664062 360.938476562 278.83984375 426.598632812 c 2
 303.184570312 532.048828125 l 2
 314.153320312 579.55859375 300.948242188 603.298828125 263.583984375 603.298828125 c 0
 250.400390625 603.298828125 206.536132812 603.0859375 190.35546875 532.999023438 c 2
 166.66796875 430.399414062 l 2
 150.487304688 360.3125 194.252929688 360.098632812 207.436523438 360.098632812 c 0
EndSplineSet
EndChar

StartChar: colon
Encoding: 58 58 28
Width: 172
GlyphClass: 2
Flags: MW
HStem: 1 118.75<-14.3018 66.582 -41.7178 93.998> 322.1 118.75<59.8301 140.714 32.4141 168.13>
VStem: 41.626 108.3
LayerCount: 2
Fore
SplineSet
-14.3017578125 119.75 m 1
 93.998046875 119.75 l 1
 66.58203125 1 l 1
 -41.7177734375 1 l 1
 -14.3017578125 119.75 l 1
59.830078125 440.849609375 m 1
 168.129882812 440.849609375 l 1
 140.713867188 322.099609375 l 1
 32.4140625 322.099609375 l 1
 59.830078125 440.849609375 l 1
EndSplineSet
EndChar

StartChar: semicolon
Encoding: 59 59 29
Width: 172
GlyphClass: 2
Flags: MW
HStem: -153.322 21G<-69.7451 -69.7451> 322.1 118.75<59.8301 140.714 32.4141 168.13>
VStem: 41.626 108.3 49.2266 98.7998
LayerCount: 2
Fore
SplineSet
-5.82421875 123.549804688 m 1xd0
 92.9755859375 123.549804688 l 1
 48.845703125 -67.5986328125 l 1
 -69.7451171875 -153.322265625 l 1
 -5.82421875 123.549804688 l 1xd0
59.830078125 440.849609375 m 1xe0
 168.129882812 440.849609375 l 1
 140.713867188 322.099609375 l 1
 32.4140625 322.099609375 l 1
 59.830078125 440.849609375 l 1xe0
EndSplineSet
EndChar

StartChar: less
Encoding: 60 60 30
Width: 421
GlyphClass: 2
Flags: W
LayerCount: 2
Fore
SplineSet
12.140625 238.401367188 m 1
 31.4873046875 322.198242188 l 1
 423.341796875 468.189453125 l 1
 400.108398438 367.552734375 l 1
 163.508789062 280.299804688 l 1
 359.8203125 193.046875 l 1
 336.586914062 92.41015625 l 1
 12.140625 238.401367188 l 1
EndSplineSet
Substitution2: "'rtla' Right to Left Alternates lookup 0 subtable" greater
EndChar

StartChar: equal
Encoding: 61 61 31
Width: 421
GlyphClass: 2
Flags: MW
HStem: 142.55 96.9004<12.3828 348.162 -9.98828 370.533> 320.2 95.9502<53.1777 389.176 31.0254 411.328>
LayerCount: 2
Fore
SplineSet
53.177734375 416.150390625 m 1
 411.328125 416.150390625 l 1
 389.17578125 320.200195312 l 1
 31.025390625 320.200195312 l 1
 53.177734375 416.150390625 l 1
12.3828125 239.450195312 m 1
 370.533203125 239.450195312 l 1
 348.162109375 142.549804688 l 1
 -9.98828125 142.549804688 l 1
 12.3828125 239.450195312 l 1
EndSplineSet
EndChar

StartChar: greater
Encoding: 62 62 32
Width: 421
GlyphClass: 2
Flags: W
LayerCount: 2
Fore
SplineSet
41.9580078125 367.552734375 m 1
 65.19140625 468.189453125 l 1
 389.637695312 322.198242188 l 1
 370.291015625 238.401367188 l 1
 -21.5634765625 92.41015625 l 1
 1.669921875 193.046875 l 1
 238.268554688 280.299804688 l 1
 41.9580078125 367.552734375 l 1
EndSplineSet
Substitution2: "'rtla' Right to Left Alternates lookup 0 subtable" less
EndChar

StartChar: question
Encoding: 63 63 33
Width: 366
GlyphClass: 2
Flags: MW
HStem: 0.998047 126.351<80.5527 159.683 51.3828 188.853> 604.249 95.9512<238.836 255.1>
VStem: 31.1758 103.551 134.727 108.3 243.026 103.55
LayerCount: 2
Fore
SplineSet
281.846679688 530.149414062 m 0xe8
 298.33984375 601.586914062 264.446289062 604.249023438 245.75390625 604.249023438 c 0
 222.338867188 604.249023438 209.23046875 597.224609375 199.7421875 585.361328125 c 0
 188.690429688 571.543945312 176.831054688 544.374023438 167.625 504.5 c 2
 163.677734375 487.400390625 l 1
 60.126953125 487.400390625 l 1
 64.07421875 504.5 l 2
 76.7294921875 559.315429688 96.384765625 603.736328125 125.073242188 637.071289062 c 0
 161.5546875 679.458007812 210.715820312 700.200195312 266.956054688 700.200195312 c 0
 315.956054688 700.200195312 352.853515625 685.200195312 373.505859375 653.565429688 c 0
 393.837890625 622.421875 397.017578125 580.487304688 385.396484375 530.150390625 c 0
 374.546875 483.15234375 357.419921875 452.625976562 303.069335938 384.8828125 c 2
 254.12890625 325.750976562 l 2
 230.260742188 296.765625 222.701171875 282.1953125 214.587890625 247.049804688 c 2
 196.822265625 170.099609375 l 1
 93.2724609375 170.099609375 l 1
 112.134765625 251.799804688 l 2
 123.049804688 299.079101562 136.999023438 323.514648438 175.088867188 370.548828125 c 2
 230.475585938 437.209960938 l 2
 265.579101562 479.778320312 274.7109375 499.240234375 281.846679688 530.149414062 c 0xe8
80.552734375 127.348632812 m 1xd0
 188.852539062 127.348632812 l 1
 159.682617188 0.998046875 l 1
 51.3828125 0.998046875 l 1
 80.552734375 127.348632812 l 1xd0
EndSplineSet
EndChar

StartChar: at
Encoding: 64 64 34
Width: 721
GlyphClass: 2
Flags: MW
HStem: -120.6 92.1494<241.421 309.715 241.421 313.763> 54.2002 91.2002<492.765 498.186> 415.2 93.0996<369.444 388.141> 600.451 92.1484<386.554 458.17>
VStem: 50.1748 96.9014<362 362.001> 224.025 99.749 411.173 98.8037 590.727 95.9473
LayerCount: 2
Fore
SplineSet
256.059570312 -120.599609375 m 0
 66.0048828125 -120.599609375 -32.0732421875 5.7451171875 16.3984375 215.700195312 c 2
 50.1748046875 362 l 2
 95.7998046875 559.622070312 249.448242188 692.599609375 443.80078125 692.599609375 c 0
 633.608398438 692.599609375 732.924804688 562.334960938 688.647460938 370.549804688 c 2
 654.65234375 223.299804688 l 2
 642.583984375 171.025390625 621.928710938 128.888671875 590.186523438 98.88671875 c 0
 558.454101562 68.89453125 519.458984375 54.2001953125 476.913085938 54.2001953125 c 0
 450.8203125 54.2001953125 407.657226562 60.5205078125 386.016601562 98.8955078125 c 1
 357.104492188 68.625 322.547851562 54.2001953125 277.4140625 54.2001953125 c 0
 234.755859375 54.2001953125 156.153320312 68.0146484375 189.591796875 212.849609375 c 2
 221.83203125 352.5 l 2
 243.044921875 444.380859375 290.19921875 508.299804688 380.3515625 508.299804688 c 0
 404.983398438 508.299804688 425.44140625 502.125 440.725585938 489.99609375 c 1
 443.197265625 500.700195312 l 1
 541.998046875 500.700195312 l 1
 471.375 194.799804688 l 2
 467.013671875 175.907226562 468.866210938 164.168945312 473.818359375 156.948242188 c 0
 479.186523438 149.12109375 486.610351562 145.400390625 498.919921875 145.400390625 c 0
 515.602539062 145.400390625 524.970703125 150.403320312 532.755859375 159.5859375 c 0
 541.815429688 170.26953125 550.828125 189.1796875 557.169921875 216.651367188 c 2
 592.481445312 369.600585938 l 2
 609.284179688 442.380859375 601.873046875 497.85546875 572.15625 538.754882812 c 0
 542.547851562 579.506835938 493.813476562 600.451171875 422.52734375 600.451171875 c 0
 350.581054688 600.451171875 292.619140625 579.345703125 245.521484375 538.51171875 c 0
 198.236328125 497.515625 164.981445312 439.5546875 147.076171875 362.000976562 c 2
 113.51953125 216.651367188 l 2
 95.1591796875 137.122070312 101.326171875 77.4697265625 129.486328125 35.212890625 c 0
 157.502929688 -6.830078125 205.5078125 -28.4501953125 277.333984375 -28.4501953125 c 0
 342.095703125 -28.4501953125 390.7578125 -15.021484375 444.3515625 16.96875 c 2
 461.2421875 27.05078125 l 1
 492.512695312 -49.380859375 l 1
 442.53125 -78.787109375 371.465820312 -120.599609375 256.059570312 -120.599609375 c 0
377.177734375 214.75 m 2
 408.541015625 350.599609375 l 2
 414.245117188 375.307617188 413.453125 392.0625 409.069335938 401.784179688 c 0
 405.411132812 409.896484375 397.475585938 415.200195312 378.805664062 415.200195312 c 0
 360.08203125 415.200195312 350.356445312 409.911132812 343.701171875 402.237304688 c 0
 335.143554688 392.369140625 326.934570312 375.686523438 321.361328125 351.549804688 c 2
 289.559570312 213.799804688 l 2
 283.685546875 188.35546875 284.215820312 170.905273438 288.38671875 160.8203125 c 0
 291.849609375 152.44921875 299.1953125 147.299804688 316.958007812 147.299804688 c 0
 336.100585938 147.299804688 346.302734375 152.827148438 353.64453125 161.486328125 c 0
 362.965820312 172.479492188 371.469726562 190.025390625 377.177734375 214.75 c 2
EndSplineSet
EndChar

StartChar: A
Encoding: 65 65 35
Width: 460
GlyphClass: 2
Flags: MW
HStem: 1 21G<-77.4033 -77.4033 -77.4033 30.5371 279.328 279.328 279.328 388.219> 168.2 94.0498<156.386 274.107 156.386 276.129 110.938 274.107> 670.7 20G<269.745 359.53 359.53 359.53>
LayerCount: 2
Fore
SplineSet
-77.4033203125 1 m 1
 269.745117188 690.700195312 l 1
 359.530273438 690.700195312 l 1
 388.21875 1 l 1
 279.328125 1 l 1
 276.12890625 168.200195312 l 1
 110.938476562 168.200195312 l 1
 30.537109375 1 l 1
 -77.4033203125 1 l 1
156.385742188 262.25 m 1
 274.107421875 262.25 l 1
 269.763671875 498.38671875 l 1
 156.385742188 262.25 l 1
EndSplineSet
EndChar

StartChar: B
Encoding: 66 66 36
Width: 469
GlyphClass: 2
Flags: MW
HStem: 1.00098 95.9502<102.035 161.583> 309.751 95.9502<173.315 227.164 151.164 248.365> 594.751 95.9502<216.961 292.961 216.961 216.961>
VStem: 59.6758 103.551 330.426 103.551
LayerCount: 2
Fore
SplineSet
363.125 359.661132812 m 1
 414.564453125 323.563476562 408.731445312 252.650390625 396.252929688 198.599609375 c 0
 368.6875 79.203125 298.407226562 1.0009765625 161.583007812 1.0009765625 c 2
 -23.6669921875 1.0009765625 l 1
 135.5625 690.701171875 l 1
 319.86328125 690.701171875 l 2
 411.725585938 690.701171875 495.768554688 658.456054688 459.786132812 502.599609375 c 0
 448.858398438 455.264648438 424.427734375 396.043945312 363.125 359.661132812 c 1
248.365234375 405.701171875 m 2
 295.41015625 405.701171875 337.90625 423.203125 355.359375 498.80078125 c 0
 364.279296875 537.439453125 361.74609375 561.66015625 353.079101562 574.104492188 c 0
 344.3671875 586.615234375 325.8984375 594.750976562 292.9609375 594.750976562 c 2
 216.9609375 594.750976562 l 1
 173.315429688 405.701171875 l 1
 248.365234375 405.701171875 l 2
293.798828125 203.350585938 m 0
 314.84375 294.506835938 271.711914062 309.750976562 227.1640625 309.750976562 c 2
 151.1640625 309.750976562 l 1
 102.03515625 96.951171875 l 1
 178.03515625 96.951171875 l 2
 213.228515625 96.951171875 237.05078125 106.216796875 253.224609375 121.268554688 c 0
 270.107421875 136.977539062 284.633789062 163.651367188 293.798828125 203.350585938 c 0
EndSplineSet
EndChar

StartChar: C
Encoding: 67 67 37
Width: 476
GlyphClass: 2
Flags: MW
HStem: -6.59961 96.8994<166.002 191.07> 602.35 96.9004<296.913 318.457>
VStem: 52.0762 103.551 338.027 101.649
LayerCount: 2
Fore
SplineSet
186 90.2998046875 m 0
 238.337890625 90.2998046875 281.952148438 119.110351562 300.7421875 200.5 c 2
 306.6640625 226.150390625 l 1
 408.313476562 226.150390625 l 1
 402.171875 199.549804688 l 2
 386.91796875 133.475585938 357.868164062 80.90625 312.907226562 45.255859375 c 0
 269.10546875 10.525390625 218.51171875 -6.599609375 163.62890625 -6.599609375 c 0
 106.178710938 -6.599609375 61.9833984375 11.5244140625 34.015625 48.34375 c 0
 5.5068359375 85.8740234375 0.9365234375 140.490234375 16.7646484375 209.049804688 c 2
 79.9306640625 482.650390625 l 2
 95.888671875 551.772460938 125.51953125 606.66796875 171.057617188 644.24609375 c 0
 215.743164062 681.122070312 268.189453125 699.25 325.63671875 699.25 c 0
 381.145507812 699.25 424.395507812 681.9765625 452.716796875 646.975585938 c 0
 481.807617188 611.021484375 486.813476562 557.938476562 471.405273438 491.200195312 c 2
 465.483398438 465.549804688 l 1
 361.93359375 465.549804688 l 1
 367.416992188 489.299804688 l 2
 377.296875 532.096679688 374.3671875 560.268554688 363.114257812 576.5 c 0
 351.25390625 593.604492188 332.698242188 602.349609375 304.215820312 602.349609375 c 0
 253.99609375 602.349609375 206.168945312 580.919921875 181.946289062 476 c 2
 120.096679688 208.099609375 l 2
 95.708984375 102.465820312 146.004882812 90.2998046875 186 90.2998046875 c 0
EndSplineSet
EndChar

StartChar: D
Encoding: 68 68 38
Width: 475
GlyphClass: 2
Flags: MW
HStem: 1 95.9502<102.035 163.482> 594.75 95.9502<216.961 300.561 216.961 216.961>
VStem: 59.6758 103.551 337.076 103.55
LayerCount: 2
Fore
SplineSet
135.5625 690.700195312 m 1
 322.712890625 690.700195312 l 2
 379.537109375 690.700195312 423.170898438 672.72265625 450.580078125 636.169921875 c 0
 478.549804688 598.87109375 482.674804688 544.1328125 466.725585938 475.049804688 c 2
 407.069335938 216.650390625 l 2
 391.254882812 148.15234375 361.860351562 93.6171875 316.709960938 56.0634765625 c 0
 272.358398438 19.1748046875 220.348632812 1 163.482421875 1 c 2
 -23.66796875 1 l 1
 135.5625 690.700195312 l 1
361.640625 468.400390625 m 2
 387.901367188 582.146484375 336.82421875 594.75 300.560546875 594.75 c 2
 216.9609375 594.75 l 1
 102.03515625 96.9501953125 l 1
 185.634765625 96.9501953125 l 2
 218.099609375 96.9501953125 278.274414062 107.299804688 303.299804688 215.700195312 c 2
 361.640625 468.400390625 l 2
EndSplineSet
EndChar

StartChar: E
Encoding: 69 69 39
Width: 404
GlyphClass: 2
Flags: MW
HStem: 1 95.9502<101.085 302.183> 303.1 96.9004<171.05 340.577 148.678 362.949> 594.75 95.9502<216.011 439.261 216.011 216.011>
VStem: 59.6758 102.601
LayerCount: 2
Fore
SplineSet
101.084960938 96.9501953125 m 1
 324.334960938 96.9501953125 l 1
 302.182617188 1 l 1
 -23.66796875 1 l 1
 135.5625 690.700195312 l 1
 461.413085938 690.700195312 l 1
 439.260742188 594.75 l 1
 216.010742188 594.75 l 1
 171.049804688 400 l 1
 362.94921875 400 l 1
 340.577148438 303.099609375 l 1
 148.677734375 303.099609375 l 1
 101.084960938 96.9501953125 l 1
EndSplineSet
EndChar

StartChar: F
Encoding: 70 70 40
Width: 398
GlyphClass: 2
Flags: MW
HStem: 1 21G<-23.668 79.8828 -23.668 -23.668> 300.25 96.9004<148.971 363.241 171.342 340.87> 594.75 95.9502<216.961 439.261 216.961 216.961>
VStem: 59.6758 103.551
LayerCount: 2
Fore
SplineSet
148.970703125 300.25 m 1
 79.8828125 1 l 1
 -23.66796875 1 l 1
 135.5625 690.700195312 l 1
 461.413085938 690.700195312 l 1
 439.260742188 594.75 l 1
 216.9609375 594.75 l 1
 171.341796875 397.150390625 l 1
 363.241210938 397.150390625 l 1
 340.870117188 300.25 l 1
 148.970703125 300.25 l 1
EndSplineSet
EndChar

StartChar: G
Encoding: 71 71 41
Width: 476
GlyphClass: 2
Flags: MW
HStem: -6.59961 96.8994<165.566 191.091> 279.35 92.1504<231.92 318.945 210.646 443.77> 602.35 96.9004<296.914 317.906>
VStem: 52.0771 103.549 338.026 103.55
LayerCount: 2
Fore
SplineSet
185.049804688 90.2998046875 m 0
 229.387695312 90.2998046875 279.5703125 108.798828125 301.837890625 205.25 c 2
 318.9453125 279.349609375 l 1
 210.645507812 279.349609375 l 1
 231.919921875 371.5 l 1
 443.76953125 371.5 l 1
 406.045898438 208.099609375 l 2
 390.234375 139.612304688 360.872070312 85.1923828125 315.724609375 47.9296875 c 0
 271.436523438 11.3779296875 219.502929688 -6.599609375 162.678710938 -6.599609375 c 0
 105.231445312 -6.599609375 61.1552734375 11.52734375 33.49609375 48.4033203125 c 0
 5.3359375 85.9453125 0.9443359375 140.521484375 16.765625 209.049804688 c 2
 79.931640625 482.650390625 l 2
 95.8896484375 551.772460938 125.520507812 606.66796875 171.05859375 644.24609375 c 0
 215.744140625 681.122070312 268.190429688 699.25 325.637695312 699.25 c 0
 381.6796875 699.25 425.16015625 682.211914062 453.298828125 647.453125 c 0
 481.889648438 612.134765625 487.776367188 562.11328125 473.59765625 500.700195312 c 2
 467.017578125 472.200195312 l 1
 363.467773438 472.200195312 l 1
 370.047851562 500.700195312 l 2
 378.172851562 535.892578125 374.97265625 560.368164062 363.290039062 576.87890625 c 0
 351.444335938 593.620117188 332.545898438 602.349609375 303.265625 602.349609375 c 0
 268.180664062 602.349609375 209.006835938 593.216796875 181.9453125 476 c 2
 120.095703125 208.099609375 l 2
 95.580078125 101.913085938 146.08203125 90.2998046875 185.049804688 90.2998046875 c 0
EndSplineSet
EndChar

StartChar: H
Encoding: 72 72 42
Width: 476
GlyphClass: 2
Flags: MW
HStem: 1 21G<-23.668 79.8828 -23.668 -23.668 247.082 350.633 247.082 247.082> 304.05 95.9502<172 317.047 149.848 339.199> 670.7 20G<135.562 239.113 239.113 239.113 406.312 509.863 509.863 509.863>
VStem: 59.6758 103.551 330.426 103.551
LayerCount: 2
Fore
SplineSet
509.86328125 690.700195312 m 1
 350.6328125 1 l 1
 247.08203125 1 l 1
 317.046875 304.049804688 l 1
 149.84765625 304.049804688 l 1
 79.8828125 1 l 1
 -23.66796875 1 l 1
 135.5625 690.700195312 l 1
 239.11328125 690.700195312 l 1
 172 400 l 1
 339.19921875 400 l 1
 406.3125 690.700195312 l 1
 509.86328125 690.700195312 l 1
EndSplineSet
EndChar

StartChar: I
Encoding: 73 73 43
Width: 214
GlyphClass: 2
Flags: MW
HStem: 1 21G<-17.9678 84.6328 -17.9678 -17.9678> 670.7 20G<141.263 243.863 243.863 243.863>
VStem: 65.376 102.601
LayerCount: 2
Fore
SplineSet
141.262695312 690.700195312 m 1
 243.86328125 690.700195312 l 1
 84.6328125 1 l 1
 -17.9677734375 1 l 1
 141.262695312 690.700195312 l 1
EndSplineSet
EndChar

StartChar: J
Encoding: 74 74 44
Width: 271
GlyphClass: 2
Flags: MW
HStem: 1 95.9502<-35.7148 -7.51758 -57.8672 8.93555> 670.7 20G<196.363 299.914 299.914 299.914>
VStem: 120.477 103.551
LayerCount: 2
Fore
SplineSet
8.935546875 96.9501953125 m 2
 29.73046875 96.9501953125 60.51953125 102.296875 72.8828125 155.849609375 c 2
 196.36328125 690.700195312 l 1
 299.9140625 690.700195312 l 1
 174.6796875 148.25 l 2
 164.208007812 102.895507812 143.403320312 65.458984375 110.673828125 39.1748046875 c 0
 78.0380859375 12.96484375 37.7978515625 1 -7.517578125 1 c 2
 -57.8671875 1 l 1
 -35.71484375 96.9501953125 l 1
 8.935546875 96.9501953125 l 2
EndSplineSet
EndChar

StartChar: K
Encoding: 75 75 45
Width: 460
GlyphClass: 2
Flags: MW
HStem: 1 21G<-23.668 79.8828 -23.668 -23.668 281.721 395.483 281.721 281.721> 670.7 20G<135.562 239.113 239.113 239.113 422.074 535.075 535.075 535.075>
VStem: 59.6758 103.551
LayerCount: 2
Fore
SplineSet
281.720703125 1 m 1
 213.43359375 299.4140625 l 1
 123.333007812 189.204101562 l 1
 79.8828125 1 l 1
 -23.66796875 1 l 1
 135.5625 690.700195312 l 1
 239.11328125 690.700195312 l 1
 165.71875 372.793945312 l 1
 422.07421875 690.700195312 l 1
 535.075195312 690.700195312 l 1
 300.9140625 405.69921875 l 1
 395.483398438 1 l 1
 281.720703125 1 l 1
EndSplineSet
EndChar

StartChar: L
Encoding: 76 76 46
Width: 393
GlyphClass: 2
Flags: MW
HStem: 1 95.9502<102.035 302.183> 670.7 20G<135.562 239.113 239.113 239.113>
VStem: 59.6758 103.551
LayerCount: 2
Fore
SplineSet
135.5625 690.700195312 m 1
 239.11328125 690.700195312 l 1
 102.03515625 96.9501953125 l 1
 324.334960938 96.9501953125 l 1
 302.182617188 1 l 1
 -23.66796875 1 l 1
 135.5625 690.700195312 l 1
EndSplineSet
EndChar

StartChar: M
Encoding: 77 77 47
Width: 591
GlyphClass: 2
Flags: MW
HStem: 1 21G<-23.668 79.8828 -23.668 -23.668 361.082 464.633 361.082 361.082> 670.7 20G<135.562 233.68 233.68 233.68 525.695 623.863 623.863 623.863>
VStem: 59.6758 103.551 444.426 103.551
LayerCount: 2
Fore
SplineSet
623.86328125 690.700195312 m 1
 464.6328125 1 l 1
 361.08203125 1 l 1
 459.965820312 429.310546875 l 1
 290.131835938 153 l 1
 278.375 153 l 1
 232.775390625 153 l 1
 221.052734375 153 l 1
 178.26953125 427.159179688 l 1
 79.8828125 1 l 1
 -23.66796875 1 l 1
 135.5625 690.700195312 l 1
 233.6796875 690.700195312 l 1
 294.060546875 316.004882812 l 1
 525.6953125 690.700195312 l 1
 623.86328125 690.700195312 l 1
EndSplineSet
EndChar

StartChar: N
Encoding: 78 78 48
Width: 499
GlyphClass: 2
Flags: MW
HStem: 1 21G<-23.668 79.8828 -23.668 -23.668 275.876 373.433 275.876 275.876> 670.7 20G<135.562 233.128 233.128 233.128 429.113 532.663 532.663 532.663>
VStem: 59.6758 103.551 353.227 103.55
LayerCount: 2
Fore
SplineSet
532.663085938 690.700195312 m 1
 373.432617188 1 l 1
 275.875976562 1 l 1
 181.500976562 441.154296875 l 1
 79.8828125 1 l 1
 -23.66796875 1 l 1
 135.5625 690.700195312 l 1
 233.127929688 690.700195312 l 1
 327.307617188 249.734375 l 1
 429.11328125 690.700195312 l 1
 532.663085938 690.700195312 l 1
EndSplineSet
EndChar

StartChar: O
Encoding: 79 79 49
Width: 476
GlyphClass: 2
Flags: MW
HStem: -6.59961 96.9004<165.566 190.163> 602.351 96.9004<295.985 321.397>
VStem: 52.0762 103.55 338.026 103.55
LayerCount: 2
Fore
SplineSet
16.7646484375 209.05078125 m 2
 79.9306640625 482.651367188 l 2
 96.0166015625 552.328125 125.454101562 607.38671875 170.690429688 644.720703125 c 0
 215.032226562 681.317382812 267.284179688 699.250976562 324.686523438 699.250976562 c 0
 382.088867188 699.250976562 426.061523438 681.317382812 453.504882812 644.720703125 c 0
 481.500976562 607.385742188 485.516601562 552.327148438 469.430664062 482.650390625 c 2
 406.264648438 209.049804688 l 2
 390.443359375 140.521484375 360.850585938 85.9453125 315.357421875 48.4033203125 c 0
 270.724609375 11.572265625 218.59765625 -6.599609375 161.728515625 -6.599609375 c 0
 104.28515625 -6.599609375 60.3271484375 11.5302734375 32.9755859375 48.4638671875 c 0
 5.1650390625 86.017578125 0.951171875 140.553710938 16.7646484375 209.05078125 c 2
185.049804688 90.30078125 m 0
 223.515625 90.30078125 278.795898438 105.444335938 302.49609375 208.100585938 c 2
 364.345703125 476.000976562 l 2
 390.60546875 589.747070312 339.529296875 602.350585938 303.265625 602.350585938 c 0
 259.063476562 602.350585938 207.42578125 586.370117188 181.9453125 476.000976562 c 2
 120.095703125 208.100585938 l 2
 95.580078125 101.9140625 146.08203125 90.30078125 185.049804688 90.30078125 c 0
EndSplineSet
EndChar

StartChar: P
Encoding: 80 80 50
Width: 440
GlyphClass: 2
Flags: MW
HStem: 1 21G<-23.667 79.8828 -23.667 -23.667> 278.4 95.9502<166.078 227.526 143.926 245.879> 594.751 95.9492<216.961 296.762 216.961 216.961>
VStem: 59.6768 103.55 329.477 102.601
LayerCount: 2
Fore
SplineSet
322.713867188 690.700195312 m 2
 407.827148438 690.700195312 500.635742188 658.958984375 459.931640625 482.650390625 c 0
 447.377929688 428.274414062 405.274414062 278.400390625 227.526367188 278.400390625 c 2
 143.92578125 278.400390625 l 1
 79.8828125 1 l 1
 -23.6669921875 1 l 1
 135.563476562 690.700195312 l 1
 322.713867188 690.700195312 l 2
357.331054688 482.651367188 m 0
 367.447265625 526.46875 365.55859375 555.180664062 356.375 570.5546875 c 0
 347.271484375 585.796875 329.096679688 594.750976562 296.76171875 594.750976562 c 2
 216.9609375 594.750976562 l 1
 166.078125 374.350585938 l 1
 245.87890625 374.350585938 l 2
 278.344726562 374.350585938 300.728515625 383.124023438 316.665039062 397.802734375 c 0
 332.662109375 412.537109375 347.518554688 440.1484375 357.331054688 482.651367188 c 0
EndSplineSet
EndChar

StartChar: Q
Encoding: 81 81 51
Width: 476
GlyphClass: 2
Flags: MW
HStem: -6.59863 96.8994<165.566 166.063> 602.351 96.9004<295.985 321.397>
VStem: 52.0762 103.55 338.026 103.55
LayerCount: 2
Fore
SplineSet
406.264648438 209.049804688 m 2
 391.602539062 145.541015625 358.573242188 69.8486328125 284.780273438 26.373046875 c 1
 308.834960938 -104.395507812 l 1
 211.850585938 -139.91015625 l 1
 187.334960938 -5.3408203125 l 1
 178.932617188 -6.1826171875 170.397460938 -6.5986328125 161.728515625 -6.5986328125 c 0
 104.28515625 -6.5986328125 60.3271484375 11.53125 32.9755859375 48.46484375 c 0
 5.1650390625 86.017578125 0.951171875 140.553710938 16.7646484375 209.05078125 c 2
 79.9306640625 482.651367188 l 2
 96.0166015625 552.328125 125.454101562 607.38671875 170.690429688 644.720703125 c 0
 215.032226562 681.317382812 267.284179688 699.250976562 324.686523438 699.250976562 c 0
 382.088867188 699.250976562 426.061523438 681.317382812 453.504882812 644.720703125 c 0
 481.500976562 607.385742188 485.516601562 552.327148438 469.430664062 482.650390625 c 2
 406.264648438 209.049804688 l 2
185.049804688 90.30078125 m 0
 223.515625 90.30078125 278.795898438 105.444335938 302.49609375 208.100585938 c 2
 364.345703125 476.000976562 l 2
 390.60546875 589.747070312 339.529296875 602.350585938 303.265625 602.350585938 c 0
 259.063476562 602.350585938 207.42578125 586.370117188 181.9453125 476.000976562 c 2
 120.095703125 208.100585938 l 2
 95.580078125 101.9140625 146.08203125 90.30078125 185.049804688 90.30078125 c 0
EndSplineSet
EndChar

StartChar: R
Encoding: 82 82 52
Width: 465
GlyphClass: 2
Flags: MW
HStem: 1 21G<-23.6689 79.8818 -23.6689 -23.6689 264.706 375.653 264.706 264.706> 287.9 94.999<168.051 222.643 146.118 253.553> 594.75 95.9502<216.96 216.96 216.96 302.46>
VStem: 59.6748 103.551 328.526 103.55
LayerCount: 2
Fore
SplineSet
461.24609375 488.349609375 m 0
 449.506835938 437.5 419.791015625 344.57421875 327.213867188 305.834960938 c 1
 375.653320312 1 l 1
 264.706054688 1 l 1
 222.642578125 287.900390625 l 1
 146.118164062 287.900390625 l 1
 79.8818359375 1 l 1
 -23.6689453125 1 l 1
 135.561523438 690.700195312 l 1
 325.561523438 690.700195312 l 2
 443.377929688 690.700195312 494.110351562 630.700195312 461.24609375 488.349609375 c 0
216.959960938 594.75 m 1
 168.05078125 382.899414062 l 1
 253.552734375 382.899414062 l 2
 283.689453125 382.899414062 304.021484375 391.674804688 319.06640625 406.953125 c 0
 335.021484375 423.15625 348.80078125 449.818359375 357.696289062 488.349609375 c 0
 366.767578125 527.640625 365.635742188 554.806640625 357.680664062 570.970703125 c 0
 350.389648438 585.782226562 334.103515625 594.75 302.459960938 594.75 c 2
 216.959960938 594.75 l 1
EndSplineSet
EndChar

StartChar: S
Encoding: 83 83 53
Width: 427
GlyphClass: 2
Flags: MW
HStem: -5.65039 95.9502<114.233 161.285> 604.251 95.9502<270.279 290.833>
VStem: 27.3779 100.93 34.0234 103.552 303.824 103.551
LayerCount: 2
Fore
SplineSet
275.203125 604.250976562 m 0xd8
 250.37890625 604.250976562 192.66015625 600.600585938 172.228515625 512.100585938 c 0xd8
 165.678710938 483.729492188 167.817382812 463.716796875 176.204101562 449.932617188 c 0
 184.858398438 435.708007812 204.34765625 420.78125 235.9609375 407.38671875 c 2
 271.415039062 392.180664062 l 2
 312.9375 374.319335938 343.146484375 350.322265625 360.586914062 319.432617188 c 0
 378.607421875 287.514648438 380.2265625 244.40625 368.116210938 191.950195312 c 0
 354.149414062 131.453125 327.013671875 82.1005859375 285.233398438 46.705078125 c 0
 243.233398438 11.1220703125 191.022460938 -5.650390625 131.546875 -5.650390625 c 0
 88.7109375 -5.650390625 -51.9677734375 0.5654296875 -10.6484375 197.288085938 c 2
 -6.98046875 214.75 l 1
 94.3125 214.75 l 1xe8
 83.3623046875 156.509765625 71.9189453125 90.2998046875 156.547851562 90.2998046875 c 0
 203.944335938 90.2998046875 245.364257812 108.78125 264.345703125 191 c 0
 271.868164062 223.581054688 269.813476562 245.508789062 261.685546875 258.8671875 c 0
 253.080078125 273.012695312 232.538085938 288.983398438 198.665039062 304.317382812 c 0
 198.544921875 304.37109375 164.2109375 319.500976562 164.2109375 319.500976562 c 2
 123.422851562 337.331054688 93.767578125 360.600585938 76.6376953125 390.203125 c 0
 59.02734375 420.635742188 56.798828125 460.65234375 67.7998046875 508.30078125 c 0
 80.8310546875 564.748046875 107.95703125 611.99609375 149.734375 647.374023438 c 0
 191.75 682.953125 242.254882812 700.201171875 298.303710938 700.201171875 c 0
 351.731445312 700.201171875 392.655273438 684.154296875 417.837890625 650.94921875 c 0
 454.901367188 602.077148438 442.153320312 534.213867188 433.716796875 489.30078125 c 1
 334.174804688 489.30078125 l 1
 339.5390625 520.301757812 344.944335938 551.545898438 333.052734375 575.905273438 c 0
 324.009765625 594.431640625 306.463867188 604.250976562 275.203125 604.250976562 c 0xd8
EndSplineSet
EndChar

StartChar: T
Encoding: 84 84 54
Width: 371
GlyphClass: 2
Flags: MW
HStem: 1 21G<59.9326 162.532 59.9326 59.9326> 594.75 95.9502<84.2627 197.011 62.1104 456.663 299.61 299.61 299.61 434.511>
VStem: 143.276 102.6
LayerCount: 2
Fore
SplineSet
197.010742188 594.75 m 1
 62.1103515625 594.75 l 1
 84.2626953125 690.700195312 l 1
 456.663085938 690.700195312 l 1
 434.510742188 594.75 l 1
 299.610351562 594.75 l 1
 162.532226562 1 l 1
 59.9326171875 1 l 1
 197.010742188 594.75 l 1
EndSplineSet
EndChar

StartChar: U
Encoding: 85 85 55
Width: 478
GlyphClass: 2
Flags: MW
HStem: -6.59961 96.8994<144.352 189.872> 670.7 20G<135.562 239.112 239.112 239.112 408.212 511.762 511.762 511.762>
VStem: 59.6748 103.551 332.325 103.55
LayerCount: 2
Fore
SplineSet
162.678710938 -6.599609375 m 0
 52.8251953125 -6.599609375 -7.3564453125 71.6552734375 18.8798828125 185.299804688 c 2
 135.561523438 690.700195312 l 1
 239.112304688 690.700195312 l 1
 123.30859375 189.099609375 l 2
 117.700195312 164.809570312 103.655273438 90.2998046875 185.048828125 90.2998046875 c 0
 217.028320312 90.2998046875 272.609375 103.341796875 292.408203125 189.099609375 c 2
 408.211914062 690.700195312 l 1
 511.76171875 690.700195312 l 1
 395.080078125 185.299804688 l 2
 382.134765625 129.223632812 353.997070312 82.0126953125 310.573242188 46.4462890625 c 0
 267.260742188 10.9716796875 217.064453125 -6.599609375 162.678710938 -6.599609375 c 0
EndSplineSet
EndChar

StartChar: V
Encoding: 86 86 56
Width: 424
GlyphClass: 2
Flags: MW
HStem: 1 21G<91.1426 184.541 91.1426 91.1426> 670.7 20G<82.4463 192.103 192.103 192.103 401.05 510.698 510.698 510.698>
LayerCount: 2
Fore
SplineSet
82.4462890625 690.700195312 m 1
 192.102539062 690.700195312 l 1
 185.40625 207.353515625 l 1
 401.049804688 690.700195312 l 1
 510.698242188 690.700195312 l 1
 184.541015625 1 l 1
 91.142578125 1 l 1
 82.4462890625 690.700195312 l 1
EndSplineSet
EndChar

StartChar: W
Encoding: 87 87 57
Width: 646
GlyphClass: 2
Flags: MW
HStem: 1 21G<60.1211 162.576 60.1211 60.1211 334.463 436.934 334.463 334.463> 670.7 20G<83.4111 190.819 190.819 190.819 349.083 469.218 469.218 469.218 626.508 730.105 730.105 730.105>
LayerCount: 2
Fore
SplineSet
334.462890625 1 m 1
 357.5703125 475.115234375 l 1
 162.576171875 1 l 1
 60.12109375 1 l 1
 83.4111328125 690.700195312 l 1
 190.819335938 690.700195312 l 1
 163.58203125 224.74609375 l 1
 349.083007812 690.700195312 l 1
 469.217773438 690.700195312 l 1
 440.40625 225.251953125 l 1
 626.5078125 690.700195312 l 1
 730.10546875 690.700195312 l 1
 436.93359375 1 l 1
 334.462890625 1 l 1
EndSplineSet
EndChar

StartChar: X
Encoding: 88 88 58
Width: 416
GlyphClass: 2
Flags: MW
HStem: 1 21G<-81.1914 -81.1914 -81.1914 34.3652 232.712 232.712 232.712 349.294> 670.7 20G<90.5039 205.985 205.985 205.985 380.458 496.125 496.125 496.125>
LayerCount: 2
Fore
SplineSet
-81.19140625 1 m 1
 157.94921875 358.237304688 l 1
 90.50390625 690.700195312 l 1
 205.985351562 690.700195312 l 1
 243.903320312 473.448242188 l 1
 380.458007812 690.700195312 l 1
 496.125 690.700195312 l 1
 274.350585938 359.166015625 l 1
 349.293945312 1 l 1
 232.711914062 1 l 1
 190.172851562 244.463867188 l 1
 34.365234375 1 l 1
 -81.19140625 1 l 1
EndSplineSet
EndChar

StartChar: Y
Encoding: 89 89 59
Width: 394
GlyphClass: 2
Flags: MW
HStem: 1 21G<71.332 173.933 71.332 71.332> 670.7 20G<79.541 192.479 192.479 192.479 371.246 484.185 484.185 484.185>
VStem: 154.676 102.601
LayerCount: 2
Fore
SplineSet
484.184570312 690.700195312 m 1
 240.109375 287.642578125 l 1
 173.932617188 1 l 1
 71.33203125 1 l 1
 137.508789062 287.642578125 l 1
 79.541015625 690.700195312 l 1
 192.479492188 690.700195312 l 1
 220.919921875 426.727539062 l 1
 371.24609375 690.700195312 l 1
 484.184570312 690.700195312 l 1
EndSplineSet
EndChar

StartChar: Z
Encoding: 90 90 60
Width: 387
GlyphClass: 2
Flags: MW
HStem: 1 95.9502<80.8975 293.633> 594.75 95.9502<117.513 312.24 95.3604 446.213>
LayerCount: 2
Fore
SplineSet
315.78515625 96.9501953125 m 1
 293.6328125 1 l 1
 -52.16796875 1 l 1
 -33.1240234375 83.486328125 l 1
 312.240234375 594.75 l 1
 95.3603515625 594.75 l 1
 117.512695312 690.700195312 l 1
 446.212890625 690.700195312 l 1
 427.166015625 608.201171875 l 1
 80.8974609375 96.9501953125 l 1
 315.78515625 96.9501953125 l 1
EndSplineSet
EndChar

StartChar: bracketleft
Encoding: 91 91 61
Width: 262
GlyphClass: 2
Flags: MW
HStem: -78.7998 95.9502<79.8105 127.96> 642.25 95.9502<224.127 294.428 224.127 224.127>
VStem: 59.6758 99.75 59.6758 170.051
LayerCount: 2
Fore
SplineSet
146.528320312 738.200195312 m 1xd0
 316.579101562 738.200195312 l 1
 294.427734375 642.25 l 1xd0
 224.126953125 642.25 l 1
 79.810546875 17.150390625 l 1xe0
 150.111328125 17.150390625 l 1
 127.959960938 -78.7998046875 l 1
 -42.0908203125 -78.7998046875 l 1
 146.528320312 738.200195312 l 1xd0
EndSplineSet
Substitution2: "'rtla' Right to Left Alternates lookup 0 subtable" bracketright
EndChar

StartChar: backslash
Encoding: 92 92 62
Width: 302
GlyphClass: 2
Flags: MW
HStem: -8.5 21G<91.9893 188.539 91.9893 91.9893> 670.7 20G<122.563 219.112 219.112 219.112>
VStem: 46.6768 227.399
LayerCount: 2
Fore
SplineSet
122.563476562 690.700195312 m 1
 219.112304688 690.700195312 l 1
 188.5390625 -8.5 l 1
 91.9892578125 -8.5 l 1
 122.563476562 690.700195312 l 1
EndSplineSet
EndChar

StartChar: bracketright
Encoding: 93 93 63
Width: 261
GlyphClass: 2
Flags: MW
HStem: -78.7998 95.9502<-29.4395 39.9111 -29.4395 117.51 -51.5908 39.9111> 642.25 95.9502<137.028 184.228 114.877 306.129>
VStem: 50.1758 169.101 119.526 99.75
LayerCount: 2
Fore
SplineSet
184.227539062 642.25 m 1xd0
 114.876953125 642.25 l 1
 137.028320312 738.200195312 l 1
 306.12890625 738.200195312 l 1
 117.509765625 -78.7998046875 l 1
 -51.5908203125 -78.7998046875 l 1
 -29.439453125 17.150390625 l 1xe0
 39.9111328125 17.150390625 l 1
 184.227539062 642.25 l 1xd0
EndSplineSet
Substitution2: "'rtla' Right to Left Alternates lookup 0 subtable" bracketleft
EndChar

StartChar: asciicircum
Encoding: 94 94 64
Width: 421
GlyphClass: 2
Flags: MW
HStem: 670.7 20G<251.607 337.74 337.74 337.74>
LayerCount: 2
Fore
SplineSet
251.607421875 690.700195312 m 1
 337.740234375 690.700195312 l 1
 386.666015625 267 l 1
 287.6640625 267 l 1
 259.103515625 534.836914062 l 1
 106.037109375 267 l 1
 8.076171875 267 l 1
 251.607421875 690.700195312 l 1
EndSplineSet
EndChar

StartChar: underscore
Encoding: 95 95 65
Width: 416
GlyphClass: 2
Flags: MW
HStem: -97.7998 81.7002<-84.6152 325.923 -103.478 344.785>
LayerCount: 2
Fore
SplineSet
-84.615234375 -16.099609375 m 1
 344.78515625 -16.099609375 l 1
 325.922851562 -97.7998046875 l 1
 -103.477539062 -97.7998046875 l 1
 -84.615234375 -16.099609375 l 1
EndSplineSet
EndChar

StartChar: grave
Encoding: 96 96 66
Width: 498
GlyphClass: 2
Flags: MW
HStem: 548.2 156.75<310.379 330.114 214.121 404.501 310.379 310.379>
VStem: 134.944 226.569
LayerCount: 2
Fore
SplineSet
214.12109375 704.950195312 m 1
 330.114257812 704.950195312 l 1
 404.500976562 548.200195312 l 1
 310.37890625 548.200195312 l 1
 214.12109375 704.950195312 l 1
EndSplineSet
EndChar

StartChar: a
Encoding: 97 97 67
Width: 402
GlyphClass: 2
Flags: MW
HStem: -6.59961 90.249<75.979 149.418> 1 21G<182.482 278.433 182.482 182.482> 232.799 82.6514<159.938 252.229 193.328 233.148> 442.75 91.2002<210.548 238.52>
VStem: 40.6748 98.8018 53.0254 95 262.977 98.7998
LayerCount: 2
Fore
SplineSet
59.166015625 388.599609375 m 2xb6
 80.3896484375 480.526367188 155.494140625 533.950195312 243.774414062 533.950195312 c 0
 292.430664062 533.950195312 329.358398438 520.39453125 350.720703125 491.17578125 c 0
 371.8984375 462.211914062 375.702148438 422.3203125 364.627929688 374.349609375 c 2
 278.432617188 1 l 1
 182.482421875 1 l 1x76
 186.748046875 19.4736328125 l 1
 160.161132812 2.208984375 130.138671875 -6.599609375 98.078125 -6.599609375 c 0
 53.8798828125 -6.599609375 20.501953125 7.8720703125 2.169921875 37.990234375 c 0
 -15.91015625 67.6962890625 -17.9638671875 108.009765625 -6.69921875 156.799804688 c 0xba
 4.2763671875 204.342773438 27.1171875 244.05078125 62.6435546875 272.9140625 c 0
 98.490234375 302.037109375 142.921875 315.450195312 193.328125 315.450195312 c 2
 252.228515625 315.450195312 l 1
 266.484375 377.200195312 l 2
 279.181640625 432.194335938 254.322265625 442.75 222.717773438 442.75 c 0
 198.37890625 442.75 164.8984375 435.084960938 153.947265625 387.650390625 c 2
 148.245117188 362.950195312 l 1
 53.2451171875 362.950195312 l 1
 59.166015625 388.599609375 l 2xb6
134.11328125 83.6494140625 m 0xba
 164.72265625 83.6494140625 201.8984375 97.44140625 216.041015625 158.69921875 c 2
 233.1484375 232.798828125 l 1
 180.8984375 232.798828125 l 2
 138.977539062 232.798828125 105.982421875 216.921875 92.3212890625 157.749023438 c 0
 76.6787109375 89.9912109375 108.90234375 83.6494140625 134.11328125 83.6494140625 c 0xba
EndSplineSet
EndChar

StartChar: b
Encoding: 98 98 68
Width: 413
GlyphClass: 2
Flags: MW
HStem: -6.59961 92.1494<147.24 168.833 147.24 170.848> 1 21G<-24.6182 74.1816 -24.6182 -24.6182> 441.8 92.1504<233.172 294.967> 670.7 20G<134.612 233.412 233.412 233.412>
VStem: 58.7256 98.7998 281.975 98.8018
LayerCount: 2
Fore
SplineSet
377.924804688 349.650390625 m 2x7c
 338.227539062 177.700195312 l 2
 324.7109375 119.155273438 301.87109375 72.73828125 266.821289062 40.6689453125 c 0
 232.568359375 9.328125 192.317382812 -6.599609375 149.37890625 -6.599609375 c 0xbc
 119.755859375 -6.599609375 95.68359375 1.859375 78.1533203125 18.2001953125 c 1
 78.1298828125 18.099609375 l 1
 74.181640625 1 l 1
 -24.6181640625 1 l 1
 134.612304688 690.700195312 l 1
 233.412109375 690.700195312 l 1
 191.252929688 508.08984375 l 1
 216.1953125 525.041992188 243.923828125 533.950195312 273.224609375 533.950195312 c 0
 316.708984375 533.950195312 349.965820312 518.090820312 369.791992188 486.681640625 c 0
 390.033203125 454.612304688 391.44140625 408.194335938 377.924804688 349.650390625 c 2x7c
240.546875 441.799804688 m 0
 225.797851562 441.799804688 175.947265625 441.799804688 152.69921875 341.099609375 c 2
 116.510742188 184.349609375 l 2
 108.18359375 148.28125 109.241210938 123.125 116.586914062 107.780273438 c 0
 123.731445312 92.8583984375 136.178710938 85.5498046875 158.30078125 85.5498046875 c 0
 179.366210938 85.5498046875 193.918945312 92.2646484375 206.490234375 105.495117188 c 0
 218.9296875 118.5859375 231.873046875 144.984375 241.1796875 185.299804688 c 2
 277.369140625 342.049804688 l 2
 284.9921875 375.071289062 285.541992188 399.34375 280.944335938 414.8828125 c 0
 275.435546875 433.494140625 263.665039062 441.799804688 240.546875 441.799804688 c 0
EndSplineSet
EndChar

StartChar: c
Encoding: 99 99 69
Width: 410
GlyphClass: 2
Flags: MW
HStem: -6.59961 92.1494<139.934 155.77> 441.801 92.1494<230.107 247.448>
VStem: 50.1758 98.8008 279.126 98.7998
LayerCount: 2
Fore
SplineSet
151.653320312 85.5498046875 m 0
 177.943359375 85.5498046875 216.801757812 92.04296875 234.1640625 167.25 c 2
 241.182617188 197.650390625 l 1
 339.982421875 197.650390625 l 1
 333.18359375 168.200195312 l 2
 320.455078125 113.06640625 296.947265625 68.6943359375 260.350585938 38.0625 c 0
 224.174804688 7.7822265625 180.211914062 -6.599609375 131.328125 -6.599609375 c 0
 80.623046875 -6.599609375 42.080078125 8.033203125 19.3515625 39.0068359375 c 0
 -3.783203125 70.533203125 -6.2099609375 117.765625 7.626953125 177.700195312 c 2
 47.32421875 349.650390625 l 2
 61.1611328125 409.583984375 85.3974609375 456.817382812 123.088867188 488.34375 c 0
 160.057617188 519.264648438 205.040039062 533.950195312 255.173828125 533.950195312 c 0
 315.576171875 533.950195312 412.450195312 511.540039062 377.487304688 360.100585938 c 2
 370.46875 329.701171875 l 1
 271.668945312 329.701171875 l 1
 278.6875 360.100585938 l 2
 296.19140625 435.919921875 260.045898438 441.80078125 234.849609375 441.80078125 c 0
 210.655273438 441.80078125 193.813476562 434.620117188 180.346679688 421.6015625 c 0
 167.309570312 408.997070312 153.80859375 382.931640625 144.37109375 342.05078125 c 2
 108.182617188 185.30078125 l 2
 98.744140625 144.418945312 100.208984375 118.353515625 107.426757812 105.749023438 c 0
 114.944335938 92.6220703125 128.21484375 85.5498046875 151.653320312 85.5498046875 c 0
EndSplineSet
EndChar

StartChar: d
Encoding: 100 100 70
Width: 413
GlyphClass: 2
Flags: MW
HStem: -6.59961 92.1494<89.9092 152.428> 1 21G<190.082 288.883 190.082 190.082> 441.8 92.1504<219.257 236.669> 670.7 20G<349.312 448.113 448.113 448.113>
VStem: 50.1758 98.8008 273.426 98.8008
LayerCount: 2
Fore
SplineSet
7.626953125 177.700195312 m 2xbc
 47.32421875 349.650390625 l 2
 60.8408203125 408.194335938 83.6806640625 454.612304688 118.73046875 486.681640625 c 0
 152.983398438 518.021484375 193.235351562 533.950195312 236.174804688 533.950195312 c 0
 265.889648438 533.950195312 289.833984375 525.028320312 307.12890625 507.986328125 c 1
 349.3125 690.700195312 l 1
 448.11328125 690.700195312 l 1
 288.8828125 1 l 1
 190.08203125 1 l 1x7c
 194.052734375 18.19921875 l 1
 168.978515625 1.859375 141.000976562 -6.599609375 111.37890625 -6.599609375 c 0
 68.439453125 -6.599609375 35.5419921875 9.328125 15.759765625 40.6689453125 c 0
 -4.4814453125 72.73828125 -5.8896484375 119.155273438 7.626953125 177.700195312 c 2xbc
145.002929688 85.5498046875 m 0xbc
 159.853515625 85.5498046875 209.602539062 85.5498046875 232.412109375 184.349609375 c 2
 268.600585938 341.099609375 l 2
 291.556640625 440.533203125 246.08984375 441.799804688 227.249023438 441.799804688 c 0
 211.264648438 441.799804688 167.399414062 441.799804688 144.37109375 342.049804688 c 2
 108.181640625 185.299804688 l 2
 98.875 144.985351562 99.62890625 118.5859375 106.0234375 105.495117188 c 0
 112.485351562 92.2646484375 123.938476562 85.5498046875 145.002929688 85.5498046875 c 0xbc
EndSplineSet
EndChar

StartChar: e
Encoding: 101 101 71
Width: 409
GlyphClass: 2
Flags: MW
HStem: -6.59961 90.25<141.493 154.792> 227.1 83.5996<137.133 267.282 137.133 345.832 117.832 267.282> 441.799 92.1514<227.656 251.127>
VStem: 50.1758 98.8008 279.126 97.8506
LayerCount: 2
Fore
SplineSet
130.37890625 -6.599609375 m 0
 51.7197265625 -6.599609375 -26.7265625 28.8984375 9.380859375 185.299804688 c 2
 46.0087890625 343.950195312 l 2
 59.7197265625 403.340820312 83.982421875 450.96875 121.180664062 484.44140625 c 0
 158.153320312 517.7109375 202.98828125 533.950195312 252.32421875 533.950195312 c 0
 301.669921875 533.950195312 339.21875 517.719726562 361.453125 484.59765625 c 0
 383.9140625 451.139648438 386.536132812 403.408203125 372.809570312 343.950195312 c 2
 345.83203125 227.099609375 l 1
 117.83203125 227.099609375 l 1
 108.401367188 186.249023438 l 2
 98.8330078125 144.8046875 100.41015625 118.168945312 108.125 104.854492188 c 0
 116.223632812 90.8798828125 129.872070312 83.650390625 153.114257812 83.650390625 c 0
 176.678710938 83.650390625 215.072265625 88.669921875 232.556640625 164.400390625 c 2
 237.380859375 185.299804688 l 1
 335.231445312 185.299804688 l 1
 330.625976562 165.349609375 l 2
 318.178710938 111.434570312 294.967773438 67.8583984375 258.819335938 37.58984375 c 0
 222.975585938 7.5771484375 179.206054688 -6.599609375 130.37890625 -6.599609375 c 0
274.958984375 343.94921875 m 2
 293.158203125 422.778320312 270.255859375 441.798828125 231.999023438 441.798828125 c 0
 209.40625 441.798828125 193.465820312 434.786132812 180.030273438 421.388671875 c 0
 166.939453125 408.333984375 153.655273438 382.266601562 144.370117188 342.048828125 c 2
 137.1328125 310.69921875 l 1
 267.282226562 310.69921875 l 1
 274.958984375 343.94921875 l 2
EndSplineSet
EndChar

StartChar: f
Encoding: 102 102 72
Width: 295
GlyphClass: 2
Flags: MW
HStem: 1 21G<15.2832 114.083 15.2832 15.2832> 441.8 84.5498<77.6699 117.05 58.1494 136.57 235.37 300.399 77.6699 215.85> 605.2 85.5<291.438 357.863 316.063 338.124>
VStem: 98.627 98.7998
LayerCount: 2
Fore
SplineSet
241.73046875 553.900390625 m 2
 235.370117188 526.349609375 l 1
 319.919921875 526.349609375 l 1
 300.399414062 441.799804688 l 1
 215.849609375 441.799804688 l 1
 114.083007812 1 l 1
 15.283203125 1 l 1
 117.049804688 441.799804688 l 1
 58.1494140625 441.799804688 l 1
 77.669921875 526.349609375 l 1
 136.5703125 526.349609375 l 1
 140.95703125 545.349609375 l 2
 151.247070312 589.923828125 171.1328125 626.712890625 202.40625 652.733398438 c 0
 233.7265625 678.793945312 272.544921875 690.700195312 316.063476562 690.700195312 c 2
 357.86328125 690.700195312 l 1
 338.124023438 605.200195312 l 1
 302.024414062 605.200195312 l 2
 280.852539062 605.200195312 268.313476562 600.127929688 261.641601562 594.436523438 c 0
 254.6484375 588.46875 246.807617188 575.890625 241.73046875 553.900390625 c 2
EndSplineSet
EndChar

StartChar: g
Encoding: 103 103 73
Width: 413
GlyphClass: 2
Flags: MW
HStem: -152.9 90.25<102.827 124.821 102.827 170.603> 31.4004 92.1494<98.6816 161.203> 441.8 92.1504<214.705 236.833>
VStem: 50.1758 98.8008 273.426 98.8008
LayerCount: 2
Fore
SplineSet
296.33984375 33.2998046875 m 2
 288.229492188 -1.83203125 249.353515625 -152.900390625 91.8525390625 -152.900390625 c 0
 45.923828125 -152.900390625 10.482421875 -140.961914062 -11.296875 -115.051757812 c 0
 -32.9033203125 -89.34765625 -38.771484375 -53.9765625 -30.439453125 -11.9189453125 c 2
 -26.939453125 5.75 l 1
 68.576171875 5.75 l 1
 63.83203125 -22.1083984375 61.666015625 -34.833984375 73.390625 -48.693359375 c 0
 80.8486328125 -57.5068359375 92.9658203125 -62.650390625 112.688476562 -62.650390625 c 0
 136.954101562 -62.650390625 152.446289062 -55.5029296875 164.047851562 -43.2265625 c 0
 176.578125 -29.9697265625 188.305664062 -6.6943359375 196.223632812 27.599609375 c 2
 202.66015625 55.482421875 l 1
 177.801757812 39.5654296875 149.864257812 31.400390625 120.151367188 31.400390625 c 0
 77.2119140625 31.400390625 44.3154296875 47.328125 24.533203125 78.6689453125 c 0
 4.318359375 110.6953125 2.8017578125 156.798828125 16.1806640625 214.75 c 2
 47.5439453125 350.599609375 l 2
 60.9228515625 408.55078125 83.728515625 454.655273438 118.73046875 486.681640625 c 0
 152.983398438 518.021484375 193.235351562 533.950195312 236.174804688 533.950195312 c 0
 266.006835938 533.950195312 290.0078125 525.173828125 307.208984375 508.33203125 c 1
 311.369140625 526.349609375 l 1
 410.169921875 526.349609375 l 1
 296.33984375 33.2998046875 l 2
153.776367188 123.549804688 m 0
 168.62890625 123.549804688 218.375 123.549804688 241.184570312 222.349609375 c 2
 268.8203125 342.049804688 l 2
 291.501953125 440.296875 246.416015625 441.799804688 227.249023438 441.799804688 c 0
 193.575195312 441.799804688 162.998046875 422.733398438 144.58984375 343 c 2
 116.735351562 222.349609375 l 2
 107.423828125 182.014648438 108.263671875 155.833007812 114.62890625 143.13671875 c 0
 121.107421875 130.211914062 132.610351562 123.549804688 153.776367188 123.549804688 c 0
EndSplineSet
EndChar

StartChar: h
Encoding: 104 104 74
Width: 416
GlyphClass: 2
Flags: MW
HStem: 1 21G<-24.6172 74.1826 -24.6172 -24.6172 193.883 193.883 193.883 292.684> 441.8 92.1504<256.964 265.635> 670.7 20G<134.613 233.413 233.413 233.413>
VStem: 58.7266 98.7998 277.227 98.8008
LayerCount: 2
Fore
SplineSet
279.200195312 370.549804688 m 2
 282.171875 383.419921875 295.470703125 441.799804688 235.798828125 441.799804688 c 0
 216.96875 441.799804688 202.244140625 436.014648438 188.684570312 424.41015625 c 0
 175.75390625 413.341796875 165.447265625 396.309570312 159.5 370.549804688 c 2
 74.1826171875 1 l 1
 -24.6171875 1 l 1
 134.61328125 690.700195312 l 1
 233.413085938 690.700195312 l 1
 191.501953125 509.163085938 l 1
 209.436523438 520.310546875 238.802734375 533.950195312 275.125 533.950195312 c 0
 318.103515625 533.950195312 350.793945312 519.772460938 369.250976562 490.471679688 c 0
 387.583984375 461.368164062 389.784179688 421.587890625 378.659179688 373.400390625 c 2
 292.68359375 1 l 1
 193.8828125 1 l 1
 279.200195312 370.549804688 l 2
EndSplineSet
EndChar

StartChar: i
Encoding: 105 105 75
Width: 209
GlyphClass: 2
Flags: MW
HStem: 1 21G<-18.918 79.8828 -18.918 -18.918> 570.05 119.7<140.093 212.208 112.458 239.843>
VStem: 64.4258 98.8008
LayerCount: 2
Fore
SplineSet
102.369140625 526.349609375 m 1
 201.169921875 526.349609375 l 1
 79.8828125 1 l 1
 -18.91796875 1 l 1
 102.369140625 526.349609375 l 1
140.092773438 689.75 m 1
 239.842773438 689.75 l 1
 212.208007812 570.049804688 l 1
 112.458007812 570.049804688 l 1
 140.092773438 689.75 l 1
EndSplineSet
EndChar

StartChar: j
Encoding: 106 106 76
Width: 206
GlyphClass: 2
Flags: MW
HStem: -143.4 92.1504<-116.48 -104.505 -137.755 -85.1289> 570.05 119.7<136.293 208.408 108.658 236.043>
VStem: 60.627 99.75
LayerCount: 2
Fore
SplineSet
136.29296875 689.75 m 1
 236.04296875 689.75 l 1
 208.408203125 570.049804688 l 1
 108.658203125 570.049804688 l 1
 136.29296875 689.75 l 1
-85.12890625 -51.25 m 2
 -59.537109375 -51.25 -33.0166015625 -43.6162109375 -21.400390625 6.7001953125 c 2
 98.5703125 526.349609375 l 1
 198.3203125 526.349609375 l 1
 77.69140625 3.849609375 l 2
 67.220703125 -41.50390625 46.4150390625 -78.94140625 13.6875 -105.225585938 c 0
 -18.9501953125 -131.435546875 -59.1884765625 -143.400390625 -104.504882812 -143.400390625 c 2
 -137.754882812 -143.400390625 l 1
 -116.48046875 -51.25 l 1
 -85.12890625 -51.25 l 2
EndSplineSet
EndChar

StartChar: k
Encoding: 107 107 77
Width: 410
GlyphClass: 2
Flags: MW
HStem: 1 21G<-24.6172 74.1826 -24.6172 -24.6172 225.722 338.093 225.722 225.722> 670.7 20G<134.613 233.413 233.413 233.413>
VStem: 58.7266 98.7998
LayerCount: 2
Fore
SplineSet
338.092773438 1 m 1
 225.721679688 1 l 1
 172.900390625 226.756835938 l 1
 110.473632812 158.19140625 l 1
 74.1826171875 1 l 1
 -24.6171875 1 l 1
 134.61328125 690.700195312 l 1
 233.413085938 690.700195312 l 1
 145.959960938 311.900390625 l 1
 333.38671875 526.349609375 l 1
 446.366210938 526.349609375 l 1
 256.5703125 318.760742188 l 1
 338.092773438 1 l 1
EndSplineSet
EndChar

StartChar: l
Encoding: 108 108 78
Width: 243
GlyphClass: 2
Flags: MW
HStem: 1 92.1504<100.925 178.108 146.759 156.833> 670.7 20G<134.613 234.363 234.363 234.363>
VStem: 58.7266 99.75
LayerCount: 2
Fore
SplineSet
109.786132812 151.099609375 m 2
 98.169921875 100.78515625 121.165039062 93.150390625 146.758789062 93.150390625 c 2
 178.108398438 93.150390625 l 1
 156.833007812 1 l 1
 123.583007812 1 l 2
 78.267578125 1 43.552734375 12.96484375 23.0185546875 39.1748046875 c 0
 2.42578125 65.458984375 -1.091796875 102.896484375 9.37890625 148.25 c 2
 134.61328125 690.700195312 l 1
 234.36328125 690.700195312 l 1
 109.786132812 151.099609375 l 2
EndSplineSet
EndChar

StartChar: m
Encoding: 109 109 79
Width: 637
GlyphClass: 2
Flags: MW
HStem: 0.999023 21G<193.883 292.684 193.883 193.883 411.434 411.434 411.434 511.184> 441.799 92.1504<226.432 288.817 459.684 484.079>
VStem: 58.7266 99.75 277.227 98.8008 494.777 99.75
CounterMasks: 1 38
LayerCount: 2
Fore
SplineSet
496.750976562 370.548828125 m 2
 499.737304688 383.482421875 512.908203125 441.798828125 455.25 441.798828125 c 0
 435.748046875 441.798828125 420.76171875 435.840820312 407.225585938 424.063476562 c 0
 393.881835938 412.452148438 383.829101562 395.791992188 378.220703125 371.499023438 c 2
 292.68359375 0.9990234375 l 1
 193.8828125 0.9990234375 l 1
 279.200195312 370.548828125 l 2
 284.993164062 395.642578125 282.741210938 412.697265625 275.063476562 424.206054688 c 0
 267.29296875 435.853515625 255.307617188 441.798828125 235.798828125 441.798828125 c 0
 217.064453125 441.798828125 202.637695312 435.965820312 189.362304688 424.206054688 c 0
 176.370117188 412.697265625 166.243164062 395.642578125 160.450195312 370.549804688 c 2
 75.1328125 1 l 1
 -24.6171875 1 l 1
 96.669921875 526.350585938 l 1
 194.520507812 526.350585938 l 1
 190.381835938 508.422851562 l 1
 213.51953125 523.153320312 241.83984375 533.94921875 275.124023438 533.94921875 c 0
 302.510742188 533.94921875 345.383789062 526.48046875 370.493164062 484.594726562 c 1
 387.181640625 499.903320312 429.54296875 533.94921875 489.82421875 533.94921875 c 0
 535.017578125 533.94921875 569.12109375 520.046875 587.750976562 490.470703125 c 0
 606.083007812 461.3671875 608.284179688 421.586914062 597.159179688 373.399414062 c 2
 511.18359375 0.9990234375 l 1
 411.43359375 0.9990234375 l 1
 496.750976562 370.548828125 l 2
EndSplineSet
EndChar

StartChar: n
Encoding: 110 110 80
Width: 416
GlyphClass: 2
Flags: MW
HStem: 0.999023 21G<193.883 292.684 193.883 193.883> 441.799 92.1504<257.534 265.635>
VStem: 58.7266 98.7998 277.227 98.8008
LayerCount: 2
Fore
SplineSet
279.200195312 370.548828125 m 2
 282.171875 383.418945312 295.470703125 441.798828125 235.798828125 441.798828125 c 0
 217.069335938 441.798828125 202.385742188 435.950195312 188.725585938 424.063476562 c 0
 175.478515625 412.537109375 165.276367188 395.569335938 159.5 370.549804688 c 2
 74.1826171875 1 l 1
 -24.6171875 1 l 1
 96.669921875 526.350585938 l 1
 193.5703125 526.350585938 l 1
 189.38671875 508.228515625 l 1
 210.905273438 521.833007812 239.944335938 533.94921875 275.124023438 533.94921875 c 0
 318.162109375 533.94921875 350.840820312 519.553710938 369.19140625 489.9140625 c 0
 387.350585938 460.5859375 389.65234375 421.014648438 378.659179688 373.399414062 c 2
 292.68359375 0.9990234375 l 1
 193.8828125 0.9990234375 l 1
 279.200195312 370.548828125 l 2
EndSplineSet
EndChar

StartChar: o
Encoding: 111 111 81
Width: 410
GlyphClass: 2
Flags: MW
HStem: -6.59961 92.1494<139.365 154.896> 441.801 92.1494<230.107 244.247>
VStem: 50.1758 98.8008 279.126 98.7988
LayerCount: 2
Fore
SplineSet
7.626953125 177.700195312 m 2
 47.32421875 349.650390625 l 2
 61.1611328125 409.583984375 85.3974609375 456.817382812 123.088867188 488.34375 c 0
 160.057617188 519.264648438 205.040039062 533.950195312 255.173828125 533.950195312 c 0
 304.209960938 533.950195312 341.616210938 518.953125 363.823242188 487.71875 c 0
 386.41796875 455.939453125 388.76953125 408.97265625 375.073242188 349.650390625 c 2
 335.375976562 177.700195312 l 2
 321.680664062 118.377929688 297.642578125 71.4111328125 260.374023438 39.630859375 c 0
 223.745117188 8.396484375 179.4140625 -6.599609375 130.377929688 -6.599609375 c 0
 80.244140625 -6.599609375 42.04296875 8.0859375 19.3515625 39.0068359375 c 0
 -3.783203125 70.533203125 -6.2099609375 117.765625 7.626953125 177.700195312 c 2
238.33203125 185.30078125 m 2
 274.520507812 342.05078125 l 2
 283.805664062 382.268554688 282.557617188 408.3359375 275.493164062 421.390625 c 0
 268.245117188 434.788085938 255.54296875 441.80078125 232.950195312 441.80078125 c 0
 210.2734375 441.80078125 194.040039062 434.838867188 180.346679688 421.6015625 c 0
 167.309570312 408.997070312 153.80859375 382.931640625 144.37109375 342.05078125 c 2
 108.182617188 185.30078125 l 2
 98.744140625 144.418945312 100.208984375 118.353515625 107.426757812 105.749023438 c 0
 115.0078125 92.51171875 128.026367188 85.5498046875 150.703125 85.5498046875 c 0
 173.295898438 85.5498046875 189.236328125 92.5625 202.670898438 105.9609375 c 0
 215.762695312 119.015625 229.046875 145.083984375 238.33203125 185.30078125 c 2
EndSplineSet
EndChar

StartChar: p
Encoding: 112 112 82
Width: 413
GlyphClass: 2
Flags: MW
HStem: -6.59961 92.1494<147.24 168.833 147.24 170.848> 441.8 92.1504<233.172 294.967>
VStem: 58.7266 98.7998 281.975 98.8018
LayerCount: 2
Fore
SplineSet
96.669921875 526.349609375 m 1
 195.46875 526.349609375 l 1
 191.252929688 508.08984375 l 1
 216.1953125 525.041992188 243.923828125 533.950195312 273.224609375 533.950195312 c 0
 316.708984375 533.950195312 349.965820312 518.090820312 369.791992188 486.681640625 c 0
 390.033203125 454.612304688 391.44140625 408.194335938 377.924804688 349.650390625 c 2
 338.227539062 177.700195312 l 2
 324.7109375 119.155273438 301.87109375 72.73828125 266.821289062 40.6689453125 c 0
 232.568359375 9.328125 192.317382812 -6.599609375 149.37890625 -6.599609375 c 0
 119.78515625 -6.599609375 95.671875 1.705078125 78.0634765625 17.80859375 c 1
 40.845703125 -143.400390625 l 1
 -57.9541015625 -143.400390625 l 1
 96.669921875 526.349609375 l 1
240.546875 441.799804688 m 0
 225.797851562 441.799804688 175.947265625 441.799804688 152.69921875 341.099609375 c 2
 116.510742188 184.349609375 l 2
 108.18359375 148.28125 109.241210938 123.125 116.586914062 107.780273438 c 0
 123.731445312 92.8583984375 136.178710938 85.5498046875 158.30078125 85.5498046875 c 0
 179.366210938 85.5498046875 193.918945312 92.2646484375 206.490234375 105.495117188 c 0
 218.9296875 118.5859375 231.873046875 144.984375 241.1796875 185.299804688 c 2
 277.369140625 342.049804688 l 2
 284.9921875 375.071289062 285.541992188 399.34375 280.944335938 414.8828125 c 0
 275.435546875 433.494140625 263.665039062 441.799804688 240.546875 441.799804688 c 0
EndSplineSet
EndChar

StartChar: q
Encoding: 113 113 83
Width: 413
GlyphClass: 2
Flags: MW
HStem: -6.59961 92.1494<89.9082 152.428> 441.8 92.1504<219.255 236.667>
VStem: 50.1748 98.7998 273.426 98.8008
LayerCount: 2
Fore
SplineSet
307.153320312 508.08984375 m 1
 311.369140625 526.349609375 l 1
 410.169921875 526.349609375 l 1
 255.545898438 -143.400390625 l 1
 156.745117188 -143.400390625 l 1
 193.962890625 17.80859375 l 1
 168.91796875 1.705078125 140.970703125 -6.599609375 111.377929688 -6.599609375 c 0
 68.4384765625 -6.599609375 35.541015625 9.328125 15.7587890625 40.6689453125 c 0
 -4.482421875 72.73828125 -5.890625 119.155273438 7.6259765625 177.700195312 c 2
 47.3232421875 349.650390625 l 2
 60.83984375 408.194335938 83.6796875 454.612304688 118.729492188 486.681640625 c 0
 153.057617188 518.090820312 193.638671875 533.950195312 237.123046875 533.950195312 c 0
 266.423828125 533.950195312 290.0390625 525.041992188 307.153320312 508.08984375 c 1
145.001953125 85.5498046875 m 0
 159.854492188 85.5498046875 209.600585938 85.5498046875 232.41015625 184.349609375 c 2
 268.598632812 341.099609375 l 2
 291.5546875 440.533203125 246.087890625 441.799804688 227.247070312 441.799804688 c 0
 211.262695312 441.799804688 167.397460938 441.799804688 144.369140625 342.049804688 c 2
 108.1796875 185.299804688 l 2
 98.873046875 144.985351562 99.626953125 118.5859375 106.021484375 105.495117188 c 0
 112.483398438 92.2646484375 123.936523438 85.5498046875 145.001953125 85.5498046875 c 0
EndSplineSet
EndChar

StartChar: r
Encoding: 114 114 84
Width: 297
GlyphClass: 2
Flags: MW
HStem: 1 21G<-24.6172 74.1826 -24.6172 -24.6172> 441.8 92.1504<236.087 291.859>
VStem: 58.7266 98.7998
LayerCount: 2
Fore
SplineSet
189.067382812 506.849609375 m 1
 200.698242188 514.540039062 233.270507812 533.950195312 280.82421875 533.950195312 c 0
 302.89453125 533.950195312 311.337890625 531.709960938 331.33203125 526.404296875 c 1
 308.294921875 426.62109375 l 1
 276.013671875 438.279296875 266.263671875 441.799804688 247.19921875 441.799804688 c 0
 224.975585938 441.799804688 207.153320312 435.159179688 191.092773438 422.111328125 c 0
 175.452148438 409.403320312 164.4375 391.934570312 158.623046875 366.75 c 2
 74.1826171875 1 l 1
 -24.6171875 1 l 1
 96.669921875 526.349609375 l 1
 193.569335938 526.349609375 l 1
 189.067382812 506.849609375 l 1
EndSplineSet
EndChar

StartChar: s
Encoding: 115 115 85
Width: 384
GlyphClass: 2
Flags: MW
HStem: -6.59961 91.1992<111.275 140.751> 443.701 90.25<220.618 245.495>
VStem: 40.6787 94.0498 45.4287 98.7988 267.729 98.7988
LayerCount: 2
Fore
SplineSet
116.12890625 -6.599609375 m 0xd8
 16.6044921875 -6.599609375 -30.1171875 55.3505859375 -8.23046875 150.150390625 c 2
 -2.966796875 172.950195312 l 1
 91.0830078125 172.950195312 l 1
 85.8193359375 150.150390625 l 2xe8
 78.5712890625 118.7578125 83.46484375 84.599609375 139.0859375 84.599609375 c 0
 160.795898438 84.599609375 177.361328125 90.1416015625 190.752929688 99.8642578125 c 0
 202.904296875 108.6875 212.509765625 122.8203125 217.94140625 146.349609375 c 0
 222.143554688 164.548828125 220.581054688 176.630859375 215.62109375 184.745117188 c 0
 210.266601562 193.506835938 197.956054688 203.626953125 177.426757812 213.200195312 c 0
 177.359375 213.232421875 121.614257812 238.84375 121.614257812 238.84375 c 2
 90.5107421875 253.086914062 28.7314453125 289.67578125 50.25390625 382.900390625 c 0
 60.4697265625 427.151367188 83.5810546875 464.751953125 119.393554688 492.668945312 c 0
 155.196289062 520.578125 197.458984375 533.951171875 243.77734375 533.951171875 c 0
 341.517578125 533.951171875 386.123046875 471.565429688 364.995117188 380.05078125 c 2
 358.196289062 350.600585938 l 1
 264.146484375 350.600585938 l 1
 269.41015625 373.401367188 l 2
 278.921875 414.6015625 269 443.701171875 221.990234375 443.701171875 c 0
 199.915039062 443.701171875 161.403320312 436.395507812 150.149414062 387.651367188 c 0
 143.03125 356.818359375 155.2265625 339.787109375 185.19140625 325.512695312 c 2
 240.934570312 299.901367188 l 2
 272.749023438 285.295898438 296.2109375 267.28515625 310.208007812 244.8515625 c 0
 324.990234375 221.161132812 326.625976562 189.166992188 317.836914062 151.099609375 c 0
 306.817382812 103.366210938 283.140625 63.587890625 246.233398438 35.0888671875 c 0
 209.51171875 6.7314453125 165.373046875 -6.599609375 116.12890625 -6.599609375 c 0xd8
EndSplineSet
EndChar

StartChar: t
Encoding: 116 116 86
Width: 302
GlyphClass: 2
Flags: MW
HStem: 1 91.2002<125.197 213.988 183.588 192.933> 441.8 84.5498<66.2695 109.449 46.749 128.97 66.2695 208.249 227.77 302.299>
VStem: 91.0264 98.7998
LayerCount: 2
Fore
SplineSet
159.682617188 1 m 2
 90.7109375 1 13.4912109375 26.1572265625 41.458984375 147.299804688 c 2
 109.44921875 441.799804688 l 1
 46.7490234375 441.799804688 l 1
 66.26953125 526.349609375 l 1
 128.969726562 526.349609375 l 1
 151.248046875 622.849609375 l 1
 260.446289062 667.890625 l 1
 227.76953125 526.349609375 l 1
 321.819335938 526.349609375 l 1
 302.298828125 441.799804688 l 1
 208.249023438 441.799804688 l 1
 140.916992188 150.150390625 l 2
 131.029296875 107.321289062 145.651367188 92.2001953125 183.587890625 92.2001953125 c 2
 213.98828125 92.2001953125 l 1
 192.932617188 1 l 1
 159.682617188 1 l 2
EndSplineSet
EndChar

StartChar: u
Encoding: 117 117 87
Width: 416
GlyphClass: 2
Flags: MW
HStem: -6.59961 92.1494<141.052 174.956 141.052 192.3>
VStem: 58.7266 98.8008 277.227 98.7998
LayerCount: 2
Fore
SplineSet
132.278320312 -6.599609375 m 0
 43.0087890625 -6.599609375 -16.49609375 36.173828125 14.2041015625 169.150390625 c 2
 96.669921875 526.349609375 l 1
 195.470703125 526.349609375 l 1
 123.09375 212.849609375 l 2
 111.350585938 161.985351562 108.87109375 126.81640625 113.1640625 108.9765625 c 0
 116.78125 93.9384765625 127.600585938 85.5498046875 154.50390625 85.5498046875 c 0
 195.408203125 85.5498046875 216.735351562 99.9833984375 242.79296875 212.849609375 c 2
 315.169921875 526.349609375 l 1
 413.969726562 526.349609375 l 1
 331.50390625 169.150390625 l 2
 308.674804688 70.2666015625 252.321289062 -6.599609375 132.278320312 -6.599609375 c 0
EndSplineSet
EndChar

StartChar: v
Encoding: 118 118 88
Width: 374
GlyphClass: 2
Flags: MW
HStem: 1 21G<66.6953 157.645 66.6953 66.6953>
LayerCount: 2
Fore
SplineSet
49.7861328125 526.349609375 m 1
 155.791015625 526.349609375 l 1
 157.875976562 195.178710938 l 1
 312.065429688 526.349609375 l 1
 418.14453125 526.349609375 l 1
 157.64453125 1 l 1
 66.6953125 1 l 1
 49.7861328125 526.349609375 l 1
EndSplineSet
EndChar

StartChar: w
Encoding: 119 119 89
Width: 570
GlyphClass: 2
Flags: MW
HStem: 1 21G<48.167 138.181 48.167 48.167 281.952 370.896 281.952 281.952>
VStem: 251.174 82.4385
LayerCount: 2
Fore
SplineSet
50.564453125 526.349609375 m 1
 156.40625 526.349609375 l 1
 143.870117188 206.743164062 l 1
 289.1171875 526.349609375 l 1
 371.555664062 526.349609375 l 1
 370.796875 205.803710938 l 1
 506.232421875 526.349609375 l 1
 613.10546875 526.349609375 l 1
 370.896484375 1 l 1
 281.952148438 1 l 1
 281.369140625 313.303710938 l 1
 138.180664062 1 l 1
 48.1669921875 1 l 1
 50.564453125 526.349609375 l 1
EndSplineSet
EndChar

StartChar: x
Encoding: 120 120 90
Width: 353
GlyphClass: 2
Flags: MW
HStem: 1 21G<-75.9414 30.1621 -75.9414 -75.9414 173.407 280.372 173.407 173.407>
LayerCount: 2
Fore
SplineSet
173.407226562 1 m 1
 137.454101562 159.0625 l 1
 30.162109375 1 l 1
 -75.94140625 1 l 1
 111.661132812 273.630859375 l 1
 53.8369140625 526.349609375 l 1
 160.80859375 526.349609375 l 1
 192.678710938 388.455078125 l 1
 284.994140625 526.349609375 l 1
 392.485351562 526.349609375 l 1
 217.639648438 277.345703125 l 1
 280.372070312 1 l 1
 173.407226562 1 l 1
EndSplineSet
EndChar

StartChar: y
Encoding: 121 121 91
Width: 374
GlyphClass: 2
Flags: MW
HStem: -145.3 92.1494<-50.4189 -45.0928 -71.6934 -17.1689>
LayerCount: 2
Fore
SplineSet
-45.0927734375 -145.299804688 m 2
 -71.693359375 -145.299804688 l 1
 -50.4189453125 -53.150390625 l 1
 -17.1689453125 -53.150390625 l 2
 35.556640625 -53.150390625 49.650390625 -30.1484375 62.05859375 -4.3447265625 c 2
 67.310546875 6.578125 l 1
 49.751953125 526.349609375 l 1
 155.6484375 526.349609375 l 1
 161.16796875 206.067382812 l 1
 312.141601562 526.349609375 l 1
 418.182617188 526.349609375 l 1
 139.951171875 -32.7373046875 l 2
 105.5859375 -102.944335938 54.2080078125 -145.299804688 -45.0927734375 -145.299804688 c 2
EndSplineSet
EndChar

StartChar: z
Encoding: 122 122 92
Width: 378
GlyphClass: 2
Flags: MW
HStem: 1 93.0996<102.857 263.232> 433.25 93.0996<66.625 384.52 88.1191 248.494>
VStem: 50.1758 296.4
LayerCount: 2
Fore
SplineSet
66.625 433.25 m 1
 88.119140625 526.349609375 l 1
 384.51953125 526.349609375 l 1
 366.013671875 446.19140625 l 1
 102.857421875 94.099609375 l 1
 284.7265625 94.099609375 l 1
 263.232421875 1 l 1
 -33.16796875 1 l 1
 -14.662109375 81.158203125 l 1
 248.494140625 433.25 l 1
 66.625 433.25 l 1
EndSplineSet
EndChar

StartChar: braceleft
Encoding: 123 123 93
Width: 313
GlyphClass: 2
Flags: MW
HStem: -78.7998 95.9502<96.1899 201.412 160.562 179.261> 285.504 93.1387<32.5146 54.0166> 642.249 95.9502<298.587 367.88 313.729 345.728>
VStem: 112.876 102.601
LayerCount: 2
Fore
SplineSet
125.110351562 -78.7998046875 m 2
 67.26953125 -78.7998046875 16.9921875 -53.3173828125 39.83984375 45.646484375 c 2
 82.388671875 229.946289062 l 2
 87.8369140625 253.544921875 86.30078125 267.541992188 82.63671875 273.672851562 c 0
 76.2763671875 284.313476562 59.1103515625 284.780273438 32.5146484375 285.50390625 c 1
 54.0166015625 378.642578125 l 1
 80.947265625 379.366210938 98.3291015625 379.833007812 109.6015625 390.473632812 c 0
 115.897460938 396.416015625 124.208984375 411.087890625 129.983398438 436.098632812 c 2
 170.997070312 613.749023438 l 2
 179.872070312 652.193359375 206.952148438 738.19921875 313.729492188 738.19921875 c 2
 367.879882812 738.19921875 l 1
 345.727539062 642.249023438 l 1
 304.876953125 642.249023438 l 2
 292.297851562 642.249023438 279.651367188 639.971679688 273.377929688 612.798828125 c 2
 236.092773438 451.298828125 l 2
 219.553710938 379.659179688 201.473632812 351.66015625 171.422851562 331.971679688 c 1
 192.729492188 310.986328125 197.256835938 283.081054688 181.04296875 212.849609375 c 2
 142.661132812 46.599609375 l 2
 136.387695312 19.4267578125 147.983398438 17.150390625 160.561523438 17.150390625 c 2
 201.412109375 17.150390625 l 1
 179.260742188 -78.7998046875 l 1
 125.110351562 -78.7998046875 l 2
EndSplineSet
Substitution2: "'rtla' Right to Left Alternates lookup 0 subtable" braceright
EndChar

StartChar: bar
Encoding: 124 124 94
Width: 274
GlyphClass: 2
Flags: MW
VStem: 97.6758 96.9004
LayerCount: 2
Fore
SplineSet
184.528320312 738.200195312 m 1
 281.428710938 738.200195312 l 1
 93.029296875 -77.849609375 l 1
 -3.87109375 -77.849609375 l 1
 184.528320312 738.200195312 l 1
EndSplineSet
EndChar

StartChar: braceright
Encoding: 125 125 95
Width: 313
GlyphClass: 2
Flags: MW
HStem: -78.7998 95.9482<-29.4395 2.55957 -51.5908 10.4609> 285.507 93.1396<263.368 284.871> 642.252 95.9502<137.029 154.777 114.877 191.18>
VStem: 114.776 103.551
LayerCount: 2
Fore
SplineSet
10.4609375 17.1484375 m 2
 23.041015625 17.1484375 35.6884765625 19.4326171875 41.9609375 46.6015625 c 2
 80.3427734375 212.8515625 l 2
 96.775390625 284.030273438 114.411132812 311.41796875 145.271484375 331.971679688 c 1
 124.239257812 351.275390625 118.64453125 378.75390625 135.393554688 451.301757812 c 2
 172.678710938 612.801757812 l 2
 178.952148438 639.974609375 167.35546875 642.251953125 154.77734375 642.251953125 c 2
 114.876953125 642.251953125 l 1
 137.029296875 738.202148438 l 1
 191.1796875 738.202148438 l 2
 249.0234375 738.202148438 299.296875 712.71875 276.448242188 613.751953125 c 2
 235.434570312 436.1015625 l 2
 229.661132812 411.090820312 231.197265625 396.416992188 234.75 390.474609375 c 0
 241.108398438 379.83203125 258.270507812 379.3671875 284.87109375 378.646484375 c 1
 263.368164062 285.506835938 l 1
 236.438476562 284.783203125 219.056640625 284.31640625 207.784179688 273.676757812 c 0
 201.288085938 267.545898438 193.2890625 253.548828125 187.840820312 229.950195312 c 2
 145.291992188 45.650390625 l 2
 136.416015625 7.205078125 109.336914062 -78.7998046875 2.5595703125 -78.7998046875 c 2
 -51.5908203125 -78.7998046875 l 1
 -29.439453125 17.1484375 l 1
 10.4609375 17.1484375 l 2
EndSplineSet
Substitution2: "'rtla' Right to Left Alternates lookup 0 subtable" braceleft
EndChar

StartChar: asciitilde
Encoding: 126 126 96
Width: 421
GlyphClass: 2
Flags: MW
HStem: 206.2 98.7988<262.84 270.286 262.84 286.061> 254.648 99.751<140.92 140.924>
LayerCount: 2
Fore
SplineSet
134.641601562 254.6484375 m 0x40
 126.862304688 254.6484375 120.557617188 252.545898438 113.981445312 248.036132812 c 0
 102.153320312 239.923828125 87.3564453125 221.506835938 67.60546875 196.612304688 c 1
 -0.7626953125 245.255859375 l 1
 20.171875 274.776367188 42.646484375 306.470703125 77.802734375 329.8515625 c 0
 102.084960938 346.000976562 127.96875 354.399414062 153.872070312 354.399414062 c 0x40
 178.928710938 354.399414062 196.954101562 348.547851562 229.986328125 323.202148438 c 0
 253.8203125 305.58984375 259.71484375 304.999023438 265.96484375 304.999023438 c 0
 274.606445312 304.999023438 280.920898438 307.239257812 286.811523438 311.408203125 c 0
 298.055664062 319.368164062 312.904296875 338.155273438 333.05078125 364.107421875 c 1
 401.497070312 315.409179688 l 1
 371.661132812 272.723632812 325.1640625 206.200195312 246.95703125 206.200195312 c 0x80
 223.211914062 206.200195312 204.141601562 211.443359375 170.538085938 236.508789062 c 0
 168.46484375 238.142578125 147.206054688 254.6484375 134.641601562 254.6484375 c 0x40
EndSplineSet
EndChar

StartChar: exclamdown
Encoding: 161 161 98
Width: 214
GlyphClass: 2
Flags: MW
HStem: 400 126.35<104.27 183.399 75.0996 212.569>
VStem: 60.0059 122.878 66.3262 108.3 77.374 87.1191
LayerCount: 2
Fore
SplineSet
104.26953125 526.349609375 m 1xa0
 212.569335938 526.349609375 l 1
 183.399414062 400 l 1
 75.099609375 400 l 1
 104.26953125 526.349609375 l 1xa0
160.326171875 343.950195312 m 1x90
 66.203125 -143.400390625 l 1
 -56.6748046875 -143.400390625 l 1xc0
 73.20703125 343.950195312 l 1
 160.326171875 343.950195312 l 1x90
EndSplineSet
EndChar

StartChar: cent
Encoding: 162 162 99
Width: 410
GlyphClass: 2
Flags: MW
VStem: 50.1758 98.8008 175.576 84.5498 279.126 98.7998
LayerCount: 2
Fore
SplineSet
298.75 529.299804688 m 1
 347.528320312 518.140625 405.271484375 480.44921875 377.487304688 360.099609375 c 2
 370.46875 329.700195312 l 1
 271.668945312 329.700195312 l 1
 278.686523438 360.09765625 l 2
 283.979492188 383.0234375 287.030273438 411.58203125 275.153320312 427.090820312 c 1
 199.895507812 101.114257812 l 1
 209.68359375 109.251953125 224.880859375 127.038085938 234.1640625 167.248046875 c 2
 241.182617188 197.6484375 l 1
 339.982421875 197.6484375 l 1
 333.18359375 168.198242188 l 2
 321.810546875 118.936523438 301.689453125 78.3759765625 270.944335938 48.3388671875 c 0
 244.255859375 22.265625 212.018554688 5.5224609375 176.103515625 -1.9423828125 c 1
 154.849609375 -94 l 1
 70.2998046875 -94 l 1
 91.2490234375 -3.259765625 l 1
 29.28125 9 -21.0166015625 53.630859375 7.626953125 177.700195312 c 2
 47.32421875 349.650390625 l 2
 59.96875 404.418945312 81.3623046875 448.489257812 113.958007812 480.0390625 c 0
 142.282226562 507.453125 176.504882812 524.329101562 214.552734375 530.826171875 c 1
 234.35546875 616.599609375 l 1
 318.905273438 616.599609375 l 1
 298.75 529.299804688 l 1
191.392578125 430.508789062 m 1
 178.565429688 421.671875 158.118164062 401.594726562 144.370117188 342.046875 c 2
 108.181640625 185.296875 l 2
 94.4326171875 125.743164062 105.614257812 105.668945312 114.358398438 96.8349609375 c 1
 191.392578125 430.508789062 l 1
EndSplineSet
EndChar

StartChar: sterling
Encoding: 163 163 100
Width: 385
GlyphClass: 2
Flags: MW
HStem: 1.00098 96.8994<111.936 292.683> 288.85 95.9502<32.6406 68.4395 10.4893 90.5908 32.6406 172.938 195.09 284.089> 518.75 21G<303.915 404.614 303.915 303.915> 604.25 95.9502<283.477 292.659>
VStem: 85.3271 104.499 267.727 100.699
LayerCount: 2
Fore
SplineSet
146.180664062 172.950195312 m 2
 137.541992188 135.53125 123.807617188 112.665039062 111.935546875 97.900390625 c 1
 315.052734375 97.900390625 l 1
 292.682617188 1.0009765625 l 1
 -39.8154296875 1.0009765625 l 1
 -18.4697265625 93.462890625 l 1
 1.4296875 102.061523438 12.1259765625 106.68359375 22.2890625 122.467773438 c 0
 29.7236328125 134.013671875 36.669921875 151.243164062 41.9013671875 173.900390625 c 2
 68.439453125 288.849609375 l 1
 10.4892578125 288.849609375 l 1
 32.640625 384.799804688 l 1
 90.5908203125 384.799804688 l 1
 125.025390625 533.950195312 l 2
 136.418945312 583.301757812 156.984375 624.094726562 188.447265625 654.404296875 c 0
 220.581054688 685.359375 261.047851562 700.200195312 305.90625 700.200195312 c 0
 350.088867188 700.200195312 383.282226562 685.719726562 400.978515625 655.415039062 c 0
 418.358398438 625.65234375 419.942382812 585.142578125 408.5625 535.849609375 c 2
 404.614257812 518.75 l 1
 303.915039062 518.75 l 1
 307.86328125 535.849609375 l 2
 314.54296875 564.78515625 313.872070312 583.27734375 310 591.700195312 c 0
 306.169921875 600.033203125 299.6640625 604.25 285.654296875 604.25 c 0
 271.53125 604.25 245.4609375 602.98046875 233.033203125 549.150390625 c 2
 195.08984375 384.799804688 l 1
 306.240234375 384.799804688 l 1
 284.088867188 288.849609375 l 1
 172.938476562 288.849609375 l 1
 146.180664062 172.950195312 l 2
EndSplineSet
EndChar

StartChar: currency
Encoding: 164 164 101
Width: 577
GlyphClass: 2
Flags: MW
HStem: 121.312 100.088<241.165 280.088> 435.15 99.75<317.698 329.468>
VStem: 91.0264 101.648 401.675 101.651
LayerCount: 2
Fore
SplineSet
83.349609375 328.75 m 0
 92.466796875 368.23828125 110.000976562 403.706054688 135.981445312 434.110351562 c 1
 84.9462890625 501.73828125 l 1
 173.17578125 573.41796875 l 1
 223.739257812 506.396484375 l 1
 260.236328125 525.362304688 298.303710938 534.900390625 337.092773438 534.900390625 c 0
 375.397460938 534.900390625 408.76171875 525.323242188 436.419921875 506.34765625 c 1
 518.865234375 573.328125 l 1
 573.99609375 501.650390625 l 1
 491.55078125 434.668945312 l 1
 503.129882812 402.629882812 504.493164062 367.0546875 495.649414062 328.75 c 0
 486.626953125 289.666015625 469.25 254.060546875 443.60546875 222.81640625 c 1
 495.018554688 155.96875 l 1
 406.7578125 83.1015625 l 1
 355.0390625 150.344726562 l 1
 321.004882812 133.010742188 246.458007812 121.3125 241.165039062 121.3125 c 1
 241.2890625 121.350585938 241.495117188 121.6015625 241.686523438 121.650390625 c 1
 203.25390625 121.650390625 169.594726562 131.284179688 141.422851562 150.329101562 c 1
 58.9677734375 84.142578125 l 1
 4.3525390625 157.008789062 l 1
 86.4482421875 222.907226562 l 1
 75.26171875 254.129882812 74.3359375 289.704101562 83.349609375 328.75 c 0
393.998046875 328.75 m 0
 401.291992188 360.33984375 397.09765625 384.94921875 381.877929688 405.09375 c 0
 366.649414062 425.247070312 344.874023438 435.150390625 314.0625 435.150390625 c 0
 282.530273438 435.150390625 256.08984375 425.190429688 231.999023438 405.178710938 c 0
 207.76953125 385.051757812 192.305664062 360.40234375 184.998046875 328.75 c 0
 177.526367188 296.3828125 181.600585938 271.434570312 196.489257812 251.37109375 c 0
 211.33984375 231.359375 233.182617188 221.400390625 264.71484375 221.400390625 c 0
 295.461914062 221.400390625 321.795898438 231.40234375 346.416992188 251.848632812 c 0
 371.092773438 272.33984375 386.706054688 297.162109375 393.998046875 328.75 c 0
EndSplineSet
EndChar

StartChar: yen
Encoding: 165 165 102
Width: 391
GlyphClass: 2
Flags: MW
HStem: 1 21G<69.4326 172.982 69.4326 69.4326> 140.65 90.25<7.55957 101.674 -13.2764 122.51 226.06 320.174 7.55957 205.224> 260.35 91.2002<35.4131 128.462 35.4131 129.309 14.3584 128.462 275.814 347.809> 670.7 20G<78.5117 194.441 194.441 194.441 368.297 482.364 482.364 482.364>
VStem: 152.776 103.55
LayerCount: 2
Fore
SplineSet
205.223632812 140.650390625 m 1
 172.982421875 1 l 1
 69.4326171875 1 l 1
 101.673828125 140.650390625 l 1
 -13.2763671875 140.650390625 l 1
 7.5595703125 230.900390625 l 1
 122.509765625 230.900390625 l 1
 129.30859375 260.349609375 l 1
 14.3583984375 260.349609375 l 1
 35.4130859375 351.549804688 l 1
 128.461914062 351.549804688 l 1
 78.51171875 690.700195312 l 1
 194.44140625 690.700195312 l 1
 221.290039062 428.66796875 l 1
 368.296875 690.700195312 l 1
 482.364257812 690.700195312 l 1
 275.814453125 351.549804688 l 1
 368.86328125 351.549804688 l 1
 347.80859375 260.349609375 l 1
 232.858398438 260.349609375 l 1
 226.059570312 230.900390625 l 1
 341.009765625 230.900390625 l 1
 320.173828125 140.650390625 l 1
 205.223632812 140.650390625 l 1
EndSplineSet
EndChar

StartChar: brokenbar
Encoding: 166 166 103
Width: 274
GlyphClass: 2
Flags: MW
VStem: 97.6758 96.9004
LayerCount: 2
Fore
SplineSet
184.528320312 738.200195312 m 1
 281.428710938 738.200195312 l 1
 196.331054688 369.599609375 l 1
 99.4306640625 369.599609375 l 1
 184.528320312 738.200195312 l 1
81.6650390625 292.650390625 m 1
 178.565429688 292.650390625 l 1
 93.029296875 -77.849609375 l 1
 -3.87109375 -77.849609375 l 1
 81.6650390625 292.650390625 l 1
EndSplineSet
EndChar

StartChar: section
Encoding: 167 167 104
Width: 429
GlyphClass: 2
Flags: MW
HStem: -158.6 95<112.683 124.99> 618.5 95.9502<274.902 295.533>
VStem: 59.6738 102.601 72.0254 99.75 75.8242 103.551 271.525 103.55 283.873 102.603
LayerCount: 2
Fore
SplineSet
100.986328125 -158.599609375 m 0xc4
 10.2548828125 -158.599609375 -38.3447265625 -116.06640625 -8.6865234375 12.400390625 c 2
 -4.73828125 29.5 l 1
 95.01171875 29.5 l 1
 91.0634765625 12.400390625 l 2xd4
 83.7978515625 -19.07421875 84.3115234375 -39.5576171875 88.6318359375 -49.310546875 c 0
 92.25 -57.478515625 101.498046875 -63.599609375 123.8671875 -63.599609375 c 0
 144.149414062 -63.599609375 156.142578125 -58.0361328125 164.287109375 -49.8779296875 c 0
 173.620117188 -40.529296875 182.2421875 -24.728515625 187.743164062 -0.9013671875 c 0
 198.361328125 45.0927734375 188.970703125 58.904296875 173.831054688 69.4501953125 c 0
 163.405273438 76.7109375 145.6171875 84.521484375 120.931640625 91.8857421875 c 0
 47.66015625 113.923828125 14.1630859375 164.872070312 40.591796875 279.348632812 c 0xe4
 52.0673828125 329.053710938 76.96484375 394.221679688 140.0078125 430.495117188 c 1
 127.640625 442.02734375 101.063476562 471.32421875 120.786132812 556.75 c 0
 132.34765625 606.831054688 172.737304688 714.450195312 306.34375 714.450195312 c 0
 355.600585938 714.450195312 391.717773438 700.176757812 408.581054688 668.25 c 0
 424.688476562 637.75390625 425.288085938 595.958984375 413.384765625 544.400390625 c 2
 409.436523438 527.299804688 l 1
 309.686523438 527.299804688 l 1
 313.634765625 544.400390625 l 2
 320.458984375 573.95703125 320.453125 594.033203125 316.6171875 604.541992188 c 0
 313.659179688 612.649414062 305.923828125 618.5 285.142578125 618.5 c 0
 264.662109375 618.5 253.549804688 612.955078125 246.717773438 605.7265625 c 0
 238.234375 596.751953125 229.888671875 580.796875 224.336914062 556.75 c 0
 217.861328125 528.702148438 220.435546875 511.395507812 227.659179688 501.7265625 c 0
 235.461914062 491.279296875 255.657226562 479.145507812 289.337890625 468.732421875 c 0
 329.931640625 457.208984375 357.96875 435.776367188 369.471679688 403.404296875 c 0
 380.625976562 372.015625 379.209960938 330.528320312 367.39453125 279.349609375 c 0xca
 355.965820312 229.846679688 331.55859375 166.157226562 270.852539062 131.036132812 c 1
 283.235351562 119.814453125 312.297851562 90.0810546875 291.731445312 1 c 0
 280.55859375 -47.3984375 258.975585938 -87.353515625 225.401367188 -116.12890625 c 0
 191.474609375 -145.20703125 148.994140625 -158.599609375 100.986328125 -158.599609375 c 0xc4
264.791015625 279.348632812 m 0xe2
 273.040039062 315.077148438 272.836914062 339.967773438 267.135742188 354.357421875 c 0
 262.09765625 367.07421875 250.904296875 374.348632812 226.875 374.348632812 c 0
 202.181640625 374.348632812 187.078125 366.876953125 175.79296875 353.817382812 c 0
 162.991210938 339.004882812 151.2734375 314.350585938 143.192382812 279.348632812 c 0
 135.265625 245.010742188 135.708007812 220.896484375 141.692382812 206.416015625 c 0
 146.958007812 193.669921875 158.661132812 186.249023438 183.44921875 186.249023438 c 0
 206.686523438 186.249023438 221.235351562 193.405273438 232.619140625 206.416015625 c 0
 245.288085938 220.895507812 256.86328125 245.009765625 264.791015625 279.348632812 c 0xe2
178.162109375 673.598632812 m 1024
EndSplineSet
EndChar

StartChar: dieresis
Encoding: 168 168 105
Width: 498
GlyphClass: 2
Flags: MW
HStem: 551.05 115.9<203.229 281.922 176.472 308.68 203.229 320.872 347.63 426.321>
VStem: 132.826 105.45 277.227 105.449
LayerCount: 2
Fore
SplineSet
203.229492188 666.950195312 m 1
 308.6796875 666.950195312 l 1
 281.921875 551.049804688 l 1
 176.471679688 551.049804688 l 1
 203.229492188 666.950195312 l 1
347.629882812 666.950195312 m 1
 453.079101562 666.950195312 l 1
 426.321289062 551.049804688 l 1
 320.872070312 551.049804688 l 1
 347.629882812 666.950195312 l 1
EndSplineSet
EndChar

StartChar: copyright
Encoding: 169 169 106
Width: 732
GlyphClass: 2
Flags: MW
HStem: -8.5 80.749<268.476 321.479> 138.749 78.8496<335.418 343.222> 467.45 78.8486<393.041 408.652> 609.949 80.752<392.29 470.459>
VStem: 52.0762 86.4492 247.775 84.5498 417.825 84.5498 610.675 85.501
LayerCount: 2
Fore
SplineSet
47.2509765625 341.100585938 m 0
 97.2197265625 557.538085938 252.25 690.701171875 450.012695312 690.701171875 c 0
 516.42578125 690.701171875 571.155273438 676.517578125 613.125 647.442382812 c 0
 693.771484375 591.575195312 724.821289062 486.079101562 691.350585938 341.099609375 c 0
 681.056640625 296.509765625 638.01953125 120.473632812 470.955078125 34.2119140625 c 0
 415.401367188 5.5283203125 354.370117188 -8.5 288.588867188 -8.5 c 0
 222.778320312 -8.5 168.231445312 5.703125 125.990234375 34.7314453125 c 0
 100.17578125 52.470703125 -2.2470703125 126.700195312 47.2509765625 341.100585938 c 0
605.849609375 341.098632812 m 0
 626.14453125 429.0078125 620.15625 494.779296875 590.612304688 540.758789062 c 0
 561.268554688 586.42578125 509.55078125 609.94921875 431.368164062 609.94921875 c 0
 353.2109375 609.94921875 290.813476562 586.296875 240.638671875 540.37109375 c 0
 190.013671875 494.033203125 153.84765625 428.366210938 133.700195312 341.098632812 c 0
 113.404296875 253.190429688 119.392578125 187.418945312 148.936523438 141.439453125 c 0
 178.301757812 95.73828125 229.721679688 72.2490234375 307.23046875 72.2490234375 c 0
 385.384765625 72.2490234375 447.973632812 95.90234375 498.487304688 141.874023438 c 0
 549.407226562 188.215820312 585.70703125 253.854492188 605.849609375 341.098632812 c 0
324.483398438 138.749023438 m 0
 267.829101562 138.749023438 201.666992188 162.284179688 229.1328125 281.249023438 c 2
 257.64453125 404.749023438 l 2
 272.061523438 467.194335938 311.462890625 546.298828125 418.57421875 546.298828125 c 0
 463.806640625 546.298828125 541.140625 529.911132812 513.999023438 412.349609375 c 2
 507.638671875 384.799804688 l 1
 423.088867188 384.799804688 l 1
 429.23046875 411.400390625 l 2
 441.821289062 465.936523438 415.983398438 467.450195312 401.3203125 467.450195312 c 0
 384.76171875 467.450195312 374.158203125 462.674804688 365.551757812 454.365234375 c 0
 357.412109375 446.506835938 347.68359375 428.525390625 340.87890625 399.048828125 c 2
 314.998046875 286.94921875 l 2
 308.200195312 257.50390625 309.520507812 239.272460938 314.110351562 231.000976562 c 0
 318.876953125 222.408203125 327.19921875 217.598632812 343.637695312 217.598632812 c 0
 358.3046875 217.598632812 384.837890625 219.116210938 397.427734375 273.649414062 c 2
 403.788085938 301.19921875 l 1
 488.337890625 301.19921875 l 1
 481.977539062 273.649414062 l 2
 472.3046875 231.750976562 454.028320312 197.267578125 424.92578125 173.309570312 c 0
 396.358398438 149.791992188 361.959960938 138.749023438 324.483398438 138.749023438 c 0
EndSplineSet
EndChar

StartChar: ordfeminine
Encoding: 170 170 107
Width: 301
GlyphClass: 2
Flags: MW
HStem: 404.75 88.3486<130.511 185.701> 539.649 77.9004<195.827 234.574 211.774 216.59> 658.4 87.3994<215.933 230.203>
VStem: 36.876 95.9502 45.4258 91.2002 175.576 95.9502
LayerCount: 2
Fore
SplineSet
109.46875 639.400390625 m 2xec
 125.638671875 709.439453125 182.302734375 745.799804688 245.18359375 745.799804688 c 0
 279.3203125 745.799804688 306.213867188 736.174804688 322.393554688 715.138671875 c 0
 338.514648438 694.180664062 341.5703125 665.393554688 333.814453125 631.798828125 c 2
 282.4921875 409.499023438 l 1
 189.391601562 409.499023438 l 1
 190.579101562 414.640625 l 1
 177.318359375 407.928710938 162.438476562 404.75 145.544921875 404.75 c 0
 115.477539062 404.75 91.7958984375 414.282226562 78.7587890625 434.9140625 c 0
 65.9951171875 455.111328125 64.6337890625 482.233398438 71.9677734375 514 c 0xf4
 85.7890625 573.864257812 135.465820312 617.549804688 211.774414062 617.549804688 c 2
 234.57421875 617.549804688 l 1
 238.9609375 636.549804688 l 2
 243.375 655.66796875 236.350585938 658.400390625 224.055664062 658.400390625 c 0
 207.809570312 658.400390625 203.24609375 650.565429688 201.107421875 641.299804688 c 2
 196.063476562 619.450195312 l 1
 104.86328125 619.450195312 l 1
 109.46875 639.400390625 l 2xec
182.092773438 493.098632812 m 0
 189.30859375 493.098632812 206.0859375 494.150390625 212.203125 520.649414062 c 2
 216.58984375 539.649414062 l 1
 202.33984375 539.649414062 l 2
 189.313476562 539.649414062 181.559570312 536.737304688 177.797851562 534.107421875 c 0
 175.1796875 532.278320312 171.099609375 527.779296875 168.356445312 515.899414062 c 0
 163.3984375 494.424804688 172.104492188 493.098632812 182.092773438 493.098632812 c 0
256.297851562 822.749023438 m 1024
EndSplineSet
EndChar

StartChar: guillemotleft
Encoding: 171 171 108
Width: 423
GlyphClass: 2
Flags: W
LayerCount: 2
Fore
SplineSet
254.249023438 484.681640625 m 1
 226.297851562 363.61328125 l 1
 112.374023438 268.900390625 l 1
 182.565429688 174.186523438 l 1
 154.615234375 53.1181640625 l 1
 -6.6337890625 268.900390625 l 1
 254.249023438 484.681640625 l 1
410.088867188 484.850585938 m 1
 382.110351562 363.662109375 l 1
 269.012695312 268.900390625 l 1
 338.35546875 174.138671875 l 1
 310.376953125 52.94921875 l 1
 150.181640625 268.900390625 l 1
 410.088867188 484.850585938 l 1
EndSplineSet
EndChar

StartChar: logicalnot
Encoding: 172 172 109
Width: 421
GlyphClass: 2
Flags: MW
HStem: 251.8 92.1504<38.4092 272.685 17.1348 392.759>
VStem: 298.126 98.7998
LayerCount: 2
Fore
SplineSet
272.684570312 251.799804688 m 1
 17.134765625 251.799804688 l 1
 38.4091796875 343.950195312 l 1
 392.758789062 343.950195312 l 1
 347.578125 148.25 l 1
 248.778320312 148.25 l 1
 272.684570312 251.799804688 l 1
EndSplineSet
EndChar

StartChar: uni00AD
Encoding: 173 173 110
Width: 378
GlyphClass: 2
Flags: MW
HStem: 300.25 95.9502<58.0713 331.37 35.9199 353.521>
VStem: 50.1758 295.45
LayerCount: 2
Fore
SplineSet
58.0712890625 396.200195312 m 1
 353.521484375 396.200195312 l 1
 331.370117188 300.25 l 1
 35.919921875 300.25 l 1
 58.0712890625 396.200195312 l 1
EndSplineSet
EndChar

StartChar: registered
Encoding: 174 174 111
Width: 471
GlyphClass: 2
Flags: MW
HStem: 292.65 64.5986<223.482 255.503> 625.149 64.6006<292.413 323.768>
VStem: 59.6758 67.4482 172.726 68.3994 256.325 68.4004 360.825 67.4512
LayerCount: 2
Fore
SplineSet
89.7236328125 492.150390625 m 0
 103.171875 550.401367188 130.6875 599.010742188 172.98046875 635.37890625 c 0
 215.290039062 671.760742188 265.181640625 689.75 319.643554688 689.75 c 0
 375.2421875 689.75 417.286132812 671.8515625 442.2421875 635.245117188 c 0
 467.048828125 598.859375 471.754882812 550.325195312 458.32421875 492.150390625 c 0
 444.748046875 433.344726562 417.366210938 384.33203125 375.358398438 347.624023438 c 0
 333.21484375 310.794921875 283.040039062 292.650390625 227.965820312 292.650390625 c 0
 172.890625 292.650390625 131.094726562 310.794921875 105.955078125 347.624023438 c 0
 80.8974609375 384.333007812 76.1474609375 433.344726562 89.7236328125 492.150390625 c 0
390.872070312 492.149414062 m 0
 401.0390625 536.184570312 397.403320312 568.30859375 382.403320312 590.967773438 c 0
 367.487304688 613.5 342.806640625 625.149414062 304.728515625 625.149414062 c 0
 265.989257812 625.149414062 235.84765625 613.336914062 210.864257812 590.654296875 c 0
 185.471679688 567.6015625 167.1875 535.534179688 157.170898438 492.149414062 c 0
 146.678710938 446.700195312 150.122070312 413.896484375 164.783203125 391.344726562 c 0
 179.336914062 368.95703125 204.084960938 357.249023438 242.87890625 357.249023438 c 0
 281.5625 357.249023438 311.692382812 369.165039062 336.76953125 392.143554688 c 0
 362.259765625 415.5 380.69921875 448.0859375 390.872070312 492.149414062 c 0
306.188476562 610.899414062 m 2
 332.825195312 610.899414062 380.102539062 601.865234375 364.642578125 534.899414062 c 0
 359.159179688 511.146484375 346.422851562 490.43359375 327.03125 476.287109375 c 1
 340.922851562 375.298828125 l 1
 316.395507812 375.298828125 l 1
 279.345703125 375.298828125 l 1
 267.282226562 375.298828125 l 1
 259.153320312 440.090820312 l 1
 244.1953125 375.298828125 l 1
 175.795898438 375.298828125 l 1
 230.188476562 610.899414062 l 1
 306.188476562 610.899414062 l 2
278.41015625 523.499023438 m 1
 283.16015625 523.499023438 l 2
 288.384765625 523.499023438 291.413085938 524.439453125 292.290039062 524.776367188 c 0
 292.862304688 525.661132812 294.915039062 529.151367188 296.4609375 535.848632812 c 0
 297.682617188 541.140625 297.481445312 544.161132812 297.333984375 545.098632812 c 0
 296.594726562 545.46484375 294.26953125 546.298828125 288.423828125 546.298828125 c 2
 283.673828125 546.298828125 l 1
 278.41015625 523.499023438 l 1
EndSplineSet
EndChar

StartChar: macron
Encoding: 175 175 112
Width: 498
GlyphClass: 2
Flags: MW
HStem: 562.45 92.1494<198.478 430.854 177.203 452.128>
VStem: 130.926 253.65
LayerCount: 2
Fore
SplineSet
198.477539062 654.599609375 m 1
 452.127929688 654.599609375 l 1
 430.853515625 562.450195312 l 1
 177.203125 562.450195312 l 1
 198.477539062 654.599609375 l 1
EndSplineSet
EndChar

StartChar: degree
Encoding: 176 176 113
Width: 356
GlyphClass: 2
Flags: MW
HStem: 431.35 81.7002<214.001 221.739> 618.5 81.6992<246.271 253.985>
VStem: 52.0762 84.5498 237.326 84.5498
LayerCount: 2
Fore
SplineSet
99.01171875 565.298828125 m 0
 107.685546875 602.869140625 128.30859375 635.756835938 159.948242188 661.462890625 c 0
 191.588867188 687.168945312 227.485351562 700.19921875 265.055664062 700.19921875 c 0
 302.625 700.19921875 332.505859375 687.168945312 352.27734375 661.462890625 c 0
 372.047851562 635.756835938 377.485351562 602.869140625 368.811523438 565.298828125 c 0
 360.137695312 527.73046875 339.528320312 494.943359375 307.877929688 469.524414062 c 0
 276.296875 444.163085938 240.491210938 431.349609375 202.987304688 431.349609375 c 0
 165.482421875 431.349609375 135.592773438 444.163085938 115.72265625 469.524414062 c 0
 95.80859375 494.943359375 90.337890625 527.73046875 99.01171875 565.298828125 c 0
284.26171875 565.299804688 m 0
 288.088867188 581.875976562 286.056640625 593.91796875 278.880859375 603.861328125 c 0
 271.772460938 613.71484375 261.775390625 618.5 246.194335938 618.5 c 0
 230.612304688 618.5 218.40625 613.71484375 206.747070312 603.861328125 c 0
 194.981445312 593.91796875 187.388671875 581.875976562 183.561523438 565.299804688 c 0
 179.733398438 548.716796875 181.815429688 536.932617188 188.94140625 527.362304688 c 0
 196.076171875 517.783203125 206.153320312 513.049804688 221.849609375 513.049804688 c 0
 237.544921875 513.049804688 249.807617188 517.783203125 261.364257812 527.362304688 c 0
 272.91015625 536.932617188 280.43359375 548.716796875 284.26171875 565.299804688 c 0
EndSplineSet
EndChar

StartChar: plusminus
Encoding: 177 177 114
Width: 421
GlyphClass: 2
Flags: MW
HStem: 23.7998 96.9004<-15.0322 320.746 -37.4043 343.118> 269.85 96.9004<41.7725 150.502 19.4014 172.873 268.823 377.552 41.7725 246.452>
VStem: 171.776 95.9502
LayerCount: 2
Fore
SplineSet
399.922851562 366.75 m 1
 377.551757812 269.849609375 l 1
 246.452148438 269.849609375 l 1
 216.404296875 139.700195312 l 1
 120.454101562 139.700195312 l 1
 150.501953125 269.849609375 l 1
 19.4013671875 269.849609375 l 1
 41.7724609375 366.75 l 1
 172.873046875 366.75 l 1
 202.920898438 496.900390625 l 1
 298.87109375 496.900390625 l 1
 268.823242188 366.75 l 1
 399.922851562 366.75 l 1
-15.0322265625 120.700195312 m 1
 343.118164062 120.700195312 l 1
 320.74609375 23.7998046875 l 1
 -37.404296875 23.7998046875 l 1
 -15.0322265625 120.700195312 l 1
EndSplineSet
EndChar

StartChar: uni00B2
Encoding: 178 178 115
Width: 279
GlyphClass: 2
Flags: MW
HStem: 409.5 93.0996<189.918 273.942>
VStem: 34.9766 97.8496 163.227 99.75
LayerCount: 2
Fore
SplineSet
262.000976562 847.450195312 m 0
 331.046875 847.450195312 364.299804688 800.87890625 349.170898438 735.349609375 c 2
 343.907226562 712.549804688 l 2
 336.796875 681.751953125 323.791992188 655.489257812 287.118164062 614.036132812 c 0
 287.038085938 613.9453125 224.76953125 542.556640625 189.91796875 502.599609375 c 1
 295.436523438 502.599609375 l 1
 273.942382812 409.5 l 1
 44.0419921875 409.5 l 1
 62.3134765625 488.641601562 l 1
 214.174804688 661.813476562 l 2
 235.620117188 686.6796875 240.954101562 698.672851562 244.595703125 714.450195312 c 2
 248.982421875 733.450195312 l 2
 254.02734375 755.299804688 244.060546875 755.299804688 238.827148438 755.299804688 c 0
 231.427734375 755.299804688 229.25 753.61328125 226.465820312 750.227539062 c 0
 223.727539062 746.896484375 220.063476562 739.864257812 217.485351562 728.700195312 c 2
 208.712890625 690.700195312 l 1
 110.86328125 690.700195312 l 1
 121.390625 736.299804688 l 2
 136.513671875 801.803710938 191.639648438 847.450195312 262.000976562 847.450195312 c 0
EndSplineSet
EndChar

StartChar: uni00B3
Encoding: 179 179 116
Width: 276
GlyphClass: 2
Flags: MW
HStem: 403.8 92.1514<172.307 178.607 172.307 188.502> 585.251 92.1504<179.044 191.97 157.77 213.244>
VStem: 31.1777 96.9004 161.328 99.749
LayerCount: 2
Fore
SplineSet
297.485351562 519.700195312 m 2
 280.803710938 447.444335938 222.176757812 403.799804688 154.827148438 403.799804688 c 0
 120.772460938 403.799804688 93.970703125 413.196289062 77.9814453125 433.986328125 c 0
 62.171875 454.540039062 59.0009765625 482.516601562 66.4892578125 514.951171875 c 2
 75.919921875 555.80078125 l 1
 172.8203125 555.80078125 l 1
 163.828125 516.850585938 l 2
 159.002929688 495.951171875 169.4609375 495.951171875 175.15234375 495.951171875 c 0
 182.0625 495.951171875 192.252929688 495.951171875 198.39453125 522.55078125 c 2
 206.290039062 556.750976562 l 2
 209.51171875 570.705078125 208.166992188 578.03125 206.668945312 580.546875 c 0
 205.454101562 582.588867188 202.35546875 585.250976562 191.969726562 585.250976562 c 2
 157.76953125 585.250976562 l 1
 179.043945312 677.401367188 l 1
 213.244140625 677.401367188 l 2
 221.653320312 677.401367188 232.305664062 677.666992188 237.946289062 702.100585938 c 2
 244.526367188 730.600585938 l 2
 246.955078125 741.123046875 246.438476562 747.561523438 245.290039062 750.526367188 c 0
 244.140625 753.494140625 242.711914062 755.30078125 235.028320312 755.30078125 c 0
 229.14453125 755.30078125 219.829101562 755.30078125 215.00390625 734.401367188 c 2
 206.01171875 695.451171875 l 1
 108.161132812 695.451171875 l 1
 117.811523438 737.250976562 l 2
 132.899414062 802.606445312 186.77734375 847.451171875 257.251953125 847.451171875 c 0
 290.84765625 847.451171875 317.392578125 837.749023438 333.512695312 816.790039062 c 0
 349.6328125 795.831054688 352.689453125 767.045898438 344.932617188 733.451171875 c 2
 339.668945312 710.651367188 l 2
 330.233398438 669.782226562 311.443359375 648.313476562 294.775390625 635.43359375 c 1
 305.956054688 623.556640625 316.686523438 602.87109375 305.161132812 552.950195312 c 2
 297.485351562 519.700195312 l 2
EndSplineSet
EndChar

StartChar: acute
Encoding: 180 180 117
Width: 498
GlyphClass: 2
Flags: MW
HStem: 548.2 156.75<196.976 459.735 196.976 459.735>
VStem: 153.988 226.57
LayerCount: 2
Fore
SplineSet
343.741210938 704.950195312 m 1
 459.735351562 704.950195312 l 1
 291.09765625 548.200195312 l 1
 196.975585938 548.200195312 l 1
 343.741210938 704.950195312 l 1
EndSplineSet
EndChar

StartChar: uni00B5
Encoding: 181 181 118
Width: 414
GlyphClass: 2
Flags: MW
HStem: -6.59961 91.1992<110.524 160.41> 1 21G<193.883 289.832 193.883 193.883>
VStem: 58.7266 97.8496 274.376 98.7998
LayerCount: 2
Fore
SplineSet
197.59375 17.07421875 m 1x70
 182.169921875 7.158203125 154.384765625 -6.599609375 118.978515625 -6.599609375 c 0
 102.069335938 -6.599609375 87.080078125 -3.546875 74.5712890625 2.6826171875 c 1
 40.4072265625 -145.299804688 l 1
 -58.392578125 -145.299804688 l 1
 96.669921875 526.349609375 l 1
 194.51953125 526.349609375 l 1
 108.763671875 154.900390625 l 2
 102.795898438 129.051757812 105.194335938 112.176757812 112.720703125 101.505859375 c 0
 120.618164062 90.3076171875 132.498046875 84.599609375 151.43359375 84.599609375 c 0xb0
 169.385742188 84.599609375 183.76953125 90.337890625 197.556640625 102.334960938 c 0
 210.901367188 113.947265625 220.954101562 130.606445312 226.563476562 154.900390625 c 2
 312.319335938 526.349609375 l 1
 411.119140625 526.349609375 l 1
 289.83203125 1 l 1
 193.8828125 1 l 1
 197.59375 17.07421875 l 1x70
EndSplineSet
EndChar

StartChar: paragraph
Encoding: 182 182 119
Width: 516
GlyphClass: 2
Flags: MW
HStem: 670.7 20G<340.763 521.263 521.263 521.263>
VStem: 59.6758 254.601 217.376 96.9004 348.477 96.8994
LayerCount: 2
Fore
SplineSet
85.5556640625 474.099609375 m 0xd0
 112.735351562 591.826171875 212.344726562 690.700195312 340.762695312 690.700195312 c 2
 521.262695312 690.700195312 l 1
 328.6953125 -143.400390625 l 1
 231.795898438 -143.400390625 l 1
 402.2109375 594.75 l 1
 368.010742188 594.75 l 1
 197.595703125 -143.400390625 l 1
 100.6953125 -143.400390625 l 1
 193.520507812 258.671875 l 1xb0
 150.379882812 266.41015625 118.004882812 289.125 98.123046875 325.920898438 c 0
 76.1376953125 366.612304688 72.2724609375 416.563476562 85.5556640625 474.099609375 c 0xd0
EndSplineSet
EndChar

StartChar: periodcentered
Encoding: 183 183 120
Width: 172
GlyphClass: 2
Flags: MW
HStem: 215.7 118.75<35.2656 116.149 7.84961 143.565>
VStem: 41.626 108.3
LayerCount: 2
Fore
SplineSet
35.265625 334.450195312 m 1
 143.565429688 334.450195312 l 1
 116.149414062 215.700195312 l 1
 7.849609375 215.700195312 l 1
 35.265625 334.450195312 l 1
EndSplineSet
EndChar

StartChar: cedilla
Encoding: 184 184 121
Width: 498
GlyphClass: 2
Flags: MW
HStem: -143.4 190<52.1465 273.25 52.1465 273.25>
VStem: 168.827 177.238
LayerCount: 2
Fore
SplineSet
273.25 46.599609375 m 1
 162.189453125 -143.400390625 l 1
 52.146484375 -143.400390625 l 1
 175.950195312 46.599609375 l 1
 273.25 46.599609375 l 1
EndSplineSet
EndChar

StartChar: uni00B9
Encoding: 185 185 122
Width: 209
GlyphClass: 2
Flags: MW
VStem: 81.5264 101.649
LayerCount: 2
Fore
SplineSet
92.8896484375 666.345703125 m 1
 120.381835938 785.427734375 l 1
 203.228515625 840.799804688 l 1
 293.715820312 840.799804688 l 1
 194.141601562 409.5 l 1
 92.4921875 409.5 l 1
 162.756835938 713.845703125 l 1
 92.8896484375 666.345703125 l 1
EndSplineSet
EndChar

StartChar: ordmasculine
Encoding: 186 186 123
Width: 302
GlyphClass: 2
Flags: MW
HStem: 404.75 90.25<186.16 188.232> 656.5 89.2998<231.022 233.025>
VStem: 41.626 95.9502 182.227 95.9492
LayerCount: 2
Fore
SplineSet
170.245117188 404.75 m 0
 119.080078125 404.75 56.3125 425.614257812 81.7626953125 535.849609375 c 2
 100.185546875 615.650390625 l 2
 109.895507812 657.706054688 126.625976562 691.563476562 153.936523438 714.079101562 c 0
 180.46875 735.952148438 213.061523438 745.799804688 248.983398438 745.799804688 c 0
 284.891601562 745.799804688 312.862304688 735.959960938 328.9921875 713.965820312 c 0
 345.520507812 691.428710938 346.43359375 657.659179688 336.735351562 615.650390625 c 2
 318.3125 535.849609375 l 2
 308.608398438 493.818359375 292.059570312 459.971679688 265.194335938 437.168945312 c 0
 238.853515625 414.813476562 206.21875 404.75 170.245117188 404.75 c 0
222.143554688 534.900390625 m 2
 241.005859375 616.599609375 l 2
 244.522460938 631.83203125 244.381835938 642.194335938 242.604492188 647.823242188 c 0
 240.638671875 654.047851562 237.684570312 656.5 228.366210938 656.5 c 0
 218.524414062 656.5 214.1328125 653.856445312 209.240234375 647.670898438 c 0
 204.817382812 642.077148438 199.86328125 631.793945312 196.35546875 616.599609375 c 2
 177.493164062 534.900390625 l 2
 173.985351562 519.706054688 174.19140625 509.422851562 176.032226562 503.829101562 c 0
 178.068359375 497.643554688 181.239257812 495 191.081054688 495 c 0
 200.399414062 495 204.485351562 497.452148438 209.326171875 503.676757812 c 0
 213.702148438 509.305664062 218.626953125 519.66796875 222.143554688 534.900390625 c 2
260.098632812 822.75 m 1024
EndSplineSet
EndChar

StartChar: guillemotright
Encoding: 187 187 124
Width: 423
GlyphClass: 2
Flags: W
LayerCount: 2
Fore
SplineSet
59.0986328125 363.61328125 m 1
 87.0498046875 484.681640625 l 1
 248.297851562 268.900390625 l 1
 -12.583984375 53.1181640625 l 1
 15.3662109375 174.186523438 l 1
 129.290039062 268.900390625 l 1
 59.0986328125 363.61328125 l 1
215.848632812 363.61328125 m 1
 243.838867188 484.850585938 l 1
 404.032226562 268.900390625 l 1
 144.126953125 52.94921875 l 1
 172.116210938 174.186523438 l 1
 286.040039062 268.900390625 l 1
 215.848632812 363.61328125 l 1
EndSplineSet
EndChar

StartChar: onequarter
Encoding: 188 188 125
Width: 627
GlyphClass: 3
Flags: MW
HStem: 1 21G<40.3623 40.3623 40.3623 136.561 402.883 402.883 402.883 503.582> 71.2998 93.1006<291.812 440.607 541.307 549.263 420.477 519.812> 516.245 21G<58.2363 58.2363> 670.7 20G<168.575 259.062 259.062 259.062 447.484 543.684 543.684 543.684>
VStem: 81.5264 101.649 486.227 100.699
LayerCount: 2
Fore
SplineSet
58.236328125 516.245117188 m 1
 85.728515625 635.328125 l 1
 168.575195312 690.700195312 l 1
 259.0625 690.700195312 l 1
 159.489257812 259.400390625 l 1
 57.83984375 259.400390625 l 1
 128.102539062 563.745117188 l 1
 58.236328125 516.245117188 l 1
40.3623046875 1 m 1
 447.484375 690.700195312 l 1
 543.68359375 690.700195312 l 1
 136.560546875 1 l 1
 40.3623046875 1 l 1
541.306640625 164.400390625 m 1
 570.756835938 164.400390625 l 1
 549.262695312 71.2998046875 l 1
 519.8125 71.2998046875 l 1
 503.58203125 1 l 1
 402.8828125 1 l 1
 419.11328125 71.2998046875 l 1
 291.8125 71.2998046875 l 1
 309.98828125 150.029296875 l 1
 467.245117188 432.299804688 l 1
 569.725585938 432.299804688 l 1
 471.284179688 255.599609375 l 1
 562.361328125 255.599609375 l 1
 541.306640625 164.400390625 l 1
440.607421875 164.400390625 m 1
 454.852539062 226.10546875 l 1
 420.4765625 164.400390625 l 1
 440.607421875 164.400390625 l 1
EndSplineSet
Ligature2: "'frac' Diagonal Fractions lookup 2 subtable" one slash four
EndChar

StartChar: onehalf
Encoding: 189 189 126
Width: 635
GlyphClass: 3
Flags: MW
HStem: 1 93.0996<449.958 533.982> 516.245 21G<58.2363 58.2363> 670.7 20G<168.575 259.062 259.062 259.062 447.484 543.684 543.684 543.684>
VStem: 81.5264 101.649 389.326 97.8496 517.576 99.75
LayerCount: 2
Fore
SplineSet
58.236328125 516.245117188 m 1
 85.728515625 635.328125 l 1
 168.575195312 690.700195312 l 1
 259.0625 690.700195312 l 1
 159.489257812 259.400390625 l 1
 57.83984375 259.400390625 l 1
 128.102539062 563.745117188 l 1
 58.236328125 516.245117188 l 1
447.484375 690.700195312 m 1
 543.68359375 690.700195312 l 1
 136.560546875 1 l 1
 40.3623046875 1 l 1
 447.484375 690.700195312 l 1
522.041992188 438.950195312 m 0
 591.086914062 438.950195312 624.33984375 392.37890625 609.2109375 326.849609375 c 2
 603.947265625 304.049804688 l 2
 596.840820312 273.26953125 583.856445312 247.02734375 547.158203125 205.536132812 c 0
 547.079101562 205.446289062 484.810546875 134.057617188 449.958007812 94.099609375 c 1
 555.4765625 94.099609375 l 1
 533.982421875 1 l 1
 304.08203125 1 l 1
 322.353515625 80.1416015625 l 1
 474.215820312 253.313476562 l 2
 495.661132812 278.1796875 500.993164062 290.172851562 504.635742188 305.950195312 c 2
 509.022460938 324.950195312 l 2
 514.067382812 346.799804688 504.100585938 346.799804688 498.8671875 346.799804688 c 0
 491.46875 346.799804688 489.290039062 345.11328125 486.505859375 341.727539062 c 0
 483.767578125 338.396484375 480.102539062 331.364257812 477.525390625 320.200195312 c 2
 468.752929688 282.200195312 l 1
 370.903320312 282.200195312 l 1
 381.430664062 327.799804688 l 2
 396.552734375 393.303710938 451.6796875 438.950195312 522.041992188 438.950195312 c 0
EndSplineSet
Ligature2: "'frac' Diagonal Fractions lookup 2 subtable" one slash two
EndChar

StartChar: threequarters
Encoding: 190 190 127
Width: 652
GlyphClass: 3
Flags: MW
HStem: 0.999023 21G<88.8135 88.8135 88.8135 185.013 428.534 428.534 428.534 529.234> 71.2988 93.1006<317.465 466.258 566.958 574.915 446.127 545.465> 253.699 92.1504<137.652 143.953 137.652 153.842> 435.151 92.1494<144.39 157.315 123.115 178.59>
VStem: 31.1768 96.9004 161.327 99.749 511.878 100.7
LayerCount: 2
Fore
SplineSet
262.831054688 369.599609375 m 2
 246.146484375 297.333007812 187.508789062 253.69921875 120.174804688 253.69921875 c 0
 86.1201171875 253.69921875 59.318359375 263.094726562 43.3291015625 283.884765625 c 0
 27.5205078125 304.438476562 24.3466796875 332.415039062 31.8349609375 364.849609375 c 2
 41.265625 405.700195312 l 1
 138.166015625 405.700195312 l 1
 129.173828125 366.75 l 2
 124.348632812 345.849609375 134.806640625 345.849609375 140.498046875 345.849609375 c 0
 147.408203125 345.849609375 157.598632812 345.849609375 163.740234375 372.450195312 c 2
 171.635742188 406.650390625 l 2
 174.85546875 420.598632812 173.516601562 427.923828125 172.014648438 430.446289062 c 0
 170.799804688 432.48828125 167.701171875 435.151367188 157.315429688 435.151367188 c 2
 123.115234375 435.151367188 l 1
 144.389648438 527.30078125 l 1
 178.58984375 527.30078125 l 2
 186.999023438 527.30078125 197.650390625 527.56640625 203.291992188 552.000976562 c 2
 209.872070312 580.500976562 l 2
 212.30078125 591.0234375 211.784179688 597.4609375 210.635742188 600.426757812 c 0
 209.486328125 603.39453125 208.057617188 605.201171875 200.374023438 605.201171875 c 0
 194.490234375 605.201171875 185.174804688 605.201171875 180.349609375 584.30078125 c 2
 171.357421875 545.350585938 l 1
 73.5068359375 545.350585938 l 1
 83.1572265625 587.151367188 l 2
 98.2451171875 652.505859375 152.123046875 697.350585938 222.59765625 697.350585938 c 0
 256.193359375 697.350585938 282.73828125 687.6484375 298.859375 666.690429688 c 0
 314.978515625 645.731445312 318.03515625 616.946289062 310.278320312 583.350585938 c 2
 305.014648438 560.55078125 l 2
 295.580078125 519.682617188 276.7890625 498.212890625 260.12109375 485.333984375 c 1
 271.301757812 473.456054688 282.032226562 452.770507812 270.506835938 402.849609375 c 2
 262.831054688 369.599609375 l 2
88.8134765625 0.9990234375 m 1
 495.935546875 690.69921875 l 1
 592.133789062 690.69921875 l 1
 185.012695312 0.9990234375 l 1
 88.8134765625 0.9990234375 l 1
566.958007812 164.399414062 m 1
 596.408203125 164.399414062 l 1
 574.915039062 71.298828125 l 1
 545.46484375 71.298828125 l 1
 529.234375 0.9990234375 l 1
 428.534179688 0.9990234375 l 1
 444.764648438 71.298828125 l 1
 317.46484375 71.298828125 l 1
 335.640625 150.028320312 l 1
 492.895507812 432.298828125 l 1
 595.376953125 432.298828125 l 1
 496.935546875 255.598632812 l 1
 588.013671875 255.598632812 l 1
 566.958007812 164.399414062 l 1
466.2578125 164.399414062 m 1
 480.50390625 226.104492188 l 1
 446.126953125 164.399414062 l 1
 466.2578125 164.399414062 l 1
EndSplineSet
Ligature2: "'frac' Diagonal Fractions lookup 2 subtable" three slash four
EndChar

StartChar: questiondown
Encoding: 191 191 128
Width: 366
GlyphClass: 2
Flags: MW
HStem: -154.8 95.9512<88.5322 104.026> 400 126.35<178.369 257.5 149.199 286.67>
VStem: 37.8262 103.549 140.426 108.301 249.675 103.733
LayerCount: 2
Fore
SplineSet
178.369140625 526.349609375 m 1xd8
 286.669921875 526.349609375 l 1
 257.5 400 l 1
 149.19921875 400 l 1
 178.369140625 526.349609375 l 1xd8
61.7607421875 17.1513671875 m 0xe8
 44.6806640625 -56.830078125 79.6494140625 -58.8486328125 97.4150390625 -58.8486328125 c 0
 120.830078125 -58.8486328125 133.9375 -51.82421875 143.426757812 -39.9609375 c 0
 154.4765625 -26.1455078125 166.336914062 1.0244140625 175.54296875 40.900390625 c 2
 179.491210938 58 l 1
 283.224609375 58 l 1
 272.923828125 15.349609375 258.708984375 -43.509765625 217.137695312 -91.693359375 c 0
 180.653320312 -133.98046875 131.838867188 -154.799804688 76.2138671875 -154.799804688 c 0
 27.1630859375 -154.799804688 -9.7265625 -139.590820312 -30.275390625 -107.616210938 c 0
 -50.5029296875 -76.142578125 -53.5458984375 -33.77734375 -41.7890625 17.150390625 c 0
 -30.201171875 67.3408203125 -11.1552734375 100.4765625 42.3740234375 165.541992188 c 2
 87.08203125 219.579101562 l 2
 114.080078125 252.62109375 121.373046875 267.131835938 129.01953125 300.25 c 2
 140.643554688 350.599609375 l 1
 244.193359375 350.599609375 l 1
 231.69140625 296.450195312 l 2
 219.92578125 245.484375 206.038085938 221.944335938 165.934570312 174.555664062 c 0
 165.8515625 174.456054688 113.397460938 111.782226562 113.397460938 111.782226562 c 2
 79.9248046875 72.111328125 69.4521484375 50.4697265625 61.7607421875 17.1513671875 c 0xe8
EndSplineSet
EndChar

StartChar: Agrave
Encoding: 192 192 129
Width: 460
GlyphClass: 2
Flags: MW
HStem: 1 21G<-77.4033 -77.4033 -77.4033 30.5371 279.328 279.328 279.328 388.219> 168.2 94.0498<156.386 274.107 156.386 276.129 110.938 274.107> 670.7 20G<269.745 359.53 359.53 359.53>
LayerCount: 2
Fore
SplineSet
-77.4033203125 1 m 1
 269.745117188 690.700195312 l 1
 359.530273438 690.700195312 l 1
 388.21875 1 l 1
 279.328125 1 l 1
 276.12890625 168.200195312 l 1
 110.938476562 168.200195312 l 1
 30.537109375 1 l 1
 -77.4033203125 1 l 1
156.385742188 262.25 m 1
 274.107421875 262.25 l 1
 269.763671875 498.38671875 l 1
 156.385742188 262.25 l 1
214.063476562 869.299804688 m 1
 330.056640625 869.299804688 l 1
 404.444335938 712.549804688 l 1
 310.322265625 712.549804688 l 1
 214.063476562 869.299804688 l 1
EndSplineSet
EndChar

StartChar: Aacute
Encoding: 193 193 130
Width: 460
GlyphClass: 2
Flags: MW
HStem: 1 21G<-77.4033 -77.4033 -77.4033 30.5371 279.328 279.328 279.328 388.219> 168.2 94.0498<156.386 274.107 156.386 276.129 110.938 274.107> 670.7 20G<269.745 359.53 359.53 359.53>
LayerCount: 2
Fore
SplineSet
-77.4033203125 1 m 1
 269.745117188 690.700195312 l 1
 359.530273438 690.700195312 l 1
 388.21875 1 l 1
 279.328125 1 l 1
 276.12890625 168.200195312 l 1
 110.938476562 168.200195312 l 1
 30.537109375 1 l 1
 -77.4033203125 1 l 1
156.385742188 262.25 m 1
 274.107421875 262.25 l 1
 269.763671875 498.38671875 l 1
 156.385742188 262.25 l 1
489.126953125 869.299804688 m 1
 320.491210938 712.549804688 l 1
 226.369140625 712.549804688 l 1
 373.133789062 869.299804688 l 1
 489.126953125 869.299804688 l 1
EndSplineSet
EndChar

StartChar: Acircumflex
Encoding: 194 194 131
Width: 460
GlyphClass: 2
Flags: MW
HStem: 1 21G<-77.4033 -77.4033 -77.4033 30.5371 279.328 279.328 279.328 388.219> 168.2 94.0498<156.386 274.107 156.386 276.129 110.938 274.107> 670.7 20G<269.745 359.53 359.53 359.53>
LayerCount: 2
Fore
SplineSet
-77.4033203125 1 m 1
 269.745117188 690.700195312 l 1
 359.530273438 690.700195312 l 1
 388.21875 1 l 1
 279.328125 1 l 1
 276.12890625 168.200195312 l 1
 110.938476562 168.200195312 l 1
 30.537109375 1 l 1
 -77.4033203125 1 l 1
156.385742188 262.25 m 1
 274.107421875 262.25 l 1
 269.763671875 498.38671875 l 1
 156.385742188 262.25 l 1
396.018554688 875 m 1
 475.67578125 704.950195312 l 1
 370.301757812 704.950195312 l 1
 336.08203125 777.890625 l 1
 267.374023438 704.950195312 l 1
 162.642578125 704.950195312 l 1
 317.25 875 l 1
 396.018554688 875 l 1
EndSplineSet
EndChar

StartChar: Atilde
Encoding: 195 195 132
Width: 460
GlyphClass: 2
Flags: MW
HStem: 1 21G<-77.4033 -77.4033 -77.4033 30.5371 279.328 279.328 279.328 388.219> 168.2 94.0498<156.386 274.107 156.386 276.129 110.938 274.107> 670.7 20G<269.745 359.53 359.53 359.53> 708.75 97.8496<353.047 395.714> 742 98.7998<275.238 315.556>
LayerCount: 2
Fore
SplineSet
-77.4033203125 1 m 1xe0
 269.745117188 690.700195312 l 1
 359.530273438 690.700195312 l 1
 388.21875 1 l 1
 279.328125 1 l 1
 276.12890625 168.200195312 l 1
 110.938476562 168.200195312 l 1
 30.537109375 1 l 1
 -77.4033203125 1 l 1xe0
156.385742188 262.25 m 1
 274.107421875 262.25 l 1
 269.763671875 498.38671875 l 1
 156.385742188 262.25 l 1
306.068359375 840.799804688 m 0xe8
 325.04296875 840.799804688 337.022460938 837 358.224609375 820.994140625 c 0
 376.721679688 807.030273438 383.6484375 806.599609375 391.271484375 806.599609375 c 0
 400.15625 806.599609375 405.342773438 806.599609375 437.322265625 835.818359375 c 2
 475.3984375 870.607421875 l 1
 447.99609375 751.913085938 l 1
 421.673828125 727.381835938 400.198242188 708.75 362.981445312 708.75 c 0xf0
 343.112304688 708.75 332.491210938 712.53125 306.94921875 729.041992188 c 0
 290.731445312 739.715820312 287.260742188 742 280.405273438 742 c 0
 270.071289062 742 260.5390625 740.615234375 230.711914062 712.182617188 c 2
 191.811523438 675.099609375 l 1
 220.233398438 798.208984375 l 1
 250.15625 823.606445312 271.6796875 840.799804688 306.068359375 840.799804688 c 0xe8
EndSplineSet
EndChar

StartChar: Adieresis
Encoding: 196 196 133
Width: 460
GlyphClass: 2
Flags: MW
HStem: 1 21G<-77.4033 -77.4033 -77.4033 30.5371 279.328 279.328 279.328 388.219> 168.2 94.0498<156.386 274.107 156.386 276.129 110.938 274.107> 670.7 20G<269.745 359.53 359.53 359.53> 715.4 115.899<222.173 300.865 195.415 327.623 222.173 339.815 366.573 445.265>
VStem: 113.826 105.45 258.227 105.449
LayerCount: 2
Fore
SplineSet
-77.4033203125 1 m 1
 269.745117188 690.700195312 l 1
 359.530273438 690.700195312 l 1
 388.21875 1 l 1
 279.328125 1 l 1
 276.12890625 168.200195312 l 1
 110.938476562 168.200195312 l 1
 30.537109375 1 l 1
 -77.4033203125 1 l 1
156.385742188 262.25 m 1
 274.107421875 262.25 l 1
 269.763671875 498.38671875 l 1
 156.385742188 262.25 l 1
222.172851562 831.299804688 m 1
 327.623046875 831.299804688 l 1
 300.865234375 715.400390625 l 1
 195.415039062 715.400390625 l 1
 222.172851562 831.299804688 l 1
366.573242188 831.299804688 m 1
 472.022460938 831.299804688 l 1
 445.264648438 715.400390625 l 1
 339.815429688 715.400390625 l 1
 366.573242188 831.299804688 l 1
EndSplineSet
EndChar

StartChar: Aring
Encoding: 197 197 134
Width: 460
GlyphClass: 2
Flags: MW
HStem: 1 21G<279.328 388.219 279.328 279.328> 168.201 94.0498<110.938 274.107> 783.802 70.2988<331.08 340.668>
VStem: 137.576 72.2002 267.727 73.1494
LayerCount: 2
Fore
SplineSet
431.018554688 752.451171875 m 0
 427.041015625 735.22265625 412.006835938 689.9765625 360.62890625 664.286132812 c 1
 388.21875 1 l 1
 279.328125 1 l 1
 276.12890625 168.200195312 l 1
 221.065429688 168.200195312 166.001953125 168.201171875 110.938476562 168.201171875 c 1
 30.5380859375 1.0009765625 l 1
 -77.40234375 1.0009765625 l 1
 256.557617188 664.499023438 l 1
 244.484375 672.688476562 215.299804688 698.659179688 227.71875 752.451171875 c 0
 240.973632812 809.86328125 293.654296875 854.100585938 351.88671875 854.100585938 c 0
 411.76953125 854.100585938 444.186523438 809.487304688 431.018554688 752.451171875 c 0
321.400390625 722.05078125 m 0
 331.583984375 722.05078125 338.400390625 724.86328125 344.678710938 730.1171875 c 0
 351.150390625 735.53125 355.484375 742.120117188 357.869140625 752.451171875 c 0
 360.252929688 762.775390625 359.017578125 769.6640625 354.9453125 775.478515625 c 0
 351.091796875 780.982421875 345.6796875 783.801757812 335.657226562 783.801757812 c 0
 326.501953125 783.801757812 320.083007812 781.166015625 313.477539062 775.48046875 c 0
 306.716796875 769.662109375 302.301757812 762.771484375 299.918945312 752.451171875 c 0
 297.534179688 742.120117188 298.825195312 735.53125 302.795898438 730.1171875 c 0
 306.778320312 724.688476562 312.076171875 722.05078125 321.400390625 722.05078125 c 0
156.385742188 262.250976562 m 1
 274.107421875 262.250976562 l 1
 269.763671875 498.387695312 l 1
 156.385742188 262.250976562 l 1
EndSplineSet
EndChar

StartChar: AE
Encoding: 198 198 135
Width: 677
GlyphClass: 2
Flags: MW
HStem: 1 95.9502<380.385 572.933> 164.4 95<198.751 293.357 136.468 315.29> 303.1 96.9004<450.35 611.327 427.978 633.699> 594.75 95.9502<495.311 710.011 495.311 495.311>
VStem: 338.977 102.6
LayerCount: 2
Fore
SplineSet
-81.1357421875 1 m 1
 378.963867188 690.700195312 l 1
 732.163085938 690.700195312 l 1
 710.010742188 594.75 l 1
 495.310546875 594.75 l 1
 450.349609375 400 l 1
 633.69921875 400 l 1
 611.327148438 303.099609375 l 1
 427.977539062 303.099609375 l 1
 380.384765625 96.9501953125 l 1
 595.084960938 96.9501953125 l 1
 572.932617188 1 l 1
 255.6328125 1 l 1
 293.357421875 164.400390625 l 1
 136.467773438 164.400390625 l 1
 28.443359375 1 l 1
 -81.1357421875 1 l 1
315.290039062 259.400390625 m 1
 377.907226562 530.62890625 l 1
 198.750976562 259.400390625 l 1
 315.290039062 259.400390625 l 1
EndSplineSet
EndChar

StartChar: Ccedilla
Encoding: 199 199 136
Width: 476
GlyphClass: 2
Flags: MW
HStem: 602.35 96.9004<296.912 318.455>
VStem: 52.0752 103.549 338.024 101.649
LayerCount: 2
Fore
SplineSet
185.998046875 90.2998046875 m 0
 238.334960938 90.2998046875 281.94921875 119.110351562 300.739257812 200.5 c 2
 306.661132812 226.150390625 l 1
 408.310546875 226.150390625 l 1
 402.168945312 199.549804688 l 2
 389.333984375 143.952148438 366.694335938 98.0400390625 332.634765625 63.4072265625 c 0
 301.677734375 31.9296875 264.840820312 10.8359375 223.9140625 0.7421875 c 1
 139.365234375 -143.400390625 l 1
 29.3466796875 -143.400390625 l 1
 121.059570312 -2.6396484375 l 1
 80.6337890625 4.978515625 49.4833984375 24.2626953125 29.240234375 55.2275390625 c 0
 4.966796875 92.3583984375 1.84765625 144.440429688 16.763671875 209.049804688 c 2
 79.9296875 482.650390625 l 2
 95.8876953125 551.772460938 125.518554688 606.66796875 171.056640625 644.24609375 c 0
 215.7421875 681.122070312 268.188476562 699.25 325.635742188 699.25 c 0
 381.14453125 699.25 424.39453125 681.9765625 452.716796875 646.975585938 c 0
 481.806640625 611.021484375 486.8125 557.938476562 471.404296875 491.200195312 c 2
 465.482421875 465.549804688 l 1
 361.9375 465.549804688 l 1
 365.879882812 482.645507812 l 1
 367.416015625 489.299804688 l 2
 377.295898438 532.096679688 374.364257812 560.268554688 363.111328125 576.5 c 0
 351.250976562 593.604492188 332.6953125 602.349609375 304.213867188 602.349609375 c 0
 253.993164062 602.349609375 206.166015625 580.919921875 181.943359375 476 c 2
 120.09375 208.099609375 l 2
 95.7060546875 102.465820312 146.001953125 90.2998046875 185.998046875 90.2998046875 c 0
EndSplineSet
EndChar

StartChar: Egrave
Encoding: 200 200 137
Width: 404
GlyphClass: 2
Flags: MW
HStem: 1 95.9502<101.085 302.183> 303.1 96.9004<171.05 340.577 148.678 362.949> 594.75 95.9502<216.011 439.261 216.011 216.011>
VStem: 59.6758 102.601
LayerCount: 2
Fore
SplineSet
101.084960938 96.9501953125 m 1
 324.334960938 96.9501953125 l 1
 302.182617188 1 l 1
 -23.66796875 1 l 1
 135.5625 690.700195312 l 1
 461.413085938 690.700195312 l 1
 439.260742188 594.75 l 1
 216.010742188 594.75 l 1
 171.049804688 400 l 1
 362.94921875 400 l 1
 340.577148438 303.099609375 l 1
 148.677734375 303.099609375 l 1
 101.084960938 96.9501953125 l 1
196.962890625 869.299804688 m 1
 312.95703125 869.299804688 l 1
 387.34375 712.549804688 l 1
 293.22265625 712.549804688 l 1
 196.962890625 869.299804688 l 1
EndSplineSet
EndChar

StartChar: Eacute
Encoding: 201 201 138
Width: 404
GlyphClass: 2
Flags: MW
HStem: 1 95.9502<101.085 302.183> 303.1 96.9004<171.05 340.577 148.678 362.949> 594.75 95.9502<216.011 439.261 216.011 216.011>
VStem: 59.6758 102.601
LayerCount: 2
Fore
SplineSet
101.084960938 96.9501953125 m 1
 324.334960938 96.9501953125 l 1
 302.182617188 1 l 1
 -23.66796875 1 l 1
 135.5625 690.700195312 l 1
 461.413085938 690.700195312 l 1
 439.260742188 594.75 l 1
 216.010742188 594.75 l 1
 171.049804688 400 l 1
 362.94921875 400 l 1
 340.577148438 303.099609375 l 1
 148.677734375 303.099609375 l 1
 101.084960938 96.9501953125 l 1
356.033203125 869.299804688 m 1
 472.02734375 869.299804688 l 1
 303.391601562 712.549804688 l 1
 209.26953125 712.549804688 l 1
 356.033203125 869.299804688 l 1
EndSplineSet
EndChar

StartChar: Ecircumflex
Encoding: 202 202 139
Width: 404
GlyphClass: 2
Flags: MW
HStem: 1 95.9502<101.085 302.183> 303.1 96.9004<171.05 340.577 148.678 362.949> 594.75 95.9502<216.011 439.261 216.011 216.011>
VStem: 59.6758 102.601
LayerCount: 2
Fore
SplineSet
101.084960938 96.9501953125 m 1
 324.334960938 96.9501953125 l 1
 302.182617188 1 l 1
 -23.66796875 1 l 1
 135.5625 690.700195312 l 1
 461.413085938 690.700195312 l 1
 439.260742188 594.75 l 1
 216.010742188 594.75 l 1
 171.049804688 400 l 1
 362.94921875 400 l 1
 340.577148438 303.099609375 l 1
 148.677734375 303.099609375 l 1
 101.084960938 96.9501953125 l 1
300.149414062 875 m 1
 378.91796875 875 l 1
 458.575195312 704.950195312 l 1
 353.201171875 704.950195312 l 1
 318.981445312 777.890625 l 1
 250.2734375 704.950195312 l 1
 145.541992188 704.950195312 l 1
 300.149414062 875 l 1
EndSplineSet
EndChar

StartChar: Edieresis
Encoding: 203 203 140
Width: 404
GlyphClass: 2
Flags: MW
HStem: 1 95.9502<101.085 302.183> 303.1 96.9004<171.05 340.577 148.678 362.949> 594.75 95.9502<216.011 439.261 216.011 216.011> 715.4 115.899<205.073 283.765 178.315 310.522 205.073 322.715 349.473 428.165>
VStem: 59.6758 102.601 96.7266 105.449 241.126 105.45
LayerCount: 2
Fore
SplineSet
101.084960938 96.9501953125 m 1xfa
 324.334960938 96.9501953125 l 1
 302.182617188 1 l 1
 -23.66796875 1 l 1
 135.5625 690.700195312 l 1
 461.413085938 690.700195312 l 1
 439.260742188 594.75 l 1
 216.010742188 594.75 l 1
 171.049804688 400 l 1
 362.94921875 400 l 1
 340.577148438 303.099609375 l 1
 148.677734375 303.099609375 l 1
 101.084960938 96.9501953125 l 1xfa
205.073242188 831.299804688 m 1xf6
 310.522460938 831.299804688 l 1
 283.764648438 715.400390625 l 1
 178.315429688 715.400390625 l 1
 205.073242188 831.299804688 l 1xf6
349.47265625 831.299804688 m 1
 454.922851562 831.299804688 l 1
 428.165039062 715.400390625 l 1
 322.71484375 715.400390625 l 1
 349.47265625 831.299804688 l 1
EndSplineSet
EndChar

StartChar: Igrave
Encoding: 204 204 141
Width: 214
GlyphClass: 2
Flags: MW
HStem: 1 21G<-17.9678 84.6328 -17.9678 -17.9678> 670.7 20G<141.263 243.863 243.863 243.863>
VStem: 65.376 102.601
LayerCount: 2
Fore
SplineSet
141.262695312 690.700195312 m 1
 243.86328125 690.700195312 l 1
 84.6328125 1 l 1
 -17.9677734375 1 l 1
 141.262695312 690.700195312 l 1
91.513671875 869.299804688 m 1
 207.506835938 869.299804688 l 1
 281.89453125 712.549804688 l 1
 187.772460938 712.549804688 l 1
 91.513671875 869.299804688 l 1
EndSplineSet
EndChar

StartChar: Iacute
Encoding: 205 205 142
Width: 214
GlyphClass: 2
Flags: MW
HStem: 1 21G<-17.9678 84.6328 -17.9678 -17.9678> 670.7 20G<141.263 243.863 243.863 243.863>
VStem: 65.376 102.601
LayerCount: 2
Fore
SplineSet
141.262695312 690.700195312 m 1
 243.86328125 690.700195312 l 1
 84.6328125 1 l 1
 -17.9677734375 1 l 1
 141.262695312 690.700195312 l 1
250.583007812 869.299804688 m 1
 366.577148438 869.299804688 l 1
 197.94140625 712.549804688 l 1
 103.819335938 712.549804688 l 1
 250.583007812 869.299804688 l 1
EndSplineSet
EndChar

StartChar: Icircumflex
Encoding: 206 206 143
Width: 214
GlyphClass: 2
Flags: MW
HStem: 1 21G<-17.9678 84.6328 -17.9678 -17.9678> 670.7 20G<141.263 243.863 243.863 243.863>
VStem: 65.376 102.601
LayerCount: 2
Fore
SplineSet
141.262695312 690.700195312 m 1
 243.86328125 690.700195312 l 1
 84.6328125 1 l 1
 -17.9677734375 1 l 1
 141.262695312 690.700195312 l 1
194.69921875 875 m 1
 273.467773438 875 l 1
 353.125 704.950195312 l 1
 247.751953125 704.950195312 l 1
 213.53125 777.890625 l 1
 144.823242188 704.950195312 l 1
 40.091796875 704.950195312 l 1
 194.69921875 875 l 1
EndSplineSet
EndChar

StartChar: Idieresis
Encoding: 207 207 144
Width: 214
GlyphClass: 2
Flags: MW
HStem: 1 21G<-17.9678 84.6328 -17.9678 -17.9678> 670.7 20G<141.263 243.863 243.863 243.863> 715.4 115.899<99.623 178.315 72.8652 205.073 99.623 217.265 244.022 322.715>
VStem: -8.72363 105.45 65.376 102.601 135.676 105.45
LayerCount: 2
Fore
SplineSet
141.262695312 690.700195312 m 1xe8
 243.86328125 690.700195312 l 1
 84.6328125 1 l 1
 -17.9677734375 1 l 1
 141.262695312 690.700195312 l 1xe8
99.623046875 831.299804688 m 1xf0
 205.073242188 831.299804688 l 1
 178.315429688 715.400390625 l 1
 72.865234375 715.400390625 l 1
 99.623046875 831.299804688 l 1xf0
244.022460938 831.299804688 m 1xe4
 349.47265625 831.299804688 l 1
 322.71484375 715.400390625 l 1
 217.264648438 715.400390625 l 1
 244.022460938 831.299804688 l 1xe4
EndSplineSet
EndChar

StartChar: Eth
Encoding: 208 208 145
Width: 502
GlyphClass: 2
Flags: MW
HStem: 1 95.9502<128.635 190.082> 303.1 95.9502<39.7295 72.6777 17.5771 94.8301 39.7295 176.228 198.38 277.878> 594.75 95.9502<243.561 327.16 243.561 243.561>
VStem: 86.2764 103.55 363.676 103.551
LayerCount: 2
Fore
SplineSet
493.326171875 475.049804688 m 2
 433.669921875 216.650390625 l 2
 417.85546875 148.15234375 388.459960938 93.6171875 343.309570312 56.0634765625 c 0
 298.958984375 19.1748046875 246.948242188 1 190.08203125 1 c 2
 2.9326171875 1 l 1
 72.677734375 303.099609375 l 1
 17.5771484375 303.099609375 l 1
 39.7294921875 399.049804688 l 1
 94.830078125 399.049804688 l 1
 162.163085938 690.700195312 l 1
 349.3125 690.700195312 l 2
 406.13671875 690.700195312 449.770507812 672.72265625 477.1796875 636.169921875 c 0
 505.149414062 598.87109375 509.275390625 544.1328125 493.326171875 475.049804688 c 2
212.234375 96.9501953125 m 2
 244.700195312 96.9501953125 304.874023438 107.299804688 329.899414062 215.700195312 c 2
 388.240234375 468.400390625 l 2
 414.500976562 582.146484375 363.423828125 594.75 327.16015625 594.75 c 2
 243.560546875 594.75 l 1
 198.379882812 399.049804688 l 1
 300.030273438 399.049804688 l 1
 277.877929688 303.099609375 l 1
 176.227539062 303.099609375 l 1
 128.634765625 96.9501953125 l 1
 212.234375 96.9501953125 l 2
EndSplineSet
EndChar

StartChar: Ntilde
Encoding: 209 209 146
Width: 499
GlyphClass: 2
Flags: MW
HStem: 1 21G<-23.668 79.8828 -23.668 -23.668 275.876 373.433 275.876 275.876> 670.7 20G<135.562 233.128 233.128 233.128 429.113 532.663 532.663 532.663> 708.75 97.8496<372.996 415.663> 742 98.7998<295.188 335.504>
VStem: 59.6758 103.551 353.227 103.55
LayerCount: 2
Fore
SplineSet
532.663085938 690.700195312 m 1xcc
 373.432617188 1 l 1
 275.875976562 1 l 1
 181.500976562 441.154296875 l 1
 79.8828125 1 l 1
 -23.66796875 1 l 1
 135.5625 690.700195312 l 1
 233.127929688 690.700195312 l 1
 327.307617188 249.734375 l 1
 429.11328125 690.700195312 l 1
 532.663085938 690.700195312 l 1xcc
326.016601562 840.799804688 m 0xdc
 344.9921875 840.799804688 356.971679688 837 378.172851562 820.994140625 c 0
 396.670898438 807.030273438 403.59765625 806.599609375 411.220703125 806.599609375 c 0
 420.10546875 806.599609375 425.291015625 806.599609375 457.271484375 835.818359375 c 2
 495.34765625 870.607421875 l 1
 467.9453125 751.913085938 l 1
 441.637695312 727.39453125 420.155273438 708.75 382.930664062 708.75 c 0xec
 363.061523438 708.75 352.440429688 712.53125 326.8984375 729.041992188 c 0
 310.67578125 739.71875 307.209960938 742 300.35546875 742 c 0
 290.021484375 742 280.48828125 740.615234375 250.662109375 712.182617188 c 2
 211.76171875 675.099609375 l 1
 240.18359375 798.208984375 l 1
 270.10546875 823.60546875 291.627929688 840.799804688 326.016601562 840.799804688 c 0xdc
EndSplineSet
EndChar

StartChar: Ograve
Encoding: 210 210 147
Width: 476
GlyphClass: 2
Flags: MW
HStem: -6.59961 96.9004<165.566 190.163> 602.351 96.9004<295.985 321.397>
VStem: 52.0762 103.55 338.026 103.55
LayerCount: 2
Fore
SplineSet
16.7646484375 209.05078125 m 2
 79.9306640625 482.651367188 l 2
 96.0166015625 552.328125 125.454101562 607.38671875 170.690429688 644.720703125 c 0
 215.032226562 681.317382812 267.284179688 699.250976562 324.686523438 699.250976562 c 0
 382.088867188 699.250976562 426.061523438 681.317382812 453.504882812 644.720703125 c 0
 481.500976562 607.385742188 485.516601562 552.327148438 469.430664062 482.650390625 c 2
 406.264648438 209.049804688 l 2
 390.443359375 140.521484375 360.850585938 85.9453125 315.357421875 48.4033203125 c 0
 270.724609375 11.572265625 218.59765625 -6.599609375 161.728515625 -6.599609375 c 0
 104.28515625 -6.599609375 60.3271484375 11.5302734375 32.9755859375 48.4638671875 c 0
 5.1650390625 86.017578125 0.951171875 140.553710938 16.7646484375 209.05078125 c 2
185.049804688 90.30078125 m 0
 223.515625 90.30078125 278.795898438 105.444335938 302.49609375 208.100585938 c 2
 364.345703125 476.000976562 l 2
 390.60546875 589.747070312 339.529296875 602.350585938 303.265625 602.350585938 c 0
 259.063476562 602.350585938 207.42578125 586.370117188 181.9453125 476.000976562 c 2
 120.095703125 208.100585938 l 2
 95.580078125 101.9140625 146.08203125 90.30078125 185.049804688 90.30078125 c 0
337.657226562 869.30078125 m 1
 412.043945312 712.55078125 l 1
 317.922851562 712.55078125 l 1
 221.663085938 869.30078125 l 1
 337.657226562 869.30078125 l 1
EndSplineSet
EndChar

StartChar: Oacute
Encoding: 211 211 148
Width: 476
GlyphClass: 2
Flags: MW
HStem: -6.59961 96.9004<165.566 190.163> 602.351 96.9004<295.985 321.397>
VStem: 52.0762 103.55 338.026 103.55
LayerCount: 2
Fore
SplineSet
16.7646484375 209.05078125 m 2
 79.9306640625 482.651367188 l 2
 96.0166015625 552.328125 125.454101562 607.38671875 170.690429688 644.720703125 c 0
 215.032226562 681.317382812 267.284179688 699.250976562 324.686523438 699.250976562 c 0
 382.088867188 699.250976562 426.061523438 681.317382812 453.504882812 644.720703125 c 0
 481.500976562 607.385742188 485.516601562 552.327148438 469.430664062 482.650390625 c 2
 406.264648438 209.049804688 l 2
 390.443359375 140.521484375 360.850585938 85.9453125 315.357421875 48.4033203125 c 0
 270.724609375 11.572265625 218.59765625 -6.599609375 161.728515625 -6.599609375 c 0
 104.28515625 -6.599609375 60.3271484375 11.5302734375 32.9755859375 48.4638671875 c 0
 5.1650390625 86.017578125 0.951171875 140.553710938 16.7646484375 209.05078125 c 2
185.049804688 90.30078125 m 0
 223.515625 90.30078125 278.795898438 105.444335938 302.49609375 208.100585938 c 2
 364.345703125 476.000976562 l 2
 390.60546875 589.747070312 339.529296875 602.350585938 303.265625 602.350585938 c 0
 259.063476562 602.350585938 207.42578125 586.370117188 181.9453125 476.000976562 c 2
 120.095703125 208.100585938 l 2
 95.580078125 101.9140625 146.08203125 90.30078125 185.049804688 90.30078125 c 0
380.733398438 869.30078125 m 1
 496.727539062 869.30078125 l 1
 328.090820312 712.55078125 l 1
 233.969726562 712.55078125 l 1
 380.733398438 869.30078125 l 1
EndSplineSet
EndChar

StartChar: Ocircumflex
Encoding: 212 212 149
Width: 476
GlyphClass: 2
Flags: MW
HStem: -6.59961 96.9004<165.566 190.163> 602.351 96.9004<295.985 321.397>
VStem: 52.0762 103.55 338.026 103.55
LayerCount: 2
Fore
SplineSet
16.7646484375 209.05078125 m 2
 79.9306640625 482.651367188 l 2
 96.0166015625 552.328125 125.454101562 607.38671875 170.690429688 644.720703125 c 0
 215.032226562 681.317382812 267.284179688 699.250976562 324.686523438 699.250976562 c 0
 382.088867188 699.250976562 426.061523438 681.317382812 453.504882812 644.720703125 c 0
 481.500976562 607.385742188 485.516601562 552.327148438 469.430664062 482.650390625 c 2
 406.264648438 209.049804688 l 2
 390.443359375 140.521484375 360.850585938 85.9453125 315.357421875 48.4033203125 c 0
 270.724609375 11.572265625 218.59765625 -6.599609375 161.728515625 -6.599609375 c 0
 104.28515625 -6.599609375 60.3271484375 11.5302734375 32.9755859375 48.4638671875 c 0
 5.1650390625 86.017578125 0.951171875 140.553710938 16.7646484375 209.05078125 c 2
185.049804688 90.30078125 m 0
 223.515625 90.30078125 278.795898438 105.444335938 302.49609375 208.100585938 c 2
 364.345703125 476.000976562 l 2
 390.60546875 589.747070312 339.529296875 602.350585938 303.265625 602.350585938 c 0
 259.063476562 602.350585938 207.42578125 586.370117188 181.9453125 476.000976562 c 2
 120.095703125 208.100585938 l 2
 95.580078125 101.9140625 146.08203125 90.30078125 185.049804688 90.30078125 c 0
324.849609375 875.000976562 m 1
 403.618164062 875.000976562 l 1
 483.275390625 704.951171875 l 1
 377.901367188 704.951171875 l 1
 343.682617188 777.891601562 l 1
 274.973632812 704.951171875 l 1
 170.2421875 704.951171875 l 1
 324.849609375 875.000976562 l 1
EndSplineSet
EndChar

StartChar: Otilde
Encoding: 213 213 150
Width: 476
GlyphClass: 2
Flags: MW
HStem: -6.59961 96.9004<165.566 190.163> 602.351 96.9004<295.985 321.397> 708.751 97.8496<360.647 403.315> 742.001 98.7998<282.839 323.156>
VStem: 52.0762 103.55 338.026 103.55
LayerCount: 2
Fore
SplineSet
16.7646484375 209.05078125 m 2xcc
 79.9306640625 482.651367188 l 2
 96.0166015625 552.328125 125.454101562 607.38671875 170.690429688 644.720703125 c 0
 215.032226562 681.317382812 267.284179688 699.250976562 324.686523438 699.250976562 c 0
 382.088867188 699.250976562 426.061523438 681.317382812 453.504882812 644.720703125 c 0
 481.500976562 607.385742188 485.516601562 552.327148438 469.430664062 482.650390625 c 2
 406.264648438 209.049804688 l 2
 390.443359375 140.521484375 360.850585938 85.9453125 315.357421875 48.4033203125 c 0
 270.724609375 11.572265625 218.59765625 -6.599609375 161.728515625 -6.599609375 c 0
 104.28515625 -6.599609375 60.3271484375 11.5302734375 32.9755859375 48.4638671875 c 0
 5.1650390625 86.017578125 0.951171875 140.553710938 16.7646484375 209.05078125 c 2xcc
185.049804688 90.30078125 m 0
 223.515625 90.30078125 278.795898438 105.444335938 302.49609375 208.100585938 c 2
 364.345703125 476.000976562 l 2
 390.60546875 589.747070312 339.529296875 602.350585938 303.265625 602.350585938 c 0
 259.063476562 602.350585938 207.42578125 586.370117188 181.9453125 476.000976562 c 2
 120.095703125 208.100585938 l 2
 95.580078125 101.9140625 146.08203125 90.30078125 185.049804688 90.30078125 c 0
313.66796875 840.80078125 m 0xdc
 332.643554688 840.80078125 344.623046875 837.000976562 365.825195312 820.995117188 c 0
 384.322265625 807.03125 391.249023438 806.600585938 398.872070312 806.600585938 c 0
 407.7578125 806.600585938 412.943359375 806.600585938 444.921875 835.819335938 c 2
 483 870.608398438 l 1
 455.596679688 751.9140625 l 1
 429.2734375 727.3828125 407.798828125 708.750976562 370.58203125 708.750976562 c 0xec
 350.711914062 708.750976562 340.090820312 712.532226562 314.549804688 729.04296875 c 0
 298.333007812 739.716796875 294.861328125 742.000976562 288.006835938 742.000976562 c 0
 277.671875 742.000976562 268.138671875 740.616210938 238.313476562 712.18359375 c 2
 199.411132812 675.100585938 l 1
 227.833007812 798.209960938 l 1
 257.756835938 823.607421875 279.280273438 840.80078125 313.66796875 840.80078125 c 0xdc
EndSplineSet
EndChar

StartChar: Odieresis
Encoding: 214 214 151
Width: 476
GlyphClass: 2
Flags: MW
HStem: -6.59961 96.9004<165.566 190.163> 602.351 96.9004<295.985 321.397> 715.401 115.899<229.772 308.465 203.015 335.223 229.772 347.415 374.173 452.865>
VStem: 52.0762 103.55 121.426 105.45 265.826 105.45 338.026 103.55
LayerCount: 2
Fore
SplineSet
16.7646484375 209.05078125 m 2xf2
 79.9306640625 482.651367188 l 2
 96.0166015625 552.328125 125.454101562 607.38671875 170.690429688 644.720703125 c 0
 215.032226562 681.317382812 267.284179688 699.250976562 324.686523438 699.250976562 c 0
 382.088867188 699.250976562 426.061523438 681.317382812 453.504882812 644.720703125 c 0
 481.500976562 607.385742188 485.516601562 552.327148438 469.430664062 482.650390625 c 2
 406.264648438 209.049804688 l 2
 390.443359375 140.521484375 360.850585938 85.9453125 315.357421875 48.4033203125 c 0
 270.724609375 11.572265625 218.59765625 -6.599609375 161.728515625 -6.599609375 c 0
 104.28515625 -6.599609375 60.3271484375 11.5302734375 32.9755859375 48.4638671875 c 0
 5.1650390625 86.017578125 0.951171875 140.553710938 16.7646484375 209.05078125 c 2xf2
185.049804688 90.30078125 m 0
 223.515625 90.30078125 278.795898438 105.444335938 302.49609375 208.100585938 c 2
 364.345703125 476.000976562 l 2
 390.60546875 589.747070312 339.529296875 602.350585938 303.265625 602.350585938 c 0
 259.063476562 602.350585938 207.42578125 586.370117188 181.9453125 476.000976562 c 2
 120.095703125 208.100585938 l 2
 95.580078125 101.9140625 146.08203125 90.30078125 185.049804688 90.30078125 c 0
229.772460938 831.30078125 m 1xe8
 335.22265625 831.30078125 l 1
 308.46484375 715.401367188 l 1
 203.014648438 715.401367188 l 1
 229.772460938 831.30078125 l 1xe8
374.172851562 831.30078125 m 1xe4
 479.623046875 831.30078125 l 1
 452.865234375 715.401367188 l 1
 347.415039062 715.401367188 l 1
 374.172851562 831.30078125 l 1xe4
EndSplineSet
EndChar

StartChar: multiply
Encoding: 215 215 152
Width: 421
GlyphClass: 2
Flags: MW
HStem: 116.609 327.324<64.9111 140.422>
VStem: 55.3076 327.738
LayerCount: 2
Fore
SplineSet
186.279296875 215.212890625 m 1
 64.9111328125 116.609375 l 1
 13.603515625 181.360351562 l 1
 135.385742188 280.299804688 l 1
 59.2880859375 379.240234375 l 1
 140.421875 443.93359375 l 1
 216.524414062 346.219726562 l 1
 337.037109375 444.127929688 l 1
 387.006835938 379.158203125 l 1
 266.276367188 280.299804688 l 1
 341.360351562 181.44140625 l 1
 261.319335938 116.413085938 l 1
 186.279296875 215.212890625 l 1
EndSplineSet
EndChar

StartChar: Oslash
Encoding: 216 216 153
Width: 476
GlyphClass: 2
Flags: MW
HStem: -6.59863 96.9004<171.252 190.162> 602.352 96.8984<295.984 316.854>
VStem: 52.0752 103.55 338.025 103.55
LayerCount: 2
Fore
SplineSet
445.18359375 709.700195312 m 1
 532.868164062 709.700195312 l 1
 468.786132812 614.24609375 l 1
 481.736328125 578.907226562 481.454101562 534.733398438 469.4296875 482.651367188 c 2
 406.263671875 209.05078125 l 2
 390.443359375 140.522460938 360.849609375 85.9462890625 315.356445312 48.404296875 c 0
 270.723632812 11.572265625 218.596679688 -6.5986328125 161.727539062 -6.5986328125 c 0
 124.676757812 -6.5986328125 92.986328125 1.169921875 67.5009765625 17.0068359375 c 1
 43.861328125 -17.9990234375 l 1
 -43.7900390625 -17.9990234375 l 1
 18.7578125 75.37109375 l 1
 4.744140625 111.326171875 4.5712890625 156.236328125 16.763671875 209.049804688 c 2
 79.9296875 482.650390625 l 2
 96.015625 552.327148438 125.452148438 607.385742188 170.689453125 644.720703125 c 0
 215.030273438 681.31640625 267.283203125 699.25 324.685546875 699.25 c 0
 363.62890625 699.25 396.325195312 691.362304688 421.763671875 675.01953125 c 1
 445.18359375 709.700195312 l 1
303.264648438 602.3515625 m 0
 259.0625 602.3515625 207.424804688 586.37109375 181.944335938 476.001953125 c 2
 126.34375 235.166992188 l 1
 358.112304688 580.549804688 l 1
 347.677734375 594.90234375 330.442382812 602.3515625 303.264648438 602.3515625 c 0
185.048828125 90.3017578125 m 0
 223.514648438 90.3017578125 278.794921875 105.4453125 302.495117188 208.1015625 c 2
 358.375 450.14453125 l 1
 128.880859375 109.032226562 l 1
 139.698242188 96.96484375 157.455078125 90.3017578125 185.048828125 90.3017578125 c 0
EndSplineSet
EndChar

StartChar: Ugrave
Encoding: 217 217 154
Width: 478
GlyphClass: 2
Flags: MW
HStem: -6.59961 96.8994<144.352 189.872> 670.7 20G<135.562 239.112 239.112 239.112 408.212 511.762 511.762 511.762>
VStem: 59.6748 103.551 332.325 103.55
LayerCount: 2
Fore
SplineSet
162.678710938 -6.599609375 m 0
 52.8251953125 -6.599609375 -7.3564453125 71.6552734375 18.8798828125 185.299804688 c 2
 135.561523438 690.700195312 l 1
 239.112304688 690.700195312 l 1
 123.30859375 189.099609375 l 2
 117.700195312 164.809570312 103.655273438 90.2998046875 185.048828125 90.2998046875 c 0
 217.028320312 90.2998046875 272.609375 103.341796875 292.408203125 189.099609375 c 2
 408.211914062 690.700195312 l 1
 511.76171875 690.700195312 l 1
 395.080078125 185.299804688 l 2
 382.134765625 129.223632812 353.997070312 82.0126953125 310.573242188 46.4462890625 c 0
 267.260742188 10.9716796875 217.064453125 -6.599609375 162.678710938 -6.599609375 c 0
222.611328125 869.299804688 m 1
 338.60546875 869.299804688 l 1
 412.9921875 712.549804688 l 1
 318.870117188 712.549804688 l 1
 222.611328125 869.299804688 l 1
EndSplineSet
EndChar

StartChar: Uacute
Encoding: 218 218 155
Width: 478
GlyphClass: 2
Flags: MW
HStem: -6.59961 96.8994<144.352 189.872> 670.7 20G<135.562 239.112 239.112 239.112 408.212 511.762 511.762 511.762>
VStem: 59.6748 103.551 332.325 103.55
LayerCount: 2
Fore
SplineSet
162.678710938 -6.599609375 m 0
 52.8251953125 -6.599609375 -7.3564453125 71.6552734375 18.8798828125 185.299804688 c 2
 135.561523438 690.700195312 l 1
 239.112304688 690.700195312 l 1
 123.30859375 189.099609375 l 2
 117.700195312 164.809570312 103.655273438 90.2998046875 185.048828125 90.2998046875 c 0
 217.028320312 90.2998046875 272.609375 103.341796875 292.408203125 189.099609375 c 2
 408.211914062 690.700195312 l 1
 511.76171875 690.700195312 l 1
 395.080078125 185.299804688 l 2
 382.134765625 129.223632812 353.997070312 82.0126953125 310.573242188 46.4462890625 c 0
 267.260742188 10.9716796875 217.064453125 -6.599609375 162.678710938 -6.599609375 c 0
381.681640625 869.299804688 m 1
 497.67578125 869.299804688 l 1
 329.0390625 712.549804688 l 1
 234.91796875 712.549804688 l 1
 381.681640625 869.299804688 l 1
EndSplineSet
EndChar

StartChar: Ucircumflex
Encoding: 219 219 156
Width: 478
GlyphClass: 2
Flags: MW
HStem: -6.59961 96.8994<144.352 189.872> 670.7 20G<135.562 239.112 239.112 239.112 408.212 511.762 511.762 511.762>
VStem: 59.6748 103.551 332.325 103.55
LayerCount: 2
Fore
SplineSet
162.678710938 -6.599609375 m 0
 52.8251953125 -6.599609375 -7.3564453125 71.6552734375 18.8798828125 185.299804688 c 2
 135.561523438 690.700195312 l 1
 239.112304688 690.700195312 l 1
 123.30859375 189.099609375 l 2
 117.700195312 164.809570312 103.655273438 90.2998046875 185.048828125 90.2998046875 c 0
 217.028320312 90.2998046875 272.609375 103.341796875 292.408203125 189.099609375 c 2
 408.211914062 690.700195312 l 1
 511.76171875 690.700195312 l 1
 395.080078125 185.299804688 l 2
 382.134765625 129.223632812 353.997070312 82.0126953125 310.573242188 46.4462890625 c 0
 267.260742188 10.9716796875 217.064453125 -6.599609375 162.678710938 -6.599609375 c 0
325.797851562 875 m 1
 404.56640625 875 l 1
 484.223632812 704.950195312 l 1
 378.849609375 704.950195312 l 1
 344.629882812 777.890625 l 1
 275.921875 704.950195312 l 1
 171.190429688 704.950195312 l 1
 325.797851562 875 l 1
EndSplineSet
EndChar

StartChar: Udieresis
Encoding: 220 220 157
Width: 478
GlyphClass: 2
Flags: MW
HStem: -6.59961 96.8994<144.352 189.872> 670.7 20G<135.562 239.112 239.112 239.112 408.212 511.762 511.762 511.762> 715.4 115.899<230.721 309.413 203.963 336.171 230.721 348.363 375.121 453.813>
VStem: 59.6748 103.551 122.374 105.45 266.774 105.45 332.325 103.55
LayerCount: 2
Fore
SplineSet
162.678710938 -6.599609375 m 0xf2
 52.8251953125 -6.599609375 -7.3564453125 71.6552734375 18.8798828125 185.299804688 c 2
 135.561523438 690.700195312 l 1
 239.112304688 690.700195312 l 1
 123.30859375 189.099609375 l 2
 117.700195312 164.809570312 103.655273438 90.2998046875 185.048828125 90.2998046875 c 0
 217.028320312 90.2998046875 272.609375 103.341796875 292.408203125 189.099609375 c 2
 408.211914062 690.700195312 l 1
 511.76171875 690.700195312 l 1
 395.080078125 185.299804688 l 2
 382.134765625 129.223632812 353.997070312 82.0126953125 310.573242188 46.4462890625 c 0
 267.260742188 10.9716796875 217.064453125 -6.599609375 162.678710938 -6.599609375 c 0xf2
230.720703125 831.299804688 m 1xe8
 336.170898438 831.299804688 l 1
 309.413085938 715.400390625 l 1
 203.962890625 715.400390625 l 1
 230.720703125 831.299804688 l 1xe8
375.12109375 831.299804688 m 1xe4
 480.571289062 831.299804688 l 1
 453.813476562 715.400390625 l 1
 348.36328125 715.400390625 l 1
 375.12109375 831.299804688 l 1xe4
EndSplineSet
EndChar

StartChar: Yacute
Encoding: 221 221 158
Width: 394
GlyphClass: 2
Flags: MW
HStem: 1 21G<71.332 173.933 71.332 71.332> 670.7 20G<79.541 192.479 192.479 192.479 371.246 484.185 484.185 484.185>
VStem: 154.676 102.601
LayerCount: 2
Fore
SplineSet
484.184570312 690.700195312 m 1
 240.109375 287.642578125 l 1
 173.932617188 1 l 1
 71.33203125 1 l 1
 137.508789062 287.642578125 l 1
 79.541015625 690.700195312 l 1
 192.479492188 690.700195312 l 1
 220.919921875 426.727539062 l 1
 371.24609375 690.700195312 l 1
 484.184570312 690.700195312 l 1
343.68359375 869.299804688 m 1
 459.677734375 869.299804688 l 1
 291.041015625 712.549804688 l 1
 196.918945312 712.549804688 l 1
 343.68359375 869.299804688 l 1
EndSplineSet
EndChar

StartChar: Thorn
Encoding: 222 222 159
Width: 440
GlyphClass: 2
Flags: MW
HStem: 1 21G<-23.668 78.9326 -23.668 -23.668> 158.7 95.001<137.273 196.091 115.341 214.224> 475.051 95.9492<210.527 265.326 188.376 291.277> 670.7 20G<135.562 238.163 238.163 238.163>
VStem: 59.6758 102.601 325.676 103.551
LayerCount: 2
Fore
SplineSet
291.27734375 571 m 2
 375.114257812 571 470.336914062 540.0703125 429.446289062 362.950195312 c 0
 416.759765625 308.000976562 374.442382812 158.700195312 196.090820312 158.700195312 c 2
 115.340820312 158.700195312 l 1
 78.9326171875 1 l 1
 -23.66796875 1 l 1
 135.5625 690.700195312 l 1
 238.163085938 690.700195312 l 1
 210.52734375 571 l 1
 291.27734375 571 l 2
325.895507812 362.951171875 m 0
 335.850585938 406.073242188 334.006835938 434.678710938 324.770507812 450.481445312 c 0
 315.694335938 466.008789062 297.594726562 475.05078125 265.326171875 475.05078125 c 2
 188.375976562 475.05078125 l 1
 137.2734375 253.701171875 l 1
 214.223632812 253.701171875 l 2
 246.624023438 253.701171875 268.969726562 262.565429688 285.0078125 277.524414062 c 0
 301.206054688 292.631835938 316.086914062 320.467773438 325.895507812 362.951171875 c 0
EndSplineSet
EndChar

StartChar: germandbls
Encoding: 223 223 160
Width: 414
GlyphClass: 2
Flags: MW
HStem: -2.7998 93.0996<139.449 160.705 117.955 174.598> 358.2 92.1494<219.723 235.498 198.448 256.772> 606.15 93.0996<270.965 292.833>
VStem: 58.7256 99.75 281.975 99.752
LayerCount: 2
Fore
SplineSet
345.098632812 410.875976562 m 1
 377.864257812 379.045898438 375.193359375 333.702148438 350.58203125 227.098632812 c 0
 337.732421875 171.439453125 325.408203125 128.817382812 312.975585938 98.248046875 c 0
 274.505859375 3.6552734375 201.44921875 -2.7998046875 160.705078125 -2.7998046875 c 2
 117.955078125 -2.7998046875 l 1
 139.44921875 90.2998046875 l 1
 174.59765625 90.2998046875 l 2
 191.803710938 90.2998046875 201.262695312 94.568359375 206.140625 98.8818359375 c 0
 218.857421875 110.126953125 228.313476562 129.568359375 250.830078125 227.099609375 c 0
 276.676757812 339.053710938 273.970703125 358.200195312 235.498046875 358.200195312 c 2
 198.448242188 358.200195312 l 1
 219.72265625 450.349609375 l 1
 256.772460938 450.349609375 l 2
 275.622070312 450.349609375 284.403320312 455.823242188 290.83984375 464.630859375 c 0
 299.396484375 476.337890625 308.805664062 498.787109375 316.265625 531.099609375 c 0
 330.305664062 591.916992188 310.024414062 606.150390625 275.641601562 606.150390625 c 0
 245.278320312 606.150390625 212.6484375 596.6484375 198.612304688 535.849609375 c 2
 75.1318359375 1 l 1
 -24.6181640625 1 l 1
 93.8173828125 514 l 2
 107.036132812 571.2578125 129.131835938 617.15625 162.603515625 649.978515625 c 0
 197.267578125 683.970703125 243.84375 699.25 298.0859375 699.25 c 0
 344.086914062 699.25 379.701171875 684.796875 401.790039062 655.137695312 c 0
 423.993164062 625.327148438 428.369140625 584.60546875 417.11328125 535.849609375 c 0
 401.514648438 468.287109375 381.659179688 436.336914062 345.098632812 410.875976562 c 1
EndSplineSet
EndChar

StartChar: agrave
Encoding: 224 224 161
Width: 402
GlyphClass: 2
Flags: MW
HStem: -6.59961 90.249<75.979 149.418> 1 21G<182.482 278.433 182.482 182.482> 232.799 82.6514<159.938 252.229 193.328 233.148> 442.75 91.2002<210.548 238.52>
VStem: 40.6748 98.8018 53.0254 95 262.977 98.7998
LayerCount: 2
Fore
SplineSet
59.166015625 388.599609375 m 2xb6
 80.3896484375 480.526367188 155.494140625 533.950195312 243.774414062 533.950195312 c 0
 292.430664062 533.950195312 329.358398438 520.39453125 350.720703125 491.17578125 c 0
 371.8984375 462.211914062 375.702148438 422.3203125 364.627929688 374.349609375 c 2
 278.432617188 1 l 1
 182.482421875 1 l 1x76
 186.748046875 19.4736328125 l 1
 160.161132812 2.208984375 130.138671875 -6.599609375 98.078125 -6.599609375 c 0
 53.8798828125 -6.599609375 20.501953125 7.8720703125 2.169921875 37.990234375 c 0
 -15.91015625 67.6962890625 -17.9638671875 108.009765625 -6.69921875 156.799804688 c 0xba
 4.2763671875 204.342773438 27.1171875 244.05078125 62.6435546875 272.9140625 c 0
 98.490234375 302.037109375 142.921875 315.450195312 193.328125 315.450195312 c 2
 252.228515625 315.450195312 l 1
 266.484375 377.200195312 l 2
 279.181640625 432.194335938 254.322265625 442.75 222.717773438 442.75 c 0
 198.37890625 442.75 164.8984375 435.084960938 153.947265625 387.650390625 c 2
 148.245117188 362.950195312 l 1
 53.2451171875 362.950195312 l 1
 59.166015625 388.599609375 l 2xb6
134.11328125 83.6494140625 m 0xba
 164.72265625 83.6494140625 201.8984375 97.44140625 216.041015625 158.69921875 c 2
 233.1484375 232.798828125 l 1
 180.8984375 232.798828125 l 2
 138.977539062 232.798828125 105.982421875 216.921875 92.3212890625 157.749023438 c 0
 76.6787109375 89.9912109375 108.90234375 83.6494140625 134.11328125 83.6494140625 c 0xba
147.620117188 704.94921875 m 1
 263.61328125 704.94921875 l 1
 338.000976562 548.19921875 l 1
 243.87890625 548.19921875 l 1
 147.620117188 704.94921875 l 1
EndSplineSet
EndChar

StartChar: aacute
Encoding: 225 225 162
Width: 402
GlyphClass: 2
Flags: MW
HStem: -6.59961 90.249<75.979 149.418> 1 21G<182.482 278.433 182.482 182.482> 232.799 82.6514<159.938 252.229 193.328 233.148> 442.75 91.2002<210.548 238.52>
VStem: 40.6748 98.8018 53.0254 95 262.977 98.7998
LayerCount: 2
Fore
SplineSet
59.166015625 388.599609375 m 2xb6
 80.3896484375 480.526367188 155.494140625 533.950195312 243.774414062 533.950195312 c 0
 292.430664062 533.950195312 329.358398438 520.39453125 350.720703125 491.17578125 c 0
 371.8984375 462.211914062 375.702148438 422.3203125 364.627929688 374.349609375 c 2
 278.432617188 1 l 1
 182.482421875 1 l 1x76
 186.748046875 19.4736328125 l 1
 160.161132812 2.208984375 130.138671875 -6.599609375 98.078125 -6.599609375 c 0
 53.8798828125 -6.599609375 20.501953125 7.8720703125 2.169921875 37.990234375 c 0
 -15.91015625 67.6962890625 -17.9638671875 108.009765625 -6.69921875 156.799804688 c 0xba
 4.2763671875 204.342773438 27.1171875 244.05078125 62.6435546875 272.9140625 c 0
 98.490234375 302.037109375 142.921875 315.450195312 193.328125 315.450195312 c 2
 252.228515625 315.450195312 l 1
 266.484375 377.200195312 l 2
 279.181640625 432.194335938 254.322265625 442.75 222.717773438 442.75 c 0
 198.37890625 442.75 164.8984375 435.084960938 153.947265625 387.650390625 c 2
 148.245117188 362.950195312 l 1
 53.2451171875 362.950195312 l 1
 59.166015625 388.599609375 l 2xb6
134.11328125 83.6494140625 m 0xba
 164.72265625 83.6494140625 201.8984375 97.44140625 216.041015625 158.69921875 c 2
 233.1484375 232.798828125 l 1
 180.8984375 232.798828125 l 2
 138.977539062 232.798828125 105.982421875 216.921875 92.3212890625 157.749023438 c 0
 76.6787109375 89.9912109375 108.90234375 83.6494140625 134.11328125 83.6494140625 c 0xba
306.690429688 704.94921875 m 1
 422.68359375 704.94921875 l 1
 254.047851562 548.19921875 l 1
 159.92578125 548.19921875 l 1
 306.690429688 704.94921875 l 1
EndSplineSet
EndChar

StartChar: acircumflex
Encoding: 226 226 163
Width: 402
GlyphClass: 2
Flags: MW
HStem: -6.59961 90.249<75.979 149.418> 1 21G<182.482 278.433 182.482 182.482> 232.799 82.6514<159.938 252.229 193.328 233.148> 442.75 91.2002<210.548 238.52>
VStem: 40.6748 98.8018 53.0254 95 262.977 98.7998
LayerCount: 2
Fore
SplineSet
59.166015625 388.599609375 m 2xb6
 80.3896484375 480.526367188 155.494140625 533.950195312 243.774414062 533.950195312 c 0
 292.430664062 533.950195312 329.358398438 520.39453125 350.720703125 491.17578125 c 0
 371.8984375 462.211914062 375.702148438 422.3203125 364.627929688 374.349609375 c 2
 278.432617188 1 l 1
 182.482421875 1 l 1x76
 186.748046875 19.4736328125 l 1
 160.161132812 2.208984375 130.138671875 -6.599609375 98.078125 -6.599609375 c 0
 53.8798828125 -6.599609375 20.501953125 7.8720703125 2.169921875 37.990234375 c 0
 -15.91015625 67.6962890625 -17.9638671875 108.009765625 -6.69921875 156.799804688 c 0xba
 4.2763671875 204.342773438 27.1171875 244.05078125 62.6435546875 272.9140625 c 0
 98.490234375 302.037109375 142.921875 315.450195312 193.328125 315.450195312 c 2
 252.228515625 315.450195312 l 1
 266.484375 377.200195312 l 2
 279.181640625 432.194335938 254.322265625 442.75 222.717773438 442.75 c 0
 198.37890625 442.75 164.8984375 435.084960938 153.947265625 387.650390625 c 2
 148.245117188 362.950195312 l 1
 53.2451171875 362.950195312 l 1
 59.166015625 388.599609375 l 2xb6
134.11328125 83.6494140625 m 0xba
 164.72265625 83.6494140625 201.8984375 97.44140625 216.041015625 158.69921875 c 2
 233.1484375 232.798828125 l 1
 180.8984375 232.798828125 l 2
 138.977539062 232.798828125 105.982421875 216.921875 92.3212890625 157.749023438 c 0
 76.6787109375 89.9912109375 108.90234375 83.6494140625 134.11328125 83.6494140625 c 0xba
250.806640625 710.649414062 m 1
 329.575195312 710.649414062 l 1
 409.231445312 540.598632812 l 1
 303.857421875 540.598632812 l 1
 269.638671875 613.540039062 l 1
 200.9296875 540.598632812 l 1
 96.1982421875 540.598632812 l 1
 250.806640625 710.649414062 l 1
EndSplineSet
EndChar

StartChar: atilde
Encoding: 227 227 164
Width: 402
GlyphClass: 2
Flags: MW
HStem: -6.59961 90.249<75.979 149.418> 1 21G<182.482 278.433 182.482 182.482> 232.799 82.6514<159.938 252.229 193.328 233.148> 442.75 91.2002<210.548 238.52> 544.399 97.8496<286.604 329.271> 577.649 98.7998<208.795 249.113>
VStem: 40.6748 98.8018 53.0254 95 262.977 98.7998
LayerCount: 2
Fore
SplineSet
59.166015625 388.599609375 m 2xb180
 80.3896484375 480.526367188 155.494140625 533.950195312 243.774414062 533.950195312 c 0
 292.430664062 533.950195312 329.358398438 520.39453125 350.720703125 491.17578125 c 0
 371.8984375 462.211914062 375.702148438 422.3203125 364.627929688 374.349609375 c 2
 278.432617188 1 l 1
 182.482421875 1 l 1x7180
 186.748046875 19.4736328125 l 1
 160.161132812 2.208984375 130.138671875 -6.599609375 98.078125 -6.599609375 c 0
 53.8798828125 -6.599609375 20.501953125 7.8720703125 2.169921875 37.990234375 c 0
 -15.91015625 67.6962890625 -17.9638671875 108.009765625 -6.69921875 156.799804688 c 0xb280
 4.2763671875 204.342773438 27.1171875 244.05078125 62.6435546875 272.9140625 c 0
 98.490234375 302.037109375 142.921875 315.450195312 193.328125 315.450195312 c 2
 252.228515625 315.450195312 l 1
 266.484375 377.200195312 l 2
 279.181640625 432.194335938 254.322265625 442.75 222.717773438 442.75 c 0
 198.37890625 442.75 164.8984375 435.084960938 153.947265625 387.650390625 c 2
 148.245117188 362.950195312 l 1
 53.2451171875 362.950195312 l 1
 59.166015625 388.599609375 l 2xb180
134.11328125 83.6494140625 m 0xb280
 164.72265625 83.6494140625 201.8984375 97.44140625 216.041015625 158.69921875 c 2
 233.1484375 232.798828125 l 1
 180.8984375 232.798828125 l 2
 138.977539062 232.798828125 105.982421875 216.921875 92.3212890625 157.749023438 c 0
 76.6787109375 89.9912109375 108.90234375 83.6494140625 134.11328125 83.6494140625 c 0xb280
239.625976562 676.44921875 m 0x3480
 258.600585938 676.44921875 270.580078125 672.649414062 291.78125 656.643554688 c 0
 310.279296875 642.6796875 317.206054688 642.249023438 324.829101562 642.249023438 c 0
 333.713867188 642.249023438 338.899414062 642.249023438 370.879882812 671.466796875 c 2
 408.956054688 706.255859375 l 1
 381.553710938 587.5625 l 1
 355.229492188 563.030273438 333.754882812 544.399414062 296.538085938 544.399414062 c 0x3880
 276.669921875 544.399414062 266.046875 548.180664062 240.505859375 564.690429688 c 0
 224.288085938 575.364257812 220.817382812 577.649414062 213.961914062 577.649414062 c 0
 203.627929688 577.649414062 194.095703125 576.263671875 164.268554688 547.83203125 c 2
 125.3671875 510.748046875 l 1
 153.790039062 633.858398438 l 1
 183.71484375 659.256835938 205.239257812 676.44921875 239.625976562 676.44921875 c 0x3480
EndSplineSet
EndChar

StartChar: adieresis
Encoding: 228 228 165
Width: 402
GlyphClass: 2
Flags: MW
HStem: -6.59961 90.249<75.979 149.418> 1 21G<182.482 278.433 182.482 182.482> 232.799 82.6514<159.938 252.229 193.328 233.148> 442.75 91.2002<210.548 238.52> 551.049 115.9<155.729 234.422 128.972 261.18 155.729 273.372 300.13 378.821>
VStem: 40.6748 98.8018 53.0254 95 85.3262 105.45 229.727 105.449 262.977 98.7998
LayerCount: 2
Fore
SplineSet
59.166015625 388.599609375 m 2xba
 80.3896484375 480.526367188 155.494140625 533.950195312 243.774414062 533.950195312 c 0
 292.430664062 533.950195312 329.358398438 520.39453125 350.720703125 491.17578125 c 0
 371.8984375 462.211914062 375.702148438 422.3203125 364.627929688 374.349609375 c 2
 278.432617188 1 l 1
 182.482421875 1 l 1x7a40
 186.748046875 19.4736328125 l 1
 160.161132812 2.208984375 130.138671875 -6.599609375 98.078125 -6.599609375 c 0
 53.8798828125 -6.599609375 20.501953125 7.8720703125 2.169921875 37.990234375 c 0
 -15.91015625 67.6962890625 -17.9638671875 108.009765625 -6.69921875 156.799804688 c 0xbc40
 4.2763671875 204.342773438 27.1171875 244.05078125 62.6435546875 272.9140625 c 0
 98.490234375 302.037109375 142.921875 315.450195312 193.328125 315.450195312 c 2
 252.228515625 315.450195312 l 1
 266.484375 377.200195312 l 2
 279.181640625 432.194335938 254.322265625 442.75 222.717773438 442.75 c 0
 198.37890625 442.75 164.8984375 435.084960938 153.947265625 387.650390625 c 2
 148.245117188 362.950195312 l 1
 53.2451171875 362.950195312 l 1
 59.166015625 388.599609375 l 2xba
134.11328125 83.6494140625 m 0xbc40
 164.72265625 83.6494140625 201.8984375 97.44140625 216.041015625 158.69921875 c 2
 233.1484375 232.798828125 l 1
 180.8984375 232.798828125 l 2
 138.977539062 232.798828125 105.982421875 216.921875 92.3212890625 157.749023438 c 0
 76.6787109375 89.9912109375 108.90234375 83.6494140625 134.11328125 83.6494140625 c 0xbc40
155.729492188 666.94921875 m 1x39
 261.1796875 666.94921875 l 1
 234.421875 551.048828125 l 1
 128.971679688 551.048828125 l 1
 155.729492188 666.94921875 l 1x39
300.129882812 666.94921875 m 1x3880
 405.579101562 666.94921875 l 1
 378.821289062 551.048828125 l 1
 273.372070312 551.048828125 l 1
 300.129882812 666.94921875 l 1x3880
EndSplineSet
EndChar

StartChar: aring
Encoding: 229 229 166
Width: 402
GlyphClass: 2
Flags: MW
HStem: -6.59961 90.249<75.979 149.418> 1 21G<182.482 278.433 182.482 182.482> 232.799 82.6514<159.938 252.229 193.328 233.148> 529.199 4.75098<219.26 268.103 199.634 278.319> 662.2 70.2988<274.505 284.094>
VStem: 40.6748 98.8018 53.0254 95 109.076 72.2002 239.227 73.1494 262.977 98.7998
LayerCount: 2
Fore
SplineSet
59.166015625 388.599609375 m 2xba
 80.3896484375 480.526367188 155.494140625 533.950195312 243.774414062 533.950195312 c 0
 292.430664062 533.950195312 329.358398438 520.39453125 350.720703125 491.17578125 c 0
 371.8984375 462.211914062 375.702148438 422.3203125 364.627929688 374.349609375 c 2
 278.432617188 1 l 1
 182.482421875 1 l 1x7a40
 186.748046875 19.4736328125 l 1
 160.161132812 2.208984375 130.138671875 -6.599609375 98.078125 -6.599609375 c 0
 53.8798828125 -6.599609375 20.501953125 7.8720703125 2.169921875 37.990234375 c 0
 -15.91015625 67.6962890625 -17.9638671875 108.009765625 -6.69921875 156.799804688 c 0xbc40
 4.2763671875 204.342773438 27.1171875 244.05078125 62.6435546875 272.9140625 c 0
 98.490234375 302.037109375 142.921875 315.450195312 193.328125 315.450195312 c 2
 252.228515625 315.450195312 l 1
 266.484375 377.200195312 l 2
 279.181640625 432.194335938 254.322265625 442.75 222.717773438 442.75 c 0
 198.37890625 442.75 164.8984375 435.084960938 153.947265625 387.650390625 c 2
 148.245117188 362.950195312 l 1
 53.2451171875 362.950195312 l 1
 59.166015625 388.599609375 l 2xba
134.11328125 83.6494140625 m 0xbc40
 164.72265625 83.6494140625 201.8984375 97.44140625 216.041015625 158.69921875 c 2
 233.1484375 232.798828125 l 1
 180.8984375 232.798828125 l 2
 138.977539062 232.798828125 105.982421875 216.921875 92.3212890625 157.749023438 c 0
 76.6787109375 89.9912109375 108.90234375 83.6494140625 134.11328125 83.6494140625 c 0xbc40
248.376953125 529.19921875 m 0
 190.143554688 529.19921875 157.890625 573.4375 171.14453125 630.848632812 c 0
 184.399414062 688.26171875 237.080078125 732.499023438 295.3125 732.499023438 c 0
 355.1953125 732.499023438 387.612304688 687.885742188 374.444335938 630.848632812 c 0x3980
 361.27734375 573.813476562 308.260742188 529.19921875 248.376953125 529.19921875 c 0
301.294921875 630.849609375 m 0
 303.678710938 641.172851562 302.444335938 648.0625 298.37109375 653.876953125 c 0
 294.518554688 659.380859375 289.10546875 662.200195312 279.083007812 662.200195312 c 0
 269.927734375 662.200195312 263.508789062 659.564453125 256.903320312 653.87890625 c 0
 250.142578125 648.059570312 245.727539062 641.169921875 243.344726562 630.848632812 c 0
 240.959960938 620.518554688 242.250976562 613.928710938 246.221679688 608.514648438 c 0
 250.204101562 603.0859375 255.502929688 600.44921875 264.827148438 600.44921875 c 0
 275.010742188 600.44921875 281.826171875 603.26171875 288.104492188 608.514648438 c 0
 294.575195312 613.928710938 298.91015625 620.51953125 301.294921875 630.849609375 c 0
EndSplineSet
EndChar

StartChar: ae
Encoding: 230 230 167
Width: 625
GlyphClass: 2
Flags: MW
HStem: -6.59961 90.249<120.89 137.53> 228.05 83.5996<350.148 480.299 350.148 559.802 330.851 480.299> 442.75 91.2002<210.548 238.52>
VStem: 40.6748 98.7979 53.0254 95 262.973 98.7998 491.923 98.8037
LayerCount: 2
Fore
SplineSet
59.166015625 388.599609375 m 2xee
 80.3896484375 480.526367188 155.494140625 533.950195312 243.774414062 533.950195312 c 0
 290.3046875 533.950195312 325.994140625 521.655273438 347.3515625 495.54296875 c 1
 381.405273438 521.37109375 421.779296875 533.950195312 466.075195312 533.950195312 c 0
 515.420898438 533.950195312 552.969726562 517.720703125 575.203125 484.59765625 c 0
 597.6640625 451.139648438 600.286132812 403.408203125 586.559570312 343.950195312 c 2
 559.801757812 228.049804688 l 1
 330.850585938 228.049804688 l 1
 327.633789062 214.116210938 324.4140625 200.182617188 321.197265625 186.249023438 c 0
 311.62890625 144.8046875 313.206054688 118.168945312 320.921875 104.854492188 c 0
 329.020507812 90.8798828125 342.66796875 83.650390625 365.911132812 83.650390625 c 0
 394.564453125 83.650390625 430.149414062 94.4287109375 446.303710938 164.400390625 c 2
 451.127929688 185.299804688 l 1
 548.978515625 185.299804688 l 1
 544.373046875 165.349609375 l 2
 531.92578125 111.434570312 508.715820312 67.8583984375 472.56640625 37.58984375 c 0
 436.788085938 7.6318359375 393.334960938 -6.599609375 345.076171875 -6.599609375 c 0
 295.114257812 -6.599609375 257.258789062 8.330078125 234.859375 38.9072265625 c 1
 209.8359375 18.1259765625 167.482421875 -6.599609375 107.577148438 -6.599609375 c 0
 61.1572265625 -6.599609375 25.796875 7.38671875 5.314453125 36.89453125 c 0
 -15.041015625 66.2197265625 -18.326171875 106.438476562 -7.1376953125 154.900390625 c 0xf6
 3.705078125 201.866210938 26.498046875 241.143554688 61.9716796875 269.666015625 c 0
 97.7529296875 298.4375 142.08984375 311.650390625 192.451171875 311.650390625 c 2
 251.3515625 311.650390625 l 1
 266.484375 377.200195312 l 2
 279.181640625 432.194335938 254.322265625 442.75 222.717773438 442.75 c 0
 198.37890625 442.75 164.8984375 435.084960938 153.947265625 387.650390625 c 2
 148.245117188 362.950195312 l 1
 53.2451171875 362.950195312 l 1
 59.166015625 388.599609375 l 2xee
357.166015625 342.048828125 m 2
 350.1484375 311.649414062 l 1
 480.298828125 311.649414062 l 1
 487.755859375 343.94921875 l 2
 496.889648438 383.512695312 495.5234375 409.022460938 488.463867188 421.747070312 c 0
 481.193359375 434.848632812 468.4296875 441.798828125 445.745117188 441.798828125 c 0
 423.069335938 441.798828125 406.8359375 434.836914062 393.143554688 421.599609375 c 0
 380.104492188 408.995117188 366.604492188 382.9296875 357.166015625 342.048828125 c 2
134.109375 83.6494140625 m 0
 162.306640625 83.6494140625 201.556640625 95.978515625 216.255859375 159.649414062 c 2
 232.266601562 228.999023438 l 1
 180.016601562 228.999023438 l 2
 136.095703125 228.999023438 104.788085938 211.766601562 91.87890625 155.848632812 c 0
 76.861328125 90.7998046875 107.669921875 83.6494140625 134.109375 83.6494140625 c 0
EndSplineSet
EndChar

StartChar: ccedilla
Encoding: 231 231 168
Width: 410
GlyphClass: 2
Flags: MW
HStem: 441.798 92.1514<230.106 247.447>
VStem: 50.1758 98.8008 279.126 98.7998
LayerCount: 2
Fore
SplineSet
255.172851562 533.94921875 m 0
 315.575195312 533.94921875 412.44921875 511.5390625 377.487304688 360.099609375 c 2
 370.46875 329.700195312 l 1
 271.668945312 329.700195312 l 1
 278.686523438 360.09765625 l 2
 296.19140625 435.916992188 260.044921875 441.797851562 234.848632812 441.797851562 c 0
 210.654296875 441.797851562 193.8125 434.6171875 180.346679688 421.598632812 c 0
 167.30859375 408.994140625 153.80859375 382.928710938 144.370117188 342.047851562 c 2
 108.181640625 185.297851562 l 2
 98.7431640625 144.416015625 100.208007812 118.350585938 107.42578125 105.74609375 c 0
 114.943359375 92.6201171875 128.213867188 85.546875 151.65234375 85.546875 c 0
 177.942382812 85.546875 216.80078125 92.041015625 234.1640625 167.247070312 c 2
 241.182617188 197.647460938 l 1
 339.982421875 197.647460938 l 1
 333.182617188 168.197265625 l 2
 323.038085938 124.254882812 306.135742188 87.4404296875 280.958984375 58.7158203125 c 0
 258.100585938 32.6337890625 229.635742188 14.013671875 197.33203125 3.4755859375 c 1
 111.868164062 -143.40234375 l 1
 1.7265625 -143.40234375 l 1
 93.1669921875 -3.689453125 l 1
 29.642578125 8.1845703125 -21.17578125 52.94140625 7.626953125 177.69921875 c 2
 47.32421875 349.649414062 l 2
 61.1611328125 409.583007812 85.396484375 456.81640625 123.088867188 488.342773438 c 0
 160.057617188 519.263671875 205.0390625 533.94921875 255.172851562 533.94921875 c 0
EndSplineSet
EndChar

StartChar: egrave
Encoding: 232 232 169
Width: 409
GlyphClass: 2
Flags: MW
HStem: -6.59961 90.25<141.493 154.792> 227.1 83.5996<137.133 267.282 137.133 345.832 117.832 267.282> 441.799 92.1514<227.656 251.127>
VStem: 50.1758 98.8008 279.126 97.8506
LayerCount: 2
Fore
SplineSet
130.37890625 -6.599609375 m 0
 51.7197265625 -6.599609375 -26.7265625 28.8984375 9.380859375 185.299804688 c 2
 46.0087890625 343.950195312 l 2
 59.7197265625 403.340820312 83.982421875 450.96875 121.180664062 484.44140625 c 0
 158.153320312 517.7109375 202.98828125 533.950195312 252.32421875 533.950195312 c 0
 301.669921875 533.950195312 339.21875 517.719726562 361.453125 484.59765625 c 0
 383.9140625 451.139648438 386.536132812 403.408203125 372.809570312 343.950195312 c 2
 345.83203125 227.099609375 l 1
 117.83203125 227.099609375 l 1
 108.401367188 186.249023438 l 2
 98.8330078125 144.8046875 100.41015625 118.168945312 108.125 104.854492188 c 0
 116.223632812 90.8798828125 129.872070312 83.650390625 153.114257812 83.650390625 c 0
 176.678710938 83.650390625 215.072265625 88.669921875 232.556640625 164.400390625 c 2
 237.380859375 185.299804688 l 1
 335.231445312 185.299804688 l 1
 330.625976562 165.349609375 l 2
 318.178710938 111.434570312 294.967773438 67.8583984375 258.819335938 37.58984375 c 0
 222.975585938 7.5771484375 179.206054688 -6.599609375 130.37890625 -6.599609375 c 0
274.958984375 343.94921875 m 2
 293.158203125 422.778320312 270.255859375 441.798828125 231.999023438 441.798828125 c 0
 209.40625 441.798828125 193.465820312 434.786132812 180.030273438 421.388671875 c 0
 166.939453125 408.333984375 153.655273438 382.266601562 144.370117188 342.048828125 c 2
 137.1328125 310.69921875 l 1
 267.282226562 310.69921875 l 1
 274.958984375 343.94921875 l 2
146.669921875 704.94921875 m 1
 262.6640625 704.94921875 l 1
 337.05078125 548.19921875 l 1
 242.928710938 548.19921875 l 1
 146.669921875 704.94921875 l 1
EndSplineSet
EndChar

